<?xml version="1.0" encoding="UTF-8"?>
<svg version="1.1" xmlns="http://www.w3.org/2000/svg" width="225" height="225">
<path d="M0 0 C74.25 0 148.5 0 225 0 C225 74.25 225 148.5 225 225 C150.75 225 76.5 225 0 225 C0 150.75 0 76.5 0 0 Z " fill="#FDFEFE" transform="translate(0,0)"/>
<path d="M0 0 C3.44021237 1.42095728 4.64628394 2.18401364 6.1328125 5.61328125 C6.41898438 6.40089844 6.70515625 7.18851563 7 8 C8.11560303 7.99476318 9.23120605 7.98952637 10.38061523 7.98413086 C14.50479333 7.96608225 18.62896791 7.95456851 22.75317383 7.94506836 C24.54094021 7.94002782 26.32870245 7.93319546 28.11645508 7.92456055 C30.68051168 7.9124827 33.24451397 7.90676906 35.80859375 7.90234375 C36.6127623 7.89718246 37.41693085 7.89202118 38.24546814 7.88670349 C40.16401715 7.88650785 42.08245368 7.93798017 44 8 C45 9 45 9 45.11352539 12.69360352 C45.11336624 14.33871292 45.10766988 15.98382731 45.09765625 17.62890625 C45.0962413 18.49313705 45.09482635 19.35736786 45.09336853 20.24778748 C45.08775239 23.01939292 45.07519719 25.7909188 45.0625 28.5625 C45.05748708 30.4368478 45.05292381 32.31119685 45.04882812 34.18554688 C45.03862681 38.79042021 45.01905467 43.3951206 45 48 C51.93 48 58.86 48 66 48 C65.98839844 45.19628906 65.97679688 42.39257812 65.96484375 39.50390625 C65.95705367 36.80004998 65.95097663 34.09619494 65.94506836 31.39233398 C65.94002756 29.5075627 65.93319502 27.62279535 65.92456055 25.73803711 C65.91248383 23.03498364 65.90676932 20.33198169 65.90234375 17.62890625 C65.89718246 16.78099014 65.89202118 15.93307404 65.88670349 15.0594635 C65.88650805 13.03928932 65.93793789 11.01922066 66 9 C67 8 67 8 70.51000977 7.88647461 C72.07048422 7.88663374 73.63096393 7.89232858 75.19140625 7.90234375 C76.01124496 7.9037587 76.83108368 7.90517365 77.67576599 7.90663147 C80.30471382 7.91224711 82.93357773 7.92480221 85.5625 7.9375 C87.34049357 7.94251299 89.11848846 7.94707624 90.89648438 7.95117188 C95.26435545 7.96222161 99.63216348 7.97949669 104 8 C104.28617188 7.21238281 104.57234375 6.42476562 104.8671875 5.61328125 C106.35371606 2.18401364 107.55978763 1.42095728 111 0 C115.39718582 -0.72989724 118.13336857 -0.553169 121.9375 1.875 C125.34325286 5.3839575 125.33097275 8.01818439 125.29296875 12.73828125 C124.86344199 16.0542278 123.39075646 17.74987627 121 20 C117.54260443 21.72869779 113.78024432 21.48966895 110 21 C107.12970131 19.20606332 105.50868362 18.01736724 104 15 C93.44 14.67 82.88 14.34 72 14 C72 25.55 72 37.1 72 49 C77.445 49.495 77.445 49.495 83 50 C86.0847168 50.75610352 86.0847168 50.75610352 88.44921875 51.62890625 C89.31611328 51.94150391 90.18300781 52.25410156 91.07617188 52.57617188 C91.93791016 52.90166016 92.79964844 53.22714844 93.6875 53.5625 C94.59177734 53.89185547 95.49605469 54.22121094 96.42773438 54.56054688 C98.62310485 55.36203134 100.81333038 56.17513873 103 57 C102.99476318 56.39937744 102.98952637 55.79875488 102.98413086 55.17993164 C102.96341986 52.47413162 102.95035875 49.76834823 102.9375 47.0625 C102.92912109 46.11697266 102.92074219 45.17144531 102.91210938 44.19726562 C102.90888672 43.29814453 102.90566406 42.39902344 102.90234375 41.47265625 C102.89710693 40.64000244 102.89187012 39.80734863 102.88647461 38.94946289 C103 37 103 37 104 36 C105.99964982 35.91241997 108.0023611 35.89303424 110.00390625 35.90234375 C111.21884766 35.90556641 112.43378906 35.90878906 113.68554688 35.91210938 C114.96494141 35.92048828 116.24433594 35.92886719 117.5625 35.9375 C118.84576172 35.94201172 120.12902344 35.94652344 121.45117188 35.95117188 C124.63416022 35.96300455 127.81705762 35.97948932 131 36 C131.1340625 35.38640625 131.268125 34.7728125 131.40625 34.140625 C132.27795158 30.9979114 133.31836033 29.87714777 136 28 C140.7372887 27.28592339 144.87405175 27.40805815 149 30 C151.58836091 34.06742429 152.70045238 37.19689796 152 42 C148.84210526 47.57894737 148.84210526 47.57894737 146 49 C140.76530549 49.64854622 137.17161977 49.89043102 132.875 46.625 C131 44 131 44 131 42 C123.74 42 116.48 42 109 42 C108.07462696 53.31844272 108.07462696 53.31844272 112.05859375 63.43359375 C114.76136594 65.05692136 114.76136594 65.05692136 117.76171875 66.4296875 C121.50275498 68.24379675 124.40912123 70.44654457 127.5625 73.125 C128.10600098 73.58535645 128.64950195 74.04571289 129.20947266 74.52001953 C135.04147853 79.64638588 139.61164892 85.61232294 144 92 C144.58523437 92.84820312 145.17046875 93.69640625 145.7734375 94.5703125 C147.21712915 97.43010933 147.51161582 98.83860033 147 102 C140.80016682 113.92401778 130.0625868 126.07511134 118.07543945 132.2121582 C114.77871381 133.91530303 112.63731067 135.28230685 110 138 C108.03240243 144.26940022 108.72623717 150.47531933 109 157 C116.26 157 123.52 157 131 157 C131.66 155.35 132.32 153.7 133 152 C135.26266099 150.00353442 136.88451196 149.05645182 139.9296875 148.90234375 C144.70085109 149.27143376 147.5418981 150.5418981 151 154 C152.63865585 157.2773117 152.64613137 160.47161594 152 164 C150.50770307 167.03585597 148.80811322 169.10309086 146 171 C141.39047032 172.18877344 138.08309172 171.6318035 134 169.25 C131.969793 166.96601713 131.58315974 165.89150037 131 163 C130.18732666 163.00523682 129.37465332 163.01047363 128.53735352 163.01586914 C124.87907678 163.03656994 121.22081233 163.04963803 117.5625 163.0625 C116.28310547 163.07087891 115.00371094 163.07925781 113.68554688 163.08789062 C112.47060547 163.09111328 111.25566406 163.09433594 110.00390625 163.09765625 C108.31503296 163.10551147 108.31503296 163.10551147 106.59204102 163.11352539 C104 163 104 163 103 162 C102.84344973 160.51361008 102.74933057 159.02050873 102.68359375 157.52734375 C102.64169922 156.62822266 102.59980469 155.72910156 102.55664062 154.80273438 C102.51732422 153.85720703 102.47800781 152.91167969 102.4375 151.9375 C102.39431641 150.98810547 102.35113281 150.03871094 102.30664062 149.06054688 C102.20020724 146.70718647 102.09818992 144.35371646 102 142 C101.21238281 142.32613281 100.42476562 142.65226563 99.61328125 142.98828125 C90.76958881 146.53622413 81.63510438 150 72 150 C72 161.55 72 173.1 72 185 C77.1975 184.938125 82.395 184.87625 87.75 184.8125 C89.38420898 184.80581299 91.01841797 184.79912598 92.70214844 184.79223633 C93.9915332 184.76411865 95.28091797 184.73600098 96.609375 184.70703125 C97.92905273 184.6913208 99.24873047 184.67561035 100.60839844 184.65942383 C104.15852473 184.30780361 104.15852473 184.30780361 106.35253906 181.54174805 C106.89620117 180.70297119 107.43986328 179.86419434 108 179 C110.7815493 176.81449698 112.30147973 177 115.9375 177 C119.34111442 177.55984686 120.17731129 178.14775941 123 180.5 C125.34720594 183.81323287 125.71588365 186.87831235 125.5 190.87890625 C124.69230342 194.30530659 122.72622198 195.92287849 120 198 C116.93570224 199.53214888 114.3834358 199.22938548 111 199 C108.1875 197.8125 108.1875 197.8125 106 196 C105.01 193.525 105.01 193.525 104 191 C91.79 191 79.58 191 67 191 C65.36054037 187.72108075 65.87969822 184.09386466 65.90234375 180.4921875 C65.9037587 179.65156769 65.90517365 178.81094788 65.90663147 177.94485474 C65.91223763 175.25486725 65.92479114 172.56496241 65.9375 169.875 C65.94251421 168.05338662 65.94707725 166.23177193 65.95117188 164.41015625 C65.961359 159.94004656 65.98093315 155.47011601 66 151 C59.07 151 52.14 151 45 151 C45.01160156 153.71992188 45.02320312 156.43984375 45.03515625 159.2421875 C45.04294998 161.86995324 45.04902495 164.4977177 45.05493164 167.12548828 C45.05996737 168.95492121 45.06679627 170.78435009 45.07543945 172.61376953 C45.08753824 175.23991898 45.09323583 177.86601532 45.09765625 180.4921875 C45.10281754 181.31306854 45.10797882 182.13394958 45.11329651 182.97970581 C45.11387171 188.77225659 45.11387171 188.77225659 44 191 C42.89487061 191.00410889 41.78974121 191.00821777 40.65112305 191.01245117 C36.55250345 191.03421615 32.45484751 191.08847711 28.35668945 191.15258789 C26.58269483 191.17579115 24.80856201 191.19016909 23.03442383 191.19555664 C20.48431035 191.20482978 17.93637746 191.24577933 15.38671875 191.29296875 C14.59287277 191.2890361 13.79902679 191.28510345 12.98112488 191.28105164 C10.4732674 191.29233168 10.4732674 191.29233168 7 192 C5.00261481 194.34619743 5.00261481 194.34619743 4 197 C0.98997559 199.34113009 -2.27741542 199.41216607 -6.03125 199.328125 C-9.14316604 198.80947233 -10.85067869 197.21445226 -13 195 C-14.74221711 191.51556578 -14.58675154 187.80112955 -14 184 C-12.29748281 180.92530477 -10.18773492 178.59386746 -7 177 C-1.72274989 176.40031249 0.88707202 177.72835275 5 181 C5.66 181.99 6.32 182.98 7 184 C9.47276614 184.33785441 11.71540052 184.4889713 14.1953125 184.51171875 C15.48969238 184.54483154 16.78407227 184.57794434 18.11767578 184.61206055 C20.59630127 184.64940308 20.59630127 184.64940308 23.125 184.6875 C28.36375 184.790625 33.6025 184.89375 39 185 C39 173.45 39 161.9 39 150 C36.03 149.67 33.06 149.34 30 149 C27.49707031 148.45922852 27.49707031 148.45922852 25.578125 147.87890625 C24.86269531 147.66556641 24.14726563 147.45222656 23.41015625 147.23242188 C22.34087891 146.90081055 22.34087891 146.90081055 21.25 146.5625 C20.52167969 146.34529297 19.79335937 146.12808594 19.04296875 145.90429688 C15.2828305 144.76806635 11.62176449 143.5328334 8 142 C8.00523682 142.60062256 8.01047363 143.20124512 8.01586914 143.82006836 C8.03658014 146.52586838 8.04964125 149.23165177 8.0625 151.9375 C8.07087891 152.88302734 8.07925781 153.82855469 8.08789062 154.80273438 C8.09111328 155.70185547 8.09433594 156.60097656 8.09765625 157.52734375 C8.10289307 158.35999756 8.10812988 159.19265137 8.11352539 160.05053711 C8 162 8 162 7 163 C5.00035018 163.08758003 2.9976389 163.10696576 0.99609375 163.09765625 C-0.21884766 163.09443359 -1.43378906 163.09121094 -2.68554688 163.08789062 C-3.96494141 163.07951172 -5.24433594 163.07113281 -6.5625 163.0625 C-7.84576172 163.05798828 -9.12902344 163.05347656 -10.45117188 163.04882812 C-13.63416022 163.03699545 -16.81705762 163.02051068 -20 163 C-20.29648437 163.78761719 -20.59296875 164.57523438 -20.8984375 165.38671875 C-22.211673 168.50216041 -22.97806748 169.48903374 -26 171 C-32.54545455 171.84457478 -32.54545455 171.84457478 -35.81640625 169.9453125 C-37.99189211 168.173471 -39.73703554 166.52592891 -41 164 C-41.57791538 156.9494324 -41.57791538 156.9494324 -39.25 153.125 C-35.58576883 149.66433723 -34.23601864 148.98038066 -29.0625 149.0625 C-24.77529294 149.71960463 -22.67993752 151.56633006 -20 155 C-20 155.66 -20 156.32 -20 157 C-12.74 157 -5.48 157 2 157 C2.94028142 145.59951909 2.94028142 145.59951909 -1.1640625 135.49609375 C-3.93247195 133.82255839 -3.93247195 133.82255839 -6.953125 132.45703125 C-12.12253055 129.98499501 -15.89784613 125.93094544 -20 122 C-20.69996094 121.36320312 -21.39992188 120.72640625 -22.12109375 120.0703125 C-27.83144524 114.70503098 -34.95069102 107.42716368 -36.4765625 99.53515625 C-35.80844583 95.98099463 -33.97895158 93.47756108 -31.875 90.625 C-31.45976074 90.0484668 -31.04452148 89.47193359 -30.61669922 88.87792969 C-29.42645282 87.24070532 -28.21384783 85.61980356 -27 84 C-26.48953125 83.31164062 -25.9790625 82.62328125 -25.453125 81.9140625 C-20.55240384 75.77374716 -13.99002124 69.86766951 -6.87890625 66.5390625 C-3.51401902 64.95507137 -1.42235005 63.84903923 1 61 C2.65411972 54.75000275 2.13292198 48.42456245 2 42 C-5.26 42 -12.52 42 -20 42 C-20.66 43.32 -21.32 44.64 -22 46 C-23.70605324 48.22089771 -24.53497803 48.90541926 -27.3046875 49.46875 C-34.28610805 49.55363049 -34.28610805 49.55363049 -38.0625 46.625 C-41.09970072 42.5100829 -41.51609098 40.16090977 -41 35 C-39.22719439 32.02327416 -37.14391985 29.57195993 -34 28 C-29.26002164 27.52600216 -26.31576126 27.28714643 -22.5 30.3125 C-20 33 -20 33 -20 36 C-19.18732666 35.99476318 -18.37465332 35.98952637 -17.53735352 35.98413086 C-13.87907678 35.96343006 -10.22081233 35.95036197 -6.5625 35.9375 C-5.28310547 35.92912109 -4.00371094 35.92074219 -2.68554688 35.91210938 C-1.47060547 35.90888672 -0.25566406 35.90566406 0.99609375 35.90234375 C2.12200928 35.89710693 3.2479248 35.89187012 4.40795898 35.88647461 C7 36 7 36 8 37 C8.08669432 38.4887186 8.10703494 39.981445 8.09765625 41.47265625 C8.09443359 42.37177734 8.09121094 43.27089844 8.08789062 44.19726562 C8.07532227 45.61555664 8.07532227 45.61555664 8.0625 47.0625 C8.05798828 48.01189453 8.05347656 48.96128906 8.04882812 49.93945312 C8.0370011 52.29303065 8.02052025 54.64648477 8 57 C9.03898437 56.59007812 10.07796875 56.18015625 11.1484375 55.7578125 C20.4003489 52.16188295 28.9517757 49 39 49 C39 37.45 39 25.9 39 14 C33.8025 14.061875 28.605 14.12375 23.25 14.1875 C20.79868652 14.19753052 20.79868652 14.19753052 18.29785156 14.20776367 C16.36377441 14.24994019 16.36377441 14.24994019 14.390625 14.29296875 C13.07094727 14.3086792 11.75126953 14.32438965 10.39160156 14.34057617 C6.84157146 14.69178017 6.84157146 14.69178017 4.65136719 17.45825195 C4.10641602 18.29702881 3.56146484 19.13580566 3 20 C0.2960844 22.05124631 -0.97766328 22.00081224 -4.4375 21.875 C-8.29943186 20.92645533 -10.17092464 19.74586726 -13 17 C-14.72869779 13.54260443 -14.48966895 9.78024432 -14 6 C-10.3051003 0.08816049 -6.75705316 -0.71331655 0 0 Z " fill="#FBFCFE" transform="translate(57,13)"/>
<path d="M0 0 C3.44021237 1.42095728 4.64628394 2.18401364 6.1328125 5.61328125 C6.41898438 6.40089844 6.70515625 7.18851563 7 8 C8.11560303 7.99476318 9.23120605 7.98952637 10.38061523 7.98413086 C14.50479333 7.96608225 18.62896791 7.95456851 22.75317383 7.94506836 C24.54094021 7.94002782 26.32870245 7.93319546 28.11645508 7.92456055 C30.68051168 7.9124827 33.24451397 7.90676906 35.80859375 7.90234375 C36.6127623 7.89718246 37.41693085 7.89202118 38.24546814 7.88670349 C40.16401715 7.88650785 42.08245368 7.93798017 44 8 C45 9 45 9 45.11352539 12.69360352 C45.11336624 14.33871292 45.10766988 15.98382731 45.09765625 17.62890625 C45.0962413 18.49313705 45.09482635 19.35736786 45.09336853 20.24778748 C45.08775239 23.01939292 45.07519719 25.7909188 45.0625 28.5625 C45.05748708 30.4368478 45.05292381 32.31119685 45.04882812 34.18554688 C45.03862681 38.79042021 45.01905467 43.3951206 45 48 C51.93 48 58.86 48 66 48 C65.98839844 45.19628906 65.97679688 42.39257812 65.96484375 39.50390625 C65.95705367 36.80004998 65.95097663 34.09619494 65.94506836 31.39233398 C65.94002756 29.5075627 65.93319502 27.62279535 65.92456055 25.73803711 C65.91248383 23.03498364 65.90676932 20.33198169 65.90234375 17.62890625 C65.89718246 16.78099014 65.89202118 15.93307404 65.88670349 15.0594635 C65.88650805 13.03928932 65.93793789 11.01922066 66 9 C67 8 67 8 70.51000977 7.88647461 C72.07048422 7.88663374 73.63096393 7.89232858 75.19140625 7.90234375 C76.01124496 7.9037587 76.83108368 7.90517365 77.67576599 7.90663147 C80.30471382 7.91224711 82.93357773 7.92480221 85.5625 7.9375 C87.34049357 7.94251299 89.11848846 7.94707624 90.89648438 7.95117188 C95.26435545 7.96222161 99.63216348 7.97949669 104 8 C104.28617188 7.21238281 104.57234375 6.42476562 104.8671875 5.61328125 C106.35371606 2.18401364 107.55978763 1.42095728 111 0 C115.39718582 -0.72989724 118.13336857 -0.553169 121.9375 1.875 C125.34325286 5.3839575 125.33097275 8.01818439 125.29296875 12.73828125 C124.86344199 16.0542278 123.39075646 17.74987627 121 20 C117.54260443 21.72869779 113.78024432 21.48966895 110 21 C107.12970131 19.20606332 105.50868362 18.01736724 104 15 C93.44 14.67 82.88 14.34 72 14 C72 25.55 72 37.1 72 49 C77.445 49.495 77.445 49.495 83 50 C86.0847168 50.75610352 86.0847168 50.75610352 88.44921875 51.62890625 C89.31611328 51.94150391 90.18300781 52.25410156 91.07617188 52.57617188 C91.93791016 52.90166016 92.79964844 53.22714844 93.6875 53.5625 C94.59177734 53.89185547 95.49605469 54.22121094 96.42773438 54.56054688 C98.62310485 55.36203134 100.81333038 56.17513873 103 57 C102.99476318 56.39937744 102.98952637 55.79875488 102.98413086 55.17993164 C102.96341986 52.47413162 102.95035875 49.76834823 102.9375 47.0625 C102.92912109 46.11697266 102.92074219 45.17144531 102.91210938 44.19726562 C102.90888672 43.29814453 102.90566406 42.39902344 102.90234375 41.47265625 C102.89710693 40.64000244 102.89187012 39.80734863 102.88647461 38.94946289 C103 37 103 37 104 36 C105.99964982 35.91241997 108.0023611 35.89303424 110.00390625 35.90234375 C111.21884766 35.90556641 112.43378906 35.90878906 113.68554688 35.91210938 C114.96494141 35.92048828 116.24433594 35.92886719 117.5625 35.9375 C118.84576172 35.94201172 120.12902344 35.94652344 121.45117188 35.95117188 C124.63416022 35.96300455 127.81705762 35.97948932 131 36 C131.1340625 35.38640625 131.268125 34.7728125 131.40625 34.140625 C132.27795158 30.9979114 133.31836033 29.87714777 136 28 C140.7372887 27.28592339 144.87405175 27.40805815 149 30 C151.58836091 34.06742429 152.70045238 37.19689796 152 42 C148.84210526 47.57894737 148.84210526 47.57894737 146 49 C140.76530549 49.64854622 137.17161977 49.89043102 132.875 46.625 C131 44 131 44 131 42 C123.74 42 116.48 42 109 42 C108.07462696 53.31844272 108.07462696 53.31844272 112.05859375 63.43359375 C114.76136594 65.05692136 114.76136594 65.05692136 117.76171875 66.4296875 C121.50275498 68.24379675 124.40912123 70.44654457 127.5625 73.125 C128.10600098 73.58535645 128.64950195 74.04571289 129.20947266 74.52001953 C135.04147853 79.64638588 139.61164892 85.61232294 144 92 C144.58523437 92.84820312 145.17046875 93.69640625 145.7734375 94.5703125 C147.21712915 97.43010933 147.51161582 98.83860033 147 102 C140.80016682 113.92401778 130.0625868 126.07511134 118.07543945 132.2121582 C114.77871381 133.91530303 112.63731067 135.28230685 110 138 C108.03240243 144.26940022 108.72623717 150.47531933 109 157 C116.26 157 123.52 157 131 157 C131.66 155.35 132.32 153.7 133 152 C135.26266099 150.00353442 136.88451196 149.05645182 139.9296875 148.90234375 C144.70085109 149.27143376 147.5418981 150.5418981 151 154 C152.63865585 157.2773117 152.64613137 160.47161594 152 164 C150.50770307 167.03585597 148.80811322 169.10309086 146 171 C141.39047032 172.18877344 138.08309172 171.6318035 134 169.25 C131.969793 166.96601713 131.58315974 165.89150037 131 163 C130.18732666 163.00523682 129.37465332 163.01047363 128.53735352 163.01586914 C124.87907678 163.03656994 121.22081233 163.04963803 117.5625 163.0625 C116.28310547 163.07087891 115.00371094 163.07925781 113.68554688 163.08789062 C112.47060547 163.09111328 111.25566406 163.09433594 110.00390625 163.09765625 C108.31503296 163.10551147 108.31503296 163.10551147 106.59204102 163.11352539 C104 163 104 163 103 162 C102.84344973 160.51361008 102.74933057 159.02050873 102.68359375 157.52734375 C102.64169922 156.62822266 102.59980469 155.72910156 102.55664062 154.80273438 C102.51732422 153.85720703 102.47800781 152.91167969 102.4375 151.9375 C102.39431641 150.98810547 102.35113281 150.03871094 102.30664062 149.06054688 C102.20020724 146.70718647 102.09818992 144.35371646 102 142 C101.21238281 142.32613281 100.42476562 142.65226563 99.61328125 142.98828125 C90.76958881 146.53622413 81.63510438 150 72 150 C72 161.55 72 173.1 72 185 C77.1975 184.938125 82.395 184.87625 87.75 184.8125 C89.38420898 184.80581299 91.01841797 184.79912598 92.70214844 184.79223633 C93.9915332 184.76411865 95.28091797 184.73600098 96.609375 184.70703125 C97.92905273 184.6913208 99.24873047 184.67561035 100.60839844 184.65942383 C104.15852473 184.30780361 104.15852473 184.30780361 106.35253906 181.54174805 C106.89620117 180.70297119 107.43986328 179.86419434 108 179 C110.7815493 176.81449698 112.30147973 177 115.9375 177 C119.34111442 177.55984686 120.17731129 178.14775941 123 180.5 C125.34720594 183.81323287 125.71588365 186.87831235 125.5 190.87890625 C124.69230342 194.30530659 122.72622198 195.92287849 120 198 C116.93570224 199.53214888 114.3834358 199.22938548 111 199 C108.1875 197.8125 108.1875 197.8125 106 196 C105.01 193.525 105.01 193.525 104 191 C91.79 191 79.58 191 67 191 C65.36054037 187.72108075 65.87969822 184.09386466 65.90234375 180.4921875 C65.9037587 179.65156769 65.90517365 178.81094788 65.90663147 177.94485474 C65.91223763 175.25486725 65.92479114 172.56496241 65.9375 169.875 C65.94251421 168.05338662 65.94707725 166.23177193 65.95117188 164.41015625 C65.961359 159.94004656 65.98093315 155.47011601 66 151 C59.07 151 52.14 151 45 151 C45.01160156 153.71992188 45.02320312 156.43984375 45.03515625 159.2421875 C45.04294998 161.86995324 45.04902495 164.4977177 45.05493164 167.12548828 C45.05996737 168.95492121 45.06679627 170.78435009 45.07543945 172.61376953 C45.08753824 175.23991898 45.09323583 177.86601532 45.09765625 180.4921875 C45.10281754 181.31306854 45.10797882 182.13394958 45.11329651 182.97970581 C45.11387171 188.77225659 45.11387171 188.77225659 44 191 C42.89487061 191.00410889 41.78974121 191.00821777 40.65112305 191.01245117 C36.55250345 191.03421615 32.45484751 191.08847711 28.35668945 191.15258789 C26.58269483 191.17579115 24.80856201 191.19016909 23.03442383 191.19555664 C20.48431035 191.20482978 17.93637746 191.24577933 15.38671875 191.29296875 C14.59287277 191.2890361 13.79902679 191.28510345 12.98112488 191.28105164 C10.4732674 191.29233168 10.4732674 191.29233168 7 192 C5.00261481 194.34619743 5.00261481 194.34619743 4 197 C0.98997559 199.34113009 -2.27741542 199.41216607 -6.03125 199.328125 C-9.14316604 198.80947233 -10.85067869 197.21445226 -13 195 C-14.74221711 191.51556578 -14.58675154 187.80112955 -14 184 C-12.29748281 180.92530477 -10.18773492 178.59386746 -7 177 C-1.72274989 176.40031249 0.88707202 177.72835275 5 181 C5.66 181.99 6.32 182.98 7 184 C9.47276614 184.33785441 11.71540052 184.4889713 14.1953125 184.51171875 C15.48969238 184.54483154 16.78407227 184.57794434 18.11767578 184.61206055 C20.59630127 184.64940308 20.59630127 184.64940308 23.125 184.6875 C28.36375 184.790625 33.6025 184.89375 39 185 C39 173.45 39 161.9 39 150 C36.03 149.67 33.06 149.34 30 149 C27.49707031 148.45922852 27.49707031 148.45922852 25.578125 147.87890625 C24.86269531 147.66556641 24.14726563 147.45222656 23.41015625 147.23242188 C22.34087891 146.90081055 22.34087891 146.90081055 21.25 146.5625 C20.52167969 146.34529297 19.79335937 146.12808594 19.04296875 145.90429688 C15.2828305 144.76806635 11.62176449 143.5328334 8 142 C8.00523682 142.60062256 8.01047363 143.20124512 8.01586914 143.82006836 C8.03658014 146.52586838 8.04964125 149.23165177 8.0625 151.9375 C8.07087891 152.88302734 8.07925781 153.82855469 8.08789062 154.80273438 C8.09111328 155.70185547 8.09433594 156.60097656 8.09765625 157.52734375 C8.10289307 158.35999756 8.10812988 159.19265137 8.11352539 160.05053711 C8 162 8 162 7 163 C5.00035018 163.08758003 2.9976389 163.10696576 0.99609375 163.09765625 C-0.21884766 163.09443359 -1.43378906 163.09121094 -2.68554688 163.08789062 C-3.96494141 163.07951172 -5.24433594 163.07113281 -6.5625 163.0625 C-7.84576172 163.05798828 -9.12902344 163.05347656 -10.45117188 163.04882812 C-13.63416022 163.03699545 -16.81705762 163.02051068 -20 163 C-20.29648437 163.78761719 -20.59296875 164.57523438 -20.8984375 165.38671875 C-22.211673 168.50216041 -22.97806748 169.48903374 -26 171 C-32.54545455 171.84457478 -32.54545455 171.84457478 -35.81640625 169.9453125 C-37.99189211 168.173471 -39.73703554 166.52592891 -41 164 C-41.57791538 156.9494324 -41.57791538 156.9494324 -39.25 153.125 C-35.58576883 149.66433723 -34.23601864 148.98038066 -29.0625 149.0625 C-24.77529294 149.71960463 -22.67993752 151.56633006 -20 155 C-20 155.66 -20 156.32 -20 157 C-12.74 157 -5.48 157 2 157 C2.94028142 145.59951909 2.94028142 145.59951909 -1.1640625 135.49609375 C-3.93247195 133.82255839 -3.93247195 133.82255839 -6.953125 132.45703125 C-12.12253055 129.98499501 -15.89784613 125.93094544 -20 122 C-20.69996094 121.36320312 -21.39992188 120.72640625 -22.12109375 120.0703125 C-27.83144524 114.70503098 -34.95069102 107.42716368 -36.4765625 99.53515625 C-35.80844583 95.98099463 -33.97895158 93.47756108 -31.875 90.625 C-31.45976074 90.0484668 -31.04452148 89.47193359 -30.61669922 88.87792969 C-29.42645282 87.24070532 -28.21384783 85.61980356 -27 84 C-26.48953125 83.31164062 -25.9790625 82.62328125 -25.453125 81.9140625 C-20.55240384 75.77374716 -13.99002124 69.86766951 -6.87890625 66.5390625 C-3.51401902 64.95507137 -1.42235005 63.84903923 1 61 C2.65411972 54.75000275 2.13292198 48.42456245 2 42 C-5.26 42 -12.52 42 -20 42 C-20.66 43.32 -21.32 44.64 -22 46 C-23.70605324 48.22089771 -24.53497803 48.90541926 -27.3046875 49.46875 C-34.28610805 49.55363049 -34.28610805 49.55363049 -38.0625 46.625 C-41.09970072 42.5100829 -41.51609098 40.16090977 -41 35 C-39.22719439 32.02327416 -37.14391985 29.57195993 -34 28 C-29.26002164 27.52600216 -26.31576126 27.28714643 -22.5 30.3125 C-20 33 -20 33 -20 36 C-19.18732666 35.99476318 -18.37465332 35.98952637 -17.53735352 35.98413086 C-13.87907678 35.96343006 -10.22081233 35.95036197 -6.5625 35.9375 C-5.28310547 35.92912109 -4.00371094 35.92074219 -2.68554688 35.91210938 C-1.47060547 35.90888672 -0.25566406 35.90566406 0.99609375 35.90234375 C2.12200928 35.89710693 3.2479248 35.89187012 4.40795898 35.88647461 C7 36 7 36 8 37 C8.08669432 38.4887186 8.10703494 39.981445 8.09765625 41.47265625 C8.09443359 42.37177734 8.09121094 43.27089844 8.08789062 44.19726562 C8.07532227 45.61555664 8.07532227 45.61555664 8.0625 47.0625 C8.05798828 48.01189453 8.05347656 48.96128906 8.04882812 49.93945312 C8.0370011 52.29303065 8.02052025 54.64648477 8 57 C9.03898437 56.59007812 10.07796875 56.18015625 11.1484375 55.7578125 C20.4003489 52.16188295 28.9517757 49 39 49 C39 37.45 39 25.9 39 14 C33.8025 14.061875 28.605 14.12375 23.25 14.1875 C20.79868652 14.19753052 20.79868652 14.19753052 18.29785156 14.20776367 C16.36377441 14.24994019 16.36377441 14.24994019 14.390625 14.29296875 C13.07094727 14.3086792 11.75126953 14.32438965 10.39160156 14.34057617 C6.84157146 14.69178017 6.84157146 14.69178017 4.65136719 17.45825195 C4.10641602 18.29702881 3.56146484 19.13580566 3 20 C0.2960844 22.05124631 -0.97766328 22.00081224 -4.4375 21.875 C-8.29943186 20.92645533 -10.17092464 19.74586726 -13 17 C-14.72869779 13.54260443 -14.48966895 9.78024432 -14 6 C-10.3051003 0.08816049 -6.75705316 -0.71331655 0 0 Z M-14 79 C-14.69609375 79.61359375 -15.3921875 80.2271875 -16.109375 80.859375 C-21.79993858 86.19703541 -25.88043157 92.42622059 -30 99 C-20.43228321 119.93268426 0.84705288 133.02699908 21.65625 140.81640625 C48.26301249 150.23445419 78.86750485 146.35800773 103.9296875 134.62890625 C119.8514545 126.48342255 131.24572401 114.70882888 141 100 C131.9644468 80.23160737 111.82425164 66.85826001 92.203125 59.09375 C82.78015742 55.87615131 72.98014358 53.35042639 63 53 C61.7109375 52.93683594 60.421875 52.87367187 59.09375 52.80859375 C32.18207363 51.88838222 6.18236138 61.07580493 -14 79 Z " fill="#0E6EC8" transform="translate(57,13)"/>
<path d="M0 0 C3.44021237 1.42095728 4.64628394 2.18401364 6.1328125 5.61328125 C6.41898438 6.40089844 6.70515625 7.18851563 7 8 C8.11560303 7.99476318 9.23120605 7.98952637 10.38061523 7.98413086 C14.50479333 7.96608225 18.62896791 7.95456851 22.75317383 7.94506836 C24.54094021 7.94002782 26.32870245 7.93319546 28.11645508 7.92456055 C30.68051168 7.9124827 33.24451397 7.90676906 35.80859375 7.90234375 C36.6127623 7.89718246 37.41693085 7.89202118 38.24546814 7.88670349 C40.16401715 7.88650785 42.08245368 7.93798017 44 8 C45 9 45 9 45.11352539 12.69360352 C45.11336624 14.33871292 45.10766988 15.98382731 45.09765625 17.62890625 C45.0962413 18.49313705 45.09482635 19.35736786 45.09336853 20.24778748 C45.08775239 23.01939292 45.07519719 25.7909188 45.0625 28.5625 C45.05748708 30.4368478 45.05292381 32.31119685 45.04882812 34.18554688 C45.03862681 38.79042021 45.01905467 43.3951206 45 48 C51.93 48 58.86 48 66 48 C65.98839844 45.19628906 65.97679688 42.39257812 65.96484375 39.50390625 C65.95705367 36.80004998 65.95097663 34.09619494 65.94506836 31.39233398 C65.94002756 29.5075627 65.93319502 27.62279535 65.92456055 25.73803711 C65.91248383 23.03498364 65.90676932 20.33198169 65.90234375 17.62890625 C65.89718246 16.78099014 65.89202118 15.93307404 65.88670349 15.0594635 C65.88650805 13.03928932 65.93793789 11.01922066 66 9 C67 8 67 8 70.51000977 7.88647461 C72.07048422 7.88663374 73.63096393 7.89232858 75.19140625 7.90234375 C76.01124496 7.9037587 76.83108368 7.90517365 77.67576599 7.90663147 C80.30471382 7.91224711 82.93357773 7.92480221 85.5625 7.9375 C87.34049357 7.94251299 89.11848846 7.94707624 90.89648438 7.95117188 C95.26435545 7.96222161 99.63216348 7.97949669 104 8 C104.28617187 7.21238281 104.57234375 6.42476562 104.8671875 5.61328125 C106.35371606 2.18401364 107.55978763 1.42095728 111 0 C115.39718582 -0.72989724 118.13336857 -0.553169 121.9375 1.875 C125.34325286 5.3839575 125.33097275 8.01818439 125.29296875 12.73828125 C124.86344199 16.0542278 123.39075646 17.74987627 121 20 C117.54260443 21.72869779 113.78024432 21.48966895 110 21 C107.12970131 19.20606332 105.50868362 18.01736724 104 15 C93.44 14.67 82.88 14.34 72 14 C72 25.55 72 37.1 72 49 C77.445 49.495 77.445 49.495 83 50 C86.0847168 50.75610352 86.0847168 50.75610352 88.44921875 51.62890625 C89.31611328 51.94150391 90.18300781 52.25410156 91.07617188 52.57617188 C91.93791016 52.90166016 92.79964844 53.22714844 93.6875 53.5625 C94.59177734 53.89185547 95.49605469 54.22121094 96.42773438 54.56054688 C98.62310485 55.36203134 100.81333038 56.17513873 103 57 C102.99476318 56.39937744 102.98952637 55.79875488 102.98413086 55.17993164 C102.96341986 52.47413162 102.95035875 49.76834823 102.9375 47.0625 C102.92912109 46.11697266 102.92074219 45.17144531 102.91210938 44.19726562 C102.90888672 43.29814453 102.90566406 42.39902344 102.90234375 41.47265625 C102.89710693 40.64000244 102.89187012 39.80734863 102.88647461 38.94946289 C103 37 103 37 104 36 C105.99964982 35.91241997 108.0023611 35.89303424 110.00390625 35.90234375 C111.21884766 35.90556641 112.43378906 35.90878906 113.68554688 35.91210938 C114.96494141 35.92048828 116.24433594 35.92886719 117.5625 35.9375 C118.84576172 35.94201172 120.12902344 35.94652344 121.45117188 35.95117188 C124.63416022 35.96300455 127.81705762 35.97948932 131 36 C131.1340625 35.38640625 131.268125 34.7728125 131.40625 34.140625 C132.27795158 30.9979114 133.31836033 29.87714777 136 28 C140.7372887 27.28592339 144.87405175 27.40805815 149 30 C151.58836091 34.06742429 152.70045238 37.19689796 152 42 C148.84210526 47.57894737 148.84210526 47.57894737 146 49 C140.76530549 49.64854622 137.17161977 49.89043102 132.875 46.625 C131 44 131 44 131 42 C123.74 42 116.48 42 109 42 C108.07462696 53.31844272 108.07462696 53.31844272 112.05859375 63.43359375 C114.76136594 65.05692136 114.76136594 65.05692136 117.76171875 66.4296875 C121.50275498 68.24379675 124.40912123 70.44654457 127.5625 73.125 C128.10600098 73.58535645 128.64950195 74.04571289 129.20947266 74.52001953 C135.04147853 79.64638588 139.61164892 85.61232294 144 92 C144.58523437 92.84820312 145.17046875 93.69640625 145.7734375 94.5703125 C147.21712915 97.43010933 147.51161582 98.83860033 147 102 C140.80016682 113.92401778 130.0625868 126.07511134 118.07543945 132.2121582 C114.77871381 133.91530303 112.63731067 135.28230685 110 138 C108.03240243 144.26940022 108.72623717 150.47531933 109 157 C116.26 157 123.52 157 131 157 C131.66 155.35 132.32 153.7 133 152 C135.26266099 150.00353442 136.88451196 149.05645182 139.9296875 148.90234375 C144.70085109 149.27143376 147.5418981 150.5418981 151 154 C152.63865585 157.2773117 152.64613137 160.47161594 152 164 C150.50770307 167.03585597 148.80811322 169.10309086 146 171 C141.39047032 172.18877344 138.08309172 171.6318035 134 169.25 C131.969793 166.96601713 131.58315974 165.89150037 131 163 C130.18732666 163.00523682 129.37465332 163.01047363 128.53735352 163.01586914 C124.87907678 163.03656994 121.22081233 163.04963803 117.5625 163.0625 C116.28310547 163.07087891 115.00371094 163.07925781 113.68554688 163.08789062 C112.47060547 163.09111328 111.25566406 163.09433594 110.00390625 163.09765625 C108.31503296 163.10551147 108.31503296 163.10551147 106.59204102 163.11352539 C104 163 104 163 103 162 C102.84344973 160.51361008 102.74933057 159.02050873 102.68359375 157.52734375 C102.64169922 156.62822266 102.59980469 155.72910156 102.55664062 154.80273438 C102.51732422 153.85720703 102.47800781 152.91167969 102.4375 151.9375 C102.39431641 150.98810547 102.35113281 150.03871094 102.30664062 149.06054688 C102.20020724 146.70718647 102.09818992 144.35371646 102 142 C100.3603125 142.7734375 100.3603125 142.7734375 98.6875 143.5625 C95 145 95 145 92 144 C91.67 143.34 91.34 142.68 91 142 C89.515 141.01 89.515 141.01 88 140 C88.81082031 139.70867187 89.62164062 139.41734375 90.45703125 139.1171875 C110.72205864 131.61511683 130.50159971 119.2465901 140 99 C123.79326127 74.38976712 101.74518588 60.92436443 73 55 C69.62813822 54.36718561 66.42830291 54.06394252 63 54 C62.33081543 53.98630371 61.66163086 53.97260742 60.97216797 53.95849609 C50.76117067 53.7274587 50.76117067 53.7274587 40.6015625 54.56640625 C37.08668256 54.98956425 35.8265566 55.00214426 33 53 C33.33 51.68 33.66 50.36 34 49 C35.65 49 37.3 49 39 49 C39 37.45 39 25.9 39 14 C31.20375 14.0928125 31.20375 14.0928125 23.25 14.1875 C20.79868652 14.19753052 20.79868652 14.19753052 18.29785156 14.20776367 C16.36377441 14.24994019 16.36377441 14.24994019 14.390625 14.29296875 C13.07094727 14.3086792 11.75126953 14.32438965 10.39160156 14.34057617 C6.84157146 14.69178017 6.84157146 14.69178017 4.65136719 17.45825195 C4.10641602 18.29702881 3.56146484 19.13580566 3 20 C0.2960844 22.05124631 -0.97766328 22.00081224 -4.4375 21.875 C-8.29943186 20.92645533 -10.17092464 19.74586726 -13 17 C-14.72869779 13.54260443 -14.48966895 9.78024432 -14 6 C-10.3051003 0.08816049 -6.75705316 -0.71331655 0 0 Z " fill="#15A4DD" transform="translate(57,13)"/>
<path d="M0 0 C2.10131385 2.10131385 1.18514741 6.54146322 1.1875 9.4375 C1.19974609 10.22705078 1.21199219 11.01660156 1.22460938 11.83007812 C1.22987279 13.88807435 1.12206285 15.94562009 1 18 C-1 20 -1 20 -4.25 21.3125 C-9.14249861 23.35104109 -12.68535816 26.24714421 -15.875 30.5 C-18.01940581 37.17148473 -18.34564676 44.93177514 -15.4375 51.4375 C-12.54719478 56.3097288 -8.38515408 60.20494864 -3 62 C4.70809604 62.64322005 11.63261768 62.81898662 18 58 C21.31462263 54.68537737 23.18790089 50.86867221 25.16796875 46.671875 C26 45 26 45 27 44 C29.84335048 43.90013025 32.65697163 43.86122119 35.5 43.875 C36.69689453 43.86919922 36.69689453 43.86919922 37.91796875 43.86328125 C43.87339233 43.87339233 43.87339233 43.87339233 45 45 C44.35732373 56.78239837 39.55508088 64.99864604 31 73 C22.09718694 80.48864781 11.66960294 83.7439752 0.09765625 83.31640625 C-10.80950705 82.2023076 -20.87031152 77.12998775 -28.40234375 69.1171875 C-36.11202368 58.90044784 -39.1087002 47.62212536 -38 35 C-35.87934638 23.51088925 -30.58015066 14.06466346 -21.125 7.0625 C-14.79824869 3.01337916 -7.73613786 -0.99181255 0 0 Z " fill="#1285D1" transform="translate(109,71)"/>
<path d="M0 0 C2.58045434 1.40407074 3.95069219 2.79699411 6 5 C6 5.99 6 6.98 6 8 C6.81267334 7.99476318 7.62534668 7.98952637 8.46264648 7.98413086 C12.12092322 7.96343006 15.77918767 7.95036197 19.4375 7.9375 C20.71689453 7.92912109 21.99628906 7.92074219 23.31445312 7.91210938 C25.13686523 7.90727539 25.13686523 7.90727539 26.99609375 7.90234375 C28.12200928 7.89710693 29.2479248 7.89187012 30.40795898 7.88647461 C33 8 33 8 34 9 C34.08669432 10.4887186 34.10703494 11.981445 34.09765625 13.47265625 C34.09443359 14.37177734 34.09121094 15.27089844 34.08789062 16.19726562 C34.07532227 17.61555664 34.07532227 17.61555664 34.0625 19.0625 C34.05798828 20.01189453 34.05347656 20.96128906 34.04882812 21.93945312 C34.0370011 24.29303065 34.02052025 26.64648477 34 29 C35.03898437 28.57847656 36.07796875 28.15695313 37.1484375 27.72265625 C44.73794282 24.71635268 51.71158028 22.03984817 60 22 C60 22.99 60 23.98 60 25 C60.99 25.66 61.98 26.32 63 27 C61.34677734 27.4021875 61.34677734 27.4021875 59.66015625 27.8125 C34.16295689 34.28316542 12.60063338 46.51220775 -2 69 C-3.9375 68.1875 -3.9375 68.1875 -6 67 C-6.33 66.01 -6.66 65.02 -7 64 C-5.48828125 61.6953125 -5.48828125 61.6953125 -3.3125 59.125 C-2.60738281 58.28195313 -1.90226562 57.43890625 -1.17578125 56.5703125 C-0.45777344 55.72210938 0.26023437 54.87390625 1 54 C1.96679688 52.73929688 1.96679688 52.73929688 2.953125 51.453125 C5.13676748 48.83608782 7.42279331 46.77875185 10.0625 44.625 C11.02027344 43.8309375 11.97804688 43.036875 12.96484375 42.21875 C15.92968784 40.05139936 18.81345352 38.67931125 22.125 37.125 C25.06428562 35.38985984 26.68084911 34.20589348 27.57080078 30.84326172 C28.34297961 25.14691515 28.12030412 19.81469902 28 14 C20.74 14 13.48 14 6 14 C5.34 15.32 4.68 16.64 4 18 C2.29394676 20.22089771 1.46502197 20.90541926 -1.3046875 21.46875 C-8.28610805 21.55363049 -8.28610805 21.55363049 -12.0625 18.625 C-15.09970072 14.5100829 -15.51609098 12.16090977 -15 7 C-11.36111598 0.88993354 -7.02954617 -1.18460871 0 0 Z " fill="#0E78CC" transform="translate(31,41)"/>
<path d="M0 0 C0 2.64 0 5.28 0 8 C-1.175625 8.495 -2.35125 8.99 -3.5625 9.5 C-9.68926955 12.57424784 -15.17490195 18.22921225 -17.55859375 24.765625 C-19.25388126 33.34708034 -19.1749732 42.17953298 -14.69140625 49.84375 C-10.61480494 55.04071056 -5.31743054 59.01135056 1 61 C10.16044641 61.99456275 18.4111771 61.71911291 26 56 C30.04275915 52.2589393 33.4800225 48.40436443 35 43 C37.64 43 40.28 43 43 43 C42.03276022 51.5315509 36.58428922 58.45534786 29.96484375 63.75390625 C20.855968 69.53070817 10.94728193 71.18263124 0.375 69.609375 C-9.06020277 67.25057431 -16.68391834 61.53439584 -22.0625 53.5 C-27.12003654 44.67955949 -28.44740562 35.63840948 -26.53515625 25.546875 C-23.37911224 14.86487989 -16.21061937 6.70248463 -6.75 1.0625 C-4 0 -4 0 0 0 Z " fill="#F6FAFD" transform="translate(104,78)"/>
<path d="M0 0 C10.54750295 0.37008782 19.15729167 5.3915512 26.65625 12.58984375 C32.5925174 19.02584794 36.29517244 26.45993753 37.15234375 35.1875 C37 37 37 37 35 39 C32.29077199 39.19852102 29.70696821 39.27839477 27 39.25 C25.89398438 39.26160156 25.89398438 39.26160156 24.765625 39.2734375 C19.2533196 39.2533196 19.2533196 39.2533196 17 37 C16.443125 35.1746875 16.443125 35.1746875 15.875 33.3125 C13.78322231 27.50200641 9.36033077 23.75405411 3.95703125 20.93359375 C2.32579275 20.23737443 0.6648256 19.61156859 -1 19 C-3.04266429 16.95733571 -2.18507944 12.86308566 -2.1875 10.0625 C-2.19974609 9.32064453 -2.21199219 8.57878906 -2.22460938 7.81445312 C-2.22988478 5.87486371 -2.12188902 3.9357629 -2 2 C-1.34 1.34 -0.68 0.68 0 0 Z " fill="#199CDA" transform="translate(117,71)"/>
<path d="M0 0 C0.33 0.99 0.66 1.98 1 3 C1.99 3.66 2.98 4.32 4 5 C3.02804688 5.45890625 2.05609375 5.9178125 1.0546875 6.390625 C-1.11374211 7.83624474 -1.88071366 8.57231 -2.58886719 11.11132812 C-2.81621226 13.67693274 -2.88151784 16.17327927 -2.875 18.75 C-2.91625 21.8025 -2.9575 24.855 -3 28 C4.26 28 11.52 28 19 28 C19.66 26.35 20.32 24.7 21 23 C23.26266099 21.00353442 24.88451196 20.05645182 27.9296875 19.90234375 C32.70085109 20.27143376 35.5418981 21.5418981 39 25 C40.63865585 28.2773117 40.64613137 31.47161594 40 35 C38.50770307 38.03585597 36.80811322 40.10309086 34 42 C29.39047032 43.18877344 26.08309172 42.6318035 22 40.25 C19.969793 37.96601713 19.58315974 36.89150037 19 34 C18.18732666 34.00523682 17.37465332 34.01047363 16.53735352 34.01586914 C12.87907678 34.03656994 9.22081233 34.04963803 5.5625 34.0625 C4.28310547 34.07087891 3.00371094 34.07925781 1.68554688 34.08789062 C0.47060547 34.09111328 -0.74433594 34.09433594 -1.99609375 34.09765625 C-3.12200928 34.10289307 -4.2479248 34.10812988 -5.40795898 34.11352539 C-8 34 -8 34 -9 33 C-9.15655027 31.51361008 -9.25066943 30.02050873 -9.31640625 28.52734375 C-9.35830078 27.62822266 -9.40019531 26.72910156 -9.44335938 25.80273438 C-9.48267578 24.85720703 -9.52199219 23.91167969 -9.5625 22.9375 C-9.60568359 21.98810547 -9.64886719 21.03871094 -9.69335938 20.06054688 C-9.79979276 17.70718647 -9.90181008 15.35371646 -10 13 C-11.6396875 13.7734375 -11.6396875 13.7734375 -13.3125 14.5625 C-17 16 -17 16 -20 15 C-20.33 14.34 -20.66 13.68 -21 13 C-21.99 12.34 -22.98 11.68 -24 11 C-23.18917969 10.70867187 -22.37835938 10.41734375 -21.54296875 10.1171875 C-13.97404033 7.31518606 -6.97094487 4.06522035 0 0 Z " fill="#168ED4" transform="translate(169,142)"/>
<path d="M0 0 C2.8100346 1.79363911 4.50940468 3.01880935 6 6 C6.55512815 10.63213493 6.6364242 13.98172127 4.125 18 C0.59185943 21.32530877 -2.04661263 21.33074386 -6.73828125 21.29296875 C-10.0542278 20.86344199 -11.74987627 19.39075646 -14 17 C-14.495 16.01 -14.495 16.01 -15 15 C-25.56 14.67 -36.12 14.34 -47 14 C-47 20.6 -47 27.2 -47 34 C-50 34 -50 34 -52 33 C-52.33 33.66 -52.66 34.32 -53 35 C-53.02886537 30.68751391 -53.04675255 26.37505238 -53.0625 22.0625 C-53.07087891 20.83080078 -53.07925781 19.59910156 -53.08789062 18.33007812 C-53.09111328 17.16025391 -53.09433594 15.99042969 -53.09765625 14.78515625 C-53.10289307 13.70113525 -53.10812988 12.61711426 -53.11352539 11.50024414 C-53 9 -53 9 -52 8 C-49.26105915 7.91141354 -46.5474673 7.88476521 -43.80859375 7.90234375 C-42.57883568 7.90446617 -42.57883568 7.90446617 -41.32423401 7.90663147 C-38.69528618 7.91224711 -36.06642227 7.92480221 -33.4375 7.9375 C-31.65950643 7.94251299 -29.88151154 7.94707624 -28.10351562 7.95117188 C-23.73564455 7.96222161 -19.36783652 7.97949669 -15 8 C-14.57074219 6.81857422 -14.57074219 6.81857422 -14.1328125 5.61328125 C-11.57819618 -0.27995432 -5.80609739 -1.09084254 0 0 Z " fill="#1CB6E3" transform="translate(176,13)"/>
<path d="M0 0 C0.33 0 0.66 0 1 0 C1.06058594 1.21558594 1.12117188 2.43117187 1.18359375 3.68359375 C1.26798332 5.26824228 1.3526321 6.85287702 1.4375 8.4375 C1.47681641 9.23994141 1.51613281 10.04238281 1.55664062 10.86914062 C1.4054296 14.75239561 1.4054296 14.75239561 3 18 C3.66 17.34 4.32 16.68 5 16 C5 24.25 5 32.5 5 41 C2.36386719 41.01417969 -0.27226563 41.02835938 -2.98828125 41.04296875 C-5.54008833 41.0735788 -8.09163413 41.11266997 -10.64331055 41.15258789 C-12.41730517 41.17579115 -14.19143799 41.19016909 -15.96557617 41.19555664 C-18.51568965 41.20482978 -21.06362254 41.24577933 -23.61328125 41.29296875 C-24.80405022 41.28706978 -24.80405022 41.28706978 -26.01887512 41.28105164 C-28.5267326 41.29233168 -28.5267326 41.29233168 -32 42 C-33.99738519 44.34619743 -33.99738519 44.34619743 -35 47 C-38.01002441 49.34113009 -41.27741542 49.41216607 -45.03125 49.328125 C-48.14316604 48.80947233 -49.85067869 47.21445226 -52 45 C-53.74221711 41.51556578 -53.58675154 37.80112955 -53 34 C-51.29748281 30.92530477 -49.18773492 28.59386746 -46 27 C-40.72274989 26.40031249 -38.11292798 27.72835275 -34 31 C-33.34 31.99 -32.68 32.98 -32 34 C-29.52723386 34.33785441 -27.28459948 34.4889713 -24.8046875 34.51171875 C-23.51030762 34.54483154 -22.21592773 34.57794434 -20.88232422 34.61206055 C-18.40369873 34.64940308 -18.40369873 34.64940308 -15.875 34.6875 C-10.63625 34.790625 -5.3975 34.89375 0 35 C0 23.45 0 11.9 0 0 Z " fill="#0D5FC3" transform="translate(96,163)"/>
<path d="M0 0 C1.76462683 3.08809695 2 4.23312136 2 8 C1.16015625 9.96484375 1.16015625 9.96484375 0.0625 11.9375 C-4.26758712 19.74407284 -4.12693257 29.62247965 -1.9375 38.125 C1.70000953 48.56817253 8.18825829 55.1083904 18 60 C26.09422654 63.41858432 35.71626111 63.08468483 43.875 60.1875 C47.68186352 58.63941223 51.38507008 56.95401617 55 55 C55.66 55.99 56.32 56.98 57 58 C57.99 58 58.98 58 60 58 C49.37878428 66.9004601 38.70751919 69.85572952 25 69 C14.64532541 67.24698479 4.36116024 61.42970379 -2 53 C-8.74078377 41.57335961 -11.95190246 30.79278339 -9.3125 17.55078125 C-7.39245487 10.66261935 -4.81146434 5.30864899 0 0 Z " fill="#107ACD" transform="translate(81,85)"/>
<path d="M0 0 C5.11762818 2.65358498 8.17705942 5.53117826 10 11 C10.39530873 16.23784065 10.02787498 19.64742972 7 24 C3.35326445 27.12107998 0.13404513 28.82402748 -4.625 29.5625 C-9.89145845 28.68475693 -12.83098002 26.32699566 -16.3125 22.375 C-19.16399618 18.36178316 -19.40680203 15.96298482 -19 11 C-15.84596626 2.34893602 -9.05227913 -1.62227225 0 0 Z " fill="#1289D3" transform="translate(117,98)"/>
<path d="M0 0 C3.13896306 1.23074451 3.87902152 1.80989096 5.75 4.75 C7.10108566 8.26282272 7.54213837 10.28247975 7 14 C3.84210526 19.57894737 3.84210526 19.57894737 1 21 C-4.23469451 21.64854622 -7.82838023 21.89043102 -12.125 18.625 C-14 16 -14 16 -14 14 C-21.26 14 -28.52 14 -36 14 C-36 20.27 -36 26.54 -36 33 C-36.33 33 -36.66 33 -37 33 C-37 30.03 -37 27.06 -37 24 C-38.32 23.34 -39.64 22.68 -41 22 C-41.64453125 18.99609375 -41.64453125 18.99609375 -41.8125 15.4375 C-41.88082031 14.26058594 -41.94914063 13.08367188 -42.01953125 11.87109375 C-42 9 -42 9 -41 8 C-39.00035018 7.91241997 -36.9976389 7.89303424 -34.99609375 7.90234375 C-33.78115234 7.90556641 -32.56621094 7.90878906 -31.31445312 7.91210938 C-30.03505859 7.92048828 -28.75566406 7.92886719 -27.4375 7.9375 C-26.15423828 7.94201172 -24.87097656 7.94652344 -23.54882812 7.95117188 C-20.36583978 7.96300455 -17.18294238 7.97948932 -14 8 C-13.8659375 7.38640625 -13.731875 6.7728125 -13.59375 6.140625 C-11.6888993 -0.72686307 -6.11347275 -0.92563144 0 0 Z " fill="#1FC6E9" transform="translate(202,41)"/>
<path d="M0 0 C2.58045434 1.40407074 3.95069219 2.79699411 6 5 C6 5.99 6 6.98 6 8 C11.61 8 17.22 8 23 8 C23 8.33 23 8.66 23 9 C18.545 9.495 18.545 9.495 14 10 C15.98 10.66 17.96 11.32 20 12 C20 12.33 20 12.66 20 13 C15.38 13 10.76 13 6 13 C5.67 14.32 5.34 15.64 5 17 C3.5625 19.25 3.5625 19.25 1 21 C-2.44592554 21.6344694 -5.55715729 21.66294221 -9 21 C-11.82424288 18.80977082 -13.41508603 17.16982793 -15 14 C-15.67660495 8.13609041 -15.67660495 8.13609041 -13.953125 5.2421875 C-9.87883089 0.28113526 -6.36298366 -1.07228058 0 0 Z " fill="#0E7ECE" transform="translate(31,41)"/>
<path d="M0 0 C0.79792969 0.00386719 1.59585938 0.00773437 2.41796875 0.01171875 C3.21589844 0.00785156 4.01382813 0.00398438 4.8359375 0 C10.79136108 0.01011108 10.79136108 0.01011108 11.91796875 1.13671875 C11.39697728 10.68822908 8.2254443 18.56450351 1.66796875 25.57421875 C-0.42092689 27.43930414 -2.35658545 28.47600462 -5.08203125 29.13671875 C-5.95703125 27.07421875 -5.95703125 27.07421875 -6.08203125 24.13671875 C-4.77383418 22.27174576 -3.27535866 20.69756323 -1.71484375 19.0390625 C1.50765133 15.28462445 3.36561608 10.79377677 4.91796875 6.13671875 C2.27796875 6.13671875 -0.36203125 6.13671875 -3.08203125 6.13671875 C-3.18515625 6.89984375 -3.28828125 7.66296875 -3.39453125 8.44921875 C-4.13242826 11.33372523 -4.61447109 12.49167864 -7.08203125 14.13671875 C-9.26953125 13.82421875 -9.26953125 13.82421875 -11.08203125 13.13671875 C-10.08716615 4.77985192 -8.66639183 0.01471374 0 0 Z " fill="#1191D5" transform="translate(142.08203125,114.86328125)"/>
<path d="M0 0 C8.16417519 0.41867565 14.06795394 5.72468517 19.375 11.5 C23.29511168 16.1463475 26 19.7594606 26 26 C23.36 26 20.72 26 18 26 C17.731875 25.34773438 17.46375 24.69546875 17.1875 24.0234375 C13.72340583 16.29759589 9.68511821 12.14734585 2 8.625 C1.34 8.41875 0.68 8.2125 0 8 C0 5.36 0 2.72 0 0 Z " fill="#F4F9FC" transform="translate(121,78)"/>
<path d="M0 0 C2.8100346 1.79363911 4.50940468 3.01880935 6 6 C6.16796875 8.05859375 6.16796875 8.05859375 6.1875 10.4375 C6.20167969 11.21996094 6.21585938 12.00242187 6.23046875 12.80859375 C6 15 6 15 4 18 C-7 16 -7 16 -9 14 C-9.04092937 11.66702567 -9.04241723 9.33294775 -9 7 C-9.99 6.67 -10.98 6.34 -12 6 C-12.33 5.01 -12.66 4.02 -13 3 C-8.79777334 -0.15166999 -5.10856022 -0.9597901 0 0 Z " fill="#1DD0ED" transform="translate(176,13)"/>
<path d="M0 0 C0.76183594 0.00386719 1.52367187 0.00773437 2.30859375 0.01171875 C4.81760864 0.34654396 6.42618193 0.96300572 8.5625 2.3125 C11.15762969 6.39056094 12.17735633 9.49612544 11.5625 14.3125 C10.0625 17.1875 10.0625 17.1875 8.5625 19.3125 C7.840625 18.631875 7.11875 17.95125 6.375 17.25 C3.75871252 14.96730261 3.75871252 14.96730261 0.9375 15.75 C0.15375 15.935625 -0.63 16.12125 -1.4375 16.3125 C-3.3125 15.25 -3.3125 15.25 -4.4375 13.3125 C-4.125 10.125 -4.125 10.125 -3.4375 7.3125 C-6.48663228 6.30138907 -6.48663228 6.30138907 -9.4375 7.3125 C-7.28773045 2.51686024 -5.51776171 -0.12096274 0 0 Z " fill="#1ACFED" transform="translate(197.4375,40.6875)"/>
<path d="M0 0 C3.68351539 2.58629804 4.81727257 4.06975126 5.6875 8.5 C5 12 5 12 2.4375 15 C-1 17 -1 17 -4.625 17.125 C-8.6803591 15.77321363 -10.02446313 14.78644566 -12 11 C-12 7.07983866 -11.55226285 4.82839428 -9.375 1.5625 C-5.99762021 -0.65946039 -3.96476406 -0.62601538 0 0 Z " fill="#F7FBFD" transform="translate(116,104)"/>
<path d="M0 0 C2.76101146 1.82109266 4.52100548 3.04201097 6 6 C6.35555556 13.46666667 6.35555556 13.46666667 4 17 C2.68 16.67 1.36 16.34 0 16 C0 15.01 0 14.02 0 13 C-0.66 13.66 -1.32 14.32 -2 15 C-5 15.3125 -5 15.3125 -8 15 C-10.32286474 11.51570289 -10.08480112 10.07045385 -10 6 C-10.33 5.01 -10.66 4.02 -11 3 C-10.67 2.01 -10.34 1.02 -10 0 C-6.73963699 -1.63018151 -3.41731433 -0.86414845 0 0 Z " fill="#1698D8" transform="translate(203,163)"/>
<path d="M0 0 C0.99 0.66 1.98 1.32 3 2 C2.49983555 6.46972361 0.99216419 8.5692116 -2.0625 11.8125 C-2.8771875 12.67875 -3.691875 13.545 -4.53125 14.4375 C-5.3459375 15.283125 -6.160625 16.12875 -7 17 C-8.03640625 18.11375 -8.03640625 18.11375 -9.09375 19.25 C-17.66462818 28.22901524 -17.66462818 28.22901524 -23 30 C-25.234375 29.1171875 -25.234375 29.1171875 -27 28 C-26.69101949 24.97064758 -26.11953081 24.10029834 -23.7421875 22.10546875 C-22.79601562 21.47253906 -21.84984375 20.83960938 -20.875 20.1875 C-13.67429465 15.14793778 -8.31675112 9.77555364 -3.26171875 2.6015625 C-2 1 -2 1 0 0 Z " fill="#149EDA" transform="translate(196,117)"/>
<path d="M0 0 C0.144375 0.598125 0.28875 1.19625 0.4375 1.8125 C0.8872439 3.56150404 1.42892341 5.28677023 2 7 C2.35236497 8.99673484 2.68834559 10.99650739 3 13 C7.25731568 13.40749675 7.25731568 13.40749675 10.875 11.5 C11.24625 11.005 11.6175 10.51 12 10 C11.95875 10.78375 11.9175 11.5675 11.875 12.375 C11.71271266 15.16116119 11.71271266 15.16116119 14 17 C12.36730848 18.96026975 11.44978435 19.9065055 8.9140625 20.43359375 C4.88026699 20.44047736 2.55669891 20.32474103 -1 18.25 C-2.95829554 16.04691751 -3.69025617 14.89094238 -4 12 C-5.98 12 -7.96 12 -10 12 C-10 10.33333333 -10 8.66666667 -10 7 C-15.28 7 -20.56 7 -26 7 C-26 6.67 -26 6.34 -26 6 C-18.74 6 -11.48 6 -4 6 C-3.34 4.35 -2.68 2.7 -2 1 C-1.34 0.67 -0.68 0.34 0 0 Z " fill="#1791D5" transform="translate(192,164)"/>
<path d="M0 0 C1 1 1 1 1.11352539 2.94946289 C1.10828857 3.7821167 1.10305176 4.61477051 1.09765625 5.47265625 C1.09443359 6.37177734 1.09121094 7.27089844 1.08789062 8.19726562 C1.07951172 9.14279297 1.07113281 10.08832031 1.0625 11.0625 C1.05798828 12.01189453 1.05347656 12.96128906 1.04882812 13.93945312 C1.0370011 16.29303065 1.02052025 18.64648477 1 21 C-0.65 20.34 -2.3 19.68 -4 19 C-4 20.65 -4 22.3 -4 24 C-4.33 24 -4.66 24 -5 24 C-5 18.06 -5 12.12 -5 6 C-12.26 6 -19.52 6 -27 6 C-27 5.67 -27 5.34 -27 5 C-22.545 4.505 -22.545 4.505 -18 4 C-18.66 3.01 -19.32 2.02 -20 1 C-13.36376475 0.20929963 -6.68723737 -0.4593254 0 0 Z " fill="#1E8FD4" transform="translate(64,49)"/>
<path d="M0 0 C0.309375 0.639375 0.61875 1.27875 0.9375 1.9375 C1.8345163 3.93610821 1.8345163 3.93610821 3 5 C3.66 4.34 4.32 3.68 5 3 C5.33 7.29 5.66 11.58 6 16 C7.13179687 16.02578125 8.26359375 16.0515625 9.4296875 16.078125 C10.91149743 16.13439626 12.39326677 16.19174382 13.875 16.25 C14.62136719 16.26417969 15.36773437 16.27835938 16.13671875 16.29296875 C18.3046875 16.390625 18.3046875 16.390625 22 17 C23.5078125 19.046875 23.5078125 19.046875 24 21 C21.56283785 22.21858107 19.96725943 22.12925575 17.24609375 22.1328125 C16.30958984 22.13410156 15.37308594 22.13539063 14.40820312 22.13671875 C13.42787109 22.13285156 12.44753906 22.12898438 11.4375 22.125 C9.96120117 22.13080078 9.96120117 22.13080078 8.45507812 22.13671875 C7.51986328 22.13542969 6.58464844 22.13414062 5.62109375 22.1328125 C4.7592749 22.13168457 3.89745605 22.13055664 3.00952148 22.12939453 C1 22 1 22 0 21 C-0.08685603 19.43827255 -0.10702219 17.87270656 -0.09765625 16.30859375 C-0.09443359 15.36435547 -0.09121094 14.42011719 -0.08789062 13.44726562 C-0.07951172 12.45404297 -0.07113281 11.46082031 -0.0625 10.4375 C-0.05798828 9.44041016 -0.05347656 8.44332031 -0.04882812 7.41601562 C-0.03700007 4.94395151 -0.02051849 2.47200482 0 0 Z " fill="#0783D0" transform="translate(160,154)"/>
<path d="M0 0 C1.9375 1.0625 1.9375 1.0625 4 3 C4.75 6.6875 4.75 6.6875 5 10 C6.134375 10.12375 7.26875 10.2475 8.4375 10.375 C9.613125 10.58125 10.78875 10.7875 12 11 C12.495 11.99 12.495 11.99 13 13 C13.99 13.66 14.98 14.32 16 15 C11.98141405 17.6790573 8.72358279 17.69610694 4 17 C1.12970131 15.20606332 -0.49131638 14.01736724 -2 11 C-12.56 10.67 -23.12 10.34 -34 10 C-34 9.67 -34 9.34 -34 9 C-24.43 8.67 -14.86 8.34 -5 8 C-5.66 7.01 -6.32 6.02 -7 5 C-5.35 5 -3.7 5 -2 5 C-1.855625 4.360625 -1.71125 3.72125 -1.5625 3.0625 C-1 1 -1 1 0 0 Z " fill="#24C7E9" transform="translate(163,17)"/>
<path d="M0 0 C0 0.99 0 1.98 0 3 C0.99 3.66 1.98 4.32 3 5 C1.81664063 5.31453125 0.63328125 5.6290625 -0.5859375 5.953125 C-8.92214463 8.19979364 -17.10279891 10.44824373 -25 14 C-25 12.68 -25 11.36 -25 10 C-25.33 9.01 -25.66 8.02 -26 7 C-23.41767086 6.01811439 -20.83421317 5.03940411 -18.25 4.0625 C-17.15558594 3.64581055 -17.15558594 3.64581055 -16.0390625 3.22070312 C-15.33007812 2.95322266 -14.62109375 2.68574219 -13.890625 2.41015625 C-12.91657715 2.04096069 -12.91657715 2.04096069 -11.92285156 1.66430664 C-7.82343506 0.24804048 -4.35486082 -0.09897411 0 0 Z " fill="#108DD4" transform="translate(91,63)"/>
<path d="M0 0 C0.99 0.33 1.98 0.66 3 1 C1.68 2.32 0.36 3.64 -1 5 C-0.67 5.66 -0.34 6.32 0 7 C0.66 6.67 1.32 6.34 2 6 C2.33 8.31 2.66 10.62 3 13 C4.98 13.66 6.96 14.32 9 15 C9 15.66 9 16.32 9 17 C9.99 17.66 10.98 18.32 12 19 C9 21 9 21 5.625 20.875 C1.71772807 19.9318654 -0.1425406 18.77341648 -3 16 C-4.72617094 12.54765812 -4.50110436 8.77455234 -4 5 C-2 1.9375 -2 1.9375 0 0 Z " fill="#1491D5" transform="translate(47,14)"/>
<path d="M0 0 C0.93134766 0.00322266 1.86269531 0.00644531 2.82226562 0.00976562 C4.26182617 0.02233398 4.26182617 0.02233398 5.73046875 0.03515625 C6.70951172 0.03966797 7.68855469 0.04417969 8.69726562 0.04882812 C11.10422986 0.06056941 13.51106732 0.07699206 15.91796875 0.09765625 C13.93796875 1.08765625 13.93796875 1.08765625 11.91796875 2.09765625 C13.23796875 3.08765625 14.55796875 4.07765625 15.91796875 5.09765625 C12.52229905 5.18511571 9.12692102 5.23820069 5.73046875 5.28515625 C4.2909082 5.32286133 4.2909082 5.32286133 2.82226562 5.36132812 C-6.13354186 5.45429498 -6.13354186 5.45429498 -10.08203125 2.09765625 C-10.08203125 1.76765625 -10.08203125 1.43765625 -10.08203125 1.09765625 C-6.65629188 0.32237146 -3.5096388 -0.02153153 0 0 Z " fill="#12BDE6" transform="translate(145.08203125,20.90234375)"/>
<path d="M0 0 C1.40668945 0.00966797 1.40668945 0.00966797 2.84179688 0.01953125 C4.30649414 0.04466797 4.30649414 0.04466797 5.80078125 0.0703125 C6.78884766 0.07933594 7.77691406 0.08835938 8.79492188 0.09765625 C11.2346189 0.1212282 13.67382822 0.15413228 16.11328125 0.1953125 C15.45328125 0.8553125 14.79328125 1.5153125 14.11328125 2.1953125 C15.10328125 3.1853125 16.09328125 4.1753125 17.11328125 5.1953125 C13.88428699 5.2828252 10.65560009 5.33587396 7.42578125 5.3828125 C6.05776367 5.42051758 6.05776367 5.42051758 4.66210938 5.45898438 C-0.3623703 5.51379688 -3.79034978 5.48103161 -7.88671875 2.1953125 C-4.63281887 0.02604591 -3.75275918 -0.04548799 0 0 Z " fill="#12BDE6" transform="translate(170.88671875,48.8046875)"/>
<path d="M0 0 C1.485 0.99 1.485 0.99 3 2 C3.66 1.67 4.32 1.34 5 1 C5 7.6 5 14.2 5 21 C2 21 2 21 0 20 C0 13.4 0 6.8 0 0 Z " fill="#0FACE0" transform="translate(124,26)"/>
<path d="M0 0 C1.2065625 0.0309375 1.2065625 0.0309375 2.4375 0.0625 C1.7775 0.7225 1.1175 1.3825 0.4375 2.0625 C1.7575 3.0525 3.0775 4.0425 4.4375 5.0625 C3.7775 5.0625 3.1175 5.0625 2.4375 5.0625 C2.4375 11.6625 2.4375 18.2625 2.4375 25.0625 C2.1075 25.0625 1.7775 25.0625 1.4375 25.0625 C1.4375 22.0925 1.4375 19.1225 1.4375 16.0625 C0.1175 15.4025 -1.2025 14.7425 -2.5625 14.0625 C-3.20703125 11.05859375 -3.20703125 11.05859375 -3.375 7.5 C-3.44332031 6.32308594 -3.51164063 5.14617188 -3.58203125 3.93359375 C-3.5558621 0.08672834 -3.5558621 0.08672834 0 0 Z " fill="#20B8E4" transform="translate(163.5625,48.9375)"/>
<path d="M0 0 C3.29714793 0.32971479 4.6226839 0.6226839 7 3 C7.25 5.5 7.25 5.5 7 8 C5 10 5 10 2 10.3125 C1.01 10.209375 0.02 10.10625 -1 10 C-3 7 -3 7 -2.75 4.4375 C-2 2 -2 2 0 0 Z " fill="#F1F7FC" transform="translate(196,168)"/>
<path d="M0 0 C2.4375 0.8125 2.4375 0.8125 4.4375 2.8125 C3.86931818 8.38068182 3.86931818 8.38068182 2.4375 9.8125 C-0.5 10 -0.5 10 -3.5625 9.8125 C-5.5625 7.8125 -5.5625 7.8125 -5.875 5.375 C-5.5625 2.8125 -5.5625 2.8125 -4.375 0.9375 C-2.5625 -0.1875 -2.5625 -0.1875 0 0 Z " fill="#F0F5FB" transform="translate(27.5625,168.1875)"/>
<path d="M0 0 C3.0625 0.1875 3.0625 0.1875 5.0625 2.1875 C5.43046448 5.05762296 5.43759409 6.59524618 3.875 9.0625 C2.0625 10.1875 2.0625 10.1875 -0.5 10 C-2.9375 9.1875 -2.9375 9.1875 -4.9375 7.1875 C-4.23164336 0.2701049 -4.23164336 0.2701049 0 0 Z " fill="#F0FAFD" transform="translate(197.9375,46.8125)"/>
<path d="M0 0 C1 1 1 1 1.09765625 3.28515625 C1.08605469 4.20167969 1.07445313 5.11820312 1.0625 6.0625 C1.05347656 6.98160156 1.04445313 7.90070313 1.03515625 8.84765625 C1.02355469 9.55792969 1.01195313 10.26820312 1 11 C0.01 11.33 -0.98 11.66 -2 12 C-2.33 10.35 -2.66 8.7 -3 7 C-3.78375 6.9175 -4.5675 6.835 -5.375 6.75 C-8 6 -8 6 -9.3125 3.9375 C-9.539375 3.298125 -9.76625 2.65875 -10 2 C-6.60379269 -0.08997373 -3.94836905 -0.2632246 0 0 Z " fill="#1698D8" transform="translate(109,71)"/>
<path d="M0 0 C3 0.25 3 0.25 5 2.25 C5.25 4.75 5.25 4.75 5 7.25 C3 9.25 3 9.25 0 9.5 C-3 9.25 -3 9.25 -5 7.25 C-5.25 4.75 -5.25 4.75 -5 2.25 C-3 0.25 -3 0.25 0 0 Z " fill="#F4F8FC" transform="translate(27,46.75)"/>
<path d="M0 0 C2.375 0.6875 2.375 0.6875 3.375 1.6875 C3.5625 4.625 3.5625 4.625 3.375 7.6875 C1.375 9.6875 1.375 9.6875 -1.125 9.9375 C-3.625 9.6875 -3.625 9.6875 -5.625 7.6875 C-5.9375 4.6875 -5.9375 4.6875 -5.625 1.6875 C-2.625 -0.3125 -2.625 -0.3125 0 0 Z " fill="#F5F9FC" transform="translate(172.625,196.3125)"/>
<path d="M0 0 C5.56818182 0.56818182 5.56818182 0.56818182 7 2 C7.1875 4.9375 7.1875 4.9375 7 8 C5 10 5 10 2.5 10.25 C0 10 0 10 -2 8 C-2.25 5 -2.25 5 -2 2 C-1.34 1.34 -0.68 0.68 0 0 Z " fill="#F4F7FC" transform="translate(51,196)"/>
<path d="M0 0 C2.5 0.25 2.5 0.25 4.5 2.25 C4.75 5.25 4.75 5.25 4.5 8.25 C3.84 8.91 3.18 9.57 2.5 10.25 C-3.06818182 9.68181818 -3.06818182 9.68181818 -4.5 8.25 C-4.6875 5.3125 -4.6875 5.3125 -4.5 2.25 C-2.5 0.25 -2.5 0.25 0 0 Z " fill="#F4FBFD" transform="translate(171.5,18.75)"/>
<path d="M0 0 C2.5 0.25 2.5 0.25 4.5 2.25 C4.8125 5.25 4.8125 5.25 4.5 8.25 C1.5 10.25 1.5 10.25 -1.125 9.9375 C-3.5 9.25 -3.5 9.25 -4.5 8.25 C-4.6875 5.3125 -4.6875 5.3125 -4.5 2.25 C-2.5 0.25 -2.5 0.25 0 0 Z " fill="#F6FAFD" transform="translate(53.5,18.75)"/>
<path d="M0 0 C0.33 0.99 0.66 1.98 1 3 C-2.12621626 6.39417765 -4.56541027 8.6062718 -9 10 C-9.33 8.35 -9.66 6.7 -10 5 C-4.5 0 -4.5 0 0 0 Z " fill="#0788D2" transform="translate(146,134)"/>
<path d="M0 0 C1.32 0.66 2.64 1.32 4 2 C4 2.99 4 3.98 4 5 C1.5 7.1875 1.5 7.1875 -1 9 C-1.99 8.34 -2.98 7.68 -4 7 C-2.92598892 4.08482708 -2.22189824 2.22189824 0 0 Z " fill="#0385D1" transform="translate(130,126)"/>
<path d="M0 0 C-1.98 0.99 -1.98 0.99 -4 2 C-2.68 2.99 -1.36 3.98 0 5 C-4.5067218 5.17673419 -7.96625544 5.13551182 -12 3 C-12.33 2.34 -12.66 1.68 -13 1 C-8.59085217 -0.10228696 -4.51617599 -0.07654536 0 0 Z " fill="#00C2E8" transform="translate(161,21)"/>
<path d="M0 0 C0.33 0 0.66 0 1 0 C0.67 4.29 0.34 8.58 0 13 C-0.99 12.34 -1.98 11.68 -3 11 C-3.29296875 8.6171875 -3.29296875 8.6171875 -3.1875 5.875 C-3.16042969 4.96492187 -3.13335937 4.05484375 -3.10546875 3.1171875 C-3.07066406 2.41851562 -3.03585938 1.71984375 -3 1 C-2.01 1.495 -2.01 1.495 -1 2 C-0.67 1.34 -0.34 0.68 0 0 Z " fill="#0186D2" transform="translate(164,157)"/>
<path d="M0 0 C0.66 0.33 1.32 0.66 2 1 C1.01 2.485 1.01 2.485 0 4 C0.99 4 1.98 4 3 4 C2.25 5.9375 2.25 5.9375 1 8 C-1.125 8.75 -1.125 8.75 -3 9 C-3.66 7.68 -4.32 6.36 -5 5 C-3.35 3.35 -1.7 1.7 0 0 Z " fill="#0385D1" transform="translate(95,90)"/>
<path d="M0 0 C-0.66 0.66 -1.32 1.32 -2 2 C-1.01 2.99 -0.02 3.98 1 5 C-0.62600941 4.9129995 -2.25089678 4.8048219 -3.875 4.6875 C-4.77992188 4.62949219 -5.68484375 4.57148437 -6.6171875 4.51171875 C-9 4 -9 4 -11 1 C-7.26562152 0.12132271 -3.83225427 -0.08912219 0 0 Z " fill="#00C2E8" transform="translate(187,49)"/>
<path d="M0 0 C0.99 0.66 1.98 1.32 3 2 C2.6875 3.9375 2.6875 3.9375 2 6 C1.01 6.33 0.02 6.66 -1 7 C-1.99 6.34 -2.98 5.68 -4 5 C-4 4.34 -4 3.68 -4 3 C-3.34 3 -2.68 3 -2 3 C-2 2.34 -2 1.68 -2 1 C-1.34 0.67 -0.68 0.34 0 0 Z " fill="#0687D2" transform="translate(120,118)"/>
<path d="M0 0 C0.86625 0.2784375 0.86625 0.2784375 1.75 0.5625 C4.20692525 1.04023546 5.64397534 0.75729364 8 0 C6.35 1.98 4.7 3.96 3 6 C1.68 5.34 0.36 4.68 -1 4 C-0.67 2.68 -0.34 1.36 0 0 Z " fill="#0385D1" transform="translate(82,84)"/>
<path d="M0 0 C0.99 0.33 1.98 0.66 3 1 C3 1.66 3 2.32 3 3 C2.34 3 1.68 3 1 3 C1 3.66 1 4.32 1 5 C-0.32 4.67 -1.64 4.34 -3 4 C-3.33 5.32 -3.66 6.64 -4 8 C-4.25 5.6875 -4.25 5.6875 -4 3 C-2.1875 1.125 -2.1875 1.125 0 0 Z " fill="#0284D1" transform="translate(103,104)"/>
<path d="M0 0 C1.485 0.99 1.485 0.99 3 2 C3.1875 5.625 3.1875 5.625 3 9 C2.01 8.34 1.02 7.68 0 7 C-0.1875 3.375 -0.1875 3.375 0 0 Z " fill="#0086D2" transform="translate(61,61)"/>
<path d="M0 0 C3.375 -0.1875 3.375 -0.1875 7 0 C7.66 0.99 8.32 1.98 9 3 C5.625 3.1875 5.625 3.1875 2 3 C1.34 2.01 0.68 1.02 0 0 Z " fill="#0086D2" transform="translate(44,50)"/>
<path d="M0 0 C0.99 0.33 1.98 0.66 3 1 C-0.465 3.97 -0.465 3.97 -4 7 C-2.92598892 4.08482708 -2.22189824 2.22189824 0 0 Z " fill="#1C98D8" transform="translate(47,14)"/>
</svg>
