<?xml version="1.0" encoding="UTF-8"?>
<svg version="1.1" xmlns="http://www.w3.org/2000/svg" width="225" height="225">
<path d="M0 0 C74.25 0 148.5 0 225 0 C225 74.25 225 148.5 225 225 C150.75 225 76.5 225 0 225 C0 150.75 0 76.5 0 0 Z " fill="#FBFCFC" transform="translate(0,0)"/>
<path d="M0 0 C74.25 0 148.5 0 225 0 C225 74.25 225 148.5 225 225 C150.75 225 76.5 225 0 225 C0 150.75 0 76.5 0 0 Z M23 22 C17.93445396 28.87152333 15.88383916 34.47648242 15.85955811 43.0007782 C15.85384796 44.2048381 15.84813782 45.40889801 15.84225464 46.64944458 C15.84113678 47.9622641 15.84001892 49.27508362 15.83886719 50.62768555 C15.83423535 52.03090037 15.8292102 53.43411393 15.82382202 54.83732605 C15.81072965 58.64336469 15.80425905 62.44938571 15.79981136 66.25544333 C15.79687502 68.63670127 15.79276912 71.01795445 15.78830719 73.39920998 C15.77463948 80.85936672 15.76496974 88.31951252 15.7611053 95.77968091 C15.7566287 104.37296708 15.73909629 112.96609387 15.7101047 121.5593316 C15.68843953 128.21346473 15.67839842 134.86755318 15.67706418 141.52172118 C15.67601945 145.49031418 15.67018284 149.45875719 15.65224457 153.42731285 C15.63568037 157.16448184 15.63364848 160.90138946 15.64238358 164.63858223 C15.64351243 166.65004514 15.62985906 168.6614997 15.6156311 170.6729126 C15.66015967 180.41279178 16.66806186 189.22076171 23 197 C31.69562218 205.49339841 40.53868588 206.5912422 52.37304688 206.50170898 C53.80803455 206.50549848 55.24301855 206.5110037 56.67799377 206.51808167 C60.55206598 206.53197159 64.42569084 206.52091246 68.29973793 206.50437045 C72.36743081 206.49045275 76.43509948 206.49698765 80.50280762 206.50050354 C87.33185986 206.50320038 94.16073581 206.48977553 100.98974609 206.46655273 C108.86795153 206.43994628 116.74586237 206.43819786 124.62409735 206.4499411 C132.2247018 206.46074678 139.82520043 206.45450997 147.42579651 206.44038582 C150.65046207 206.43465017 153.87504956 206.43468953 157.09971619 206.43945122 C160.90182395 206.44424851 164.70361205 206.43400644 168.5056591 206.41249657 C169.89512492 206.40696578 171.28462168 206.40642902 172.67408943 206.41144943 C182.86580111 206.44363676 191.54115987 205.99876379 199.3125 198.8125 C200.11300781 198.09707031 200.91351563 197.38164062 201.73828125 196.64453125 C208.55116385 188.67851826 208.58419554 181.39627086 208.53344727 171.29736328 C208.540514 169.81488184 208.54926218 168.33240762 208.55955505 166.84994507 C208.58197673 162.84149157 208.57912607 158.83343428 208.57023358 154.82494211 C208.56510729 151.47026316 208.57242968 148.11565759 208.57970566 144.76098621 C208.59668236 136.84205651 208.59316212 128.92331961 208.57641602 121.00439453 C208.55950253 112.85403023 208.5753234 104.70420183 208.6076389 96.55389607 C208.63439262 89.53873441 208.64159507 82.52373897 208.63312382 75.50853145 C208.62821069 71.32641955 208.63032186 67.1446298 208.65091133 62.96255875 C208.66935939 59.02735333 208.66319989 55.09291421 208.63871193 51.15774918 C208.63373245 49.72032039 208.63711885 48.28283229 208.64986038 46.84545135 C208.72903068 37.14030729 207.71869044 29.56007253 201.29299259 21.98861885 C192.36826862 13.31690452 181.58298219 12.40924284 169.67529297 12.49829102 C168.26956646 12.49449898 166.86384371 12.4889917 165.45812988 12.48191833 C161.67301187 12.46806404 157.88835352 12.47906085 154.10326147 12.49562955 C150.12500069 12.50957527 146.14676402 12.50300941 142.16848755 12.49949646 C135.49262158 12.49680244 128.81693625 12.51020221 122.14111328 12.53344727 C114.44122779 12.56007378 106.74164368 12.56179417 99.0417279 12.5500589 C91.60770649 12.53925309 84.17379327 12.54548872 76.73978043 12.55961418 C73.58768253 12.56534753 70.4356645 12.56531236 67.28356552 12.56054878 C63.56843055 12.55575095 59.85362266 12.56599568 56.1385498 12.58750343 C54.13772134 12.59565474 52.13684986 12.58925114 50.13601685 12.58230591 C39.60157731 12.66867177 30.64413128 14.29163233 23 22 Z " fill="#F6F7F7" transform="translate(0,0)"/>
<path d="M0 0 C1.40661523 -0.0070632 2.81322285 -0.01580991 4.21981812 -0.02610779 C8.02992085 -0.04856956 11.83960754 -0.04566938 15.64975119 -0.03678632 C18.83551752 -0.03166749 22.02120628 -0.03897641 25.20696461 -0.04625839 C32.7259363 -0.06324792 40.24470501 -0.05970205 47.76367188 -0.04296875 C55.50846603 -0.02605517 63.25269623 -0.04187321 70.99742877 -0.07419163 C77.65753457 -0.10092624 84.31746524 -0.10815293 90.97761929 -0.09967655 C94.95066983 -0.09475769 98.9233813 -0.09690576 102.89638901 -0.11746407 C106.63459013 -0.13588193 110.37198348 -0.12978937 114.11014175 -0.10526466 C116.12673977 -0.09790646 118.14338119 -0.11506579 120.15991211 -0.13308716 C127.19431066 -0.05976294 133.05097023 0.32108246 138.22705078 5.53344727 C140.22705078 9.53344727 140.22705078 9.53344727 140.22705078 21.53344727 C130.32705078 21.53344727 120.42705078 21.53344727 110.22705078 21.53344727 C110.22705078 37.04344727 110.22705078 52.55344727 110.22705078 68.53344727 C91.74705078 68.53344727 73.26705078 68.53344727 54.22705078 68.53344727 C54.22705078 53.02344727 54.22705078 37.51344727 54.22705078 21.53344727 C41.68705078 21.53344727 29.14705078 21.53344727 16.22705078 21.53344727 C16.22705078 37.04344727 16.22705078 52.55344727 16.22705078 68.53344727 C3.02705078 68.53344727 -10.17294922 68.53344727 -23.77294922 68.53344727 C-23.85694601 61.08106531 -23.93706737 53.63040787 -23.97994995 46.17796326 C-24.00103056 42.70722094 -24.02917729 39.23687244 -24.07470703 35.76635742 C-24.12667507 31.77991568 -24.14593055 27.79363202 -24.16357422 23.80688477 C-24.18421936 22.56917328 -24.2048645 21.33146179 -24.22613525 20.0562439 C-24.2289813 9.1218459 -24.2289813 9.1218459 -19.77294922 4.53344727 C-13.97535628 -0.83767111 -7.57036507 -0.03764443 0 0 Z " fill="#4A72A4" transform="translate(53.77294921875,26.466552734375)"/>
<path d="M0 0 C12.54 0 25.08 0 38 0 C38 15.51 38 31.02 38 47 C56.48 47 74.96 47 94 47 C94 31.49 94 15.98 94 0 C103.9 0 113.8 0 124 0 C124 30.36 124 60.72 124 92 C110.47 92 96.94 92 83 92 C79.7 87.71 76.4 83.42 73 79 C59.89892293 67.20903064 45.74837225 61.80047161 28.2265625 61.90234375 C27.3028183 61.9037587 26.3790741 61.90517365 25.42733765 61.90663147 C22.49319138 61.91220391 19.55912299 61.92475131 16.625 61.9375 C14.62890736 61.94251856 12.63281351 61.94708085 10.63671875 61.95117188 C5.75778275 61.96216431 0.87890455 61.9794099 -4 62 C-3.02546875 63.15628906 -3.02546875 63.15628906 -2.03125 64.3359375 C-1.1959375 65.33882813 -0.360625 66.34171875 0.5 67.375 C1.3353125 68.37273437 2.170625 69.37046875 3.03125 70.3984375 C5 73 5 73 5 75 C-9.85 75 -24.7 75 -40 75 C-40 65.76 -40 56.52 -40 47 C-26.8 47 -13.6 47 0 47 C0 31.49 0 15.98 0 0 Z " fill="#678AB8" transform="translate(70,48)"/>
<path d="M0 0 C1.99142534 0.05019448 3.98297153 0.09581598 5.97460938 0.13671875 C10.84023282 0.24659075 15.70003966 0.41892324 20.5625 0.625 C20.63712728 4.91166736 20.69132508 9.19798207 20.72729492 13.48510742 C20.74230313 14.94090368 20.76271633 16.39665532 20.78881836 17.85229492 C20.82555676 19.95502789 20.8423056 22.05715885 20.85546875 24.16015625 C20.87903442 26.05326538 20.87903442 26.05326538 20.90307617 27.98461914 C20.45822209 32.73961499 19.66963653 36.59328111 16.11227894 40.02331543 C9.62164923 44.61627336 3.25949852 44.32517384 -4.46923828 44.25610352 C-5.87939349 44.26124892 -7.28954226 44.26853487 -8.69967651 44.27778625 C-12.50964606 44.2962266 -16.3189116 44.28341047 -20.12885141 44.26369596 C-24.12455402 44.24725317 -28.12021402 44.25612985 -32.11593628 44.26121521 C-38.82235909 44.26572886 -45.52850231 44.24990917 -52.23486328 44.22192383 C-59.98082236 44.18984891 -67.72627806 44.18990005 -75.47227299 44.2071386 C-82.93675792 44.22301638 -90.40105884 44.21626382 -97.86553574 44.19920158 C-101.03688347 44.19234138 -104.20808326 44.19335279 -107.37942886 44.20074654 C-111.11430648 44.20842278 -114.84861282 44.19624046 -118.5833931 44.16889763 C-120.60271182 44.15875778 -122.62209924 44.16818138 -124.64141846 44.17822266 C-135.59512846 44.06287288 -135.59512846 44.06287288 -140.4375 39.625 C-141.035625 39.109375 -141.63375 38.59375 -142.25 38.0625 C-146.81586148 32.53540453 -144.4375 23.91224167 -144.4375 17.625 C-129.5875 17.625 -114.7375 17.625 -99.4375 17.625 C-101.14036787 21.88216967 -102.12458834 23.72755948 -105.0625 26.9375 C-105.69414063 27.63488281 -106.32578125 28.33226562 -106.9765625 29.05078125 C-107.69972656 29.83001953 -107.69972656 29.83001953 -108.4375 30.625 C-102.14288469 30.72755187 -95.84848959 30.79694102 -89.55322266 30.84472656 C-87.41772411 30.86467547 -85.28227898 30.89184458 -83.14697266 30.92675781 C-66.72194374 31.18832736 -52.22050361 30.77947221 -38.4375 20.625 C-37.89480469 20.06941406 -37.35210937 19.51382813 -36.79296875 18.94140625 C-35.4375 17.625 -35.4375 17.625 -33.4375 17.625 C-33.4375 16.965 -33.4375 16.305 -33.4375 15.625 C-32.28345865 14.5059296 -31.11985042 13.39586331 -29.92382812 12.32177734 C-28.29266379 10.63413329 -28.29266379 10.63413329 -27.37304688 8.16650391 C-22.02463559 -3.07944944 -10.67962811 -0.46605211 0 0 Z " fill="#7E9FC8" transform="translate(174.4375,148.375)"/>
<path d="M0 0 C5.51556987 1.33710785 8.9022946 5.47438506 12 10 C13.66070424 14.22583298 14.25331537 17.75870897 14.26742554 22.28634644 C14.28022049 24.1493187 14.28022049 24.1493187 14.29327393 26.04992676 C14.29257501 27.41333021 14.29165201 28.77673355 14.29052734 30.14013672 C14.29651636 31.58615464 14.30332276 33.03216937 14.31088257 34.47817993 C14.3285109 38.39560941 14.33323658 42.31295146 14.33451414 46.23041677 C14.33593798 48.6805178 14.34021197 51.13059676 14.34550858 53.58069229 C14.36399768 62.13567765 14.37218051 70.69060079 14.37060547 79.24560547 C14.36940405 87.20843061 14.39050916 95.1709847 14.4220928 103.13374126 C14.4482786 109.98065265 14.45897182 116.82747563 14.45769465 123.67443669 C14.45718573 127.75923968 14.46282984 131.84380162 14.48405075 135.92855453 C14.50347245 139.77168245 14.50353116 143.61434031 14.48901749 147.4574852 C14.4869332 148.86351206 14.49160762 150.26956866 14.5037384 151.67554474 C14.56711884 159.53373126 14.39555424 165.34915977 10 172 C8.08994971 173.89989304 6.19002821 175.40725221 4 177 C3.566875 176.05125 3.13375 175.1025 2.6875 174.125 C1.20697799 170.79958063 1.20697799 170.79958063 -2 169 C-1.195625 168.2575 -0.39125 167.515 0.4375 166.75 C4.49738364 162.3930517 4.14861408 158.67688066 4.31640625 152.828125 C4.35451416 151.5793457 4.39262207 150.33056641 4.43188477 149.04394531 C4.47498779 147.46194336 4.51809082 145.87994141 4.5625 144.25 C4.706875 139.2175 4.85125 134.185 5 129 C-8.86 129 -22.72 129 -37 129 C-37.66 130.65 -38.32 132.3 -39 134 C-40.27206626 135.81534457 -41.60902944 137.58657145 -43 139.3125 C-43.70125 140.19550781 -44.4025 141.07851562 -45.125 141.98828125 C-45.74375 142.65214844 -46.3625 143.31601563 -47 144 C-47.66 144 -48.32 144 -49 144 C-49 144.66 -49 145.32 -49 146 C-59.97247359 156.45143434 -74.57767717 160.52854863 -89.35546875 160.29296875 C-90.89694328 160.28660149 -90.89694328 160.28660149 -92.46955872 160.28010559 C-95.70915421 160.2634907 -98.94809677 160.22587183 -102.1875 160.1875 C-104.40168364 160.17243091 -106.61587716 160.15874643 -108.83007812 160.14648438 C-114.22026986 160.11364389 -119.61008826 160.06362005 -125 160 C-124.61328125 159.49210938 -124.2265625 158.98421875 -123.828125 158.4609375 C-123.30734375 157.77257812 -122.7865625 157.08421875 -122.25 156.375 C-121.73953125 155.70210937 -121.2290625 155.02921875 -120.703125 154.3359375 C-118.71966857 151.61550873 -116.86752259 148.80128389 -115 146 C-129.85 146 -144.7 146 -160 146 C-160 145.67 -160 145.34 -160 145 C-144.82 145 -129.64 145 -114 145 C-114 145.99 -114 146.98 -114 148 C-113.34 148 -112.68 148 -112 148 C-111.67 147.01 -111.34 146.02 -111 145 C-110.34 145.33 -109.68 145.66 -109 146 C-109 146.66 -109 147.32 -109 148 C-107.68 148.33 -106.36 148.66 -105 149 C-105 149.66 -105 150.32 -105 151 C-101.54110333 150.88836413 -98.08312901 150.7581757 -94.625 150.625 C-93.17673828 150.57859375 -93.17673828 150.57859375 -91.69921875 150.53125 C-76.52609677 149.9202518 -64.65295046 146.72948596 -53.65234375 135.90625 C-50.31504987 132.24948027 -47.93091588 128.54663332 -46 124 C-46.63228516 123.18595703 -46.63228516 123.18595703 -47.27734375 122.35546875 C-47.82519531 121.64003906 -48.37304688 120.92460937 -48.9375 120.1875 C-49.48277344 119.47980469 -50.02804688 118.77210938 -50.58984375 118.04296875 C-52 116 -52 116 -53 113 C-54.30715273 112.28335925 -55.64635459 111.62439278 -57 111 C-59.2878045 109.31730321 -61.53910967 107.59459625 -63.78125 105.8515625 C-72.95800408 100.57270154 -81.87456508 99.39426031 -92.3125 99.625 C-93.43978516 99.62628906 -94.56707031 99.62757812 -95.72851562 99.62890625 C-101.51604325 99.69014993 -106.54266172 100.03126325 -112 102 C-112.33 101.67 -112.66 101.34 -113 101 C-113.495 102.485 -113.495 102.485 -114 104 C-129.18 104 -144.36 104 -160 104 C-160 103.67 -160 103.34 -160 103 C-145.15 103 -130.3 103 -115 103 C-116.98 100.36 -118.96 97.72 -121 95 C-122.34968144 93.01099578 -123.69001104 91.01536763 -125 89 C-119.09589325 88.92518191 -113.19206968 88.87108544 -107.28759766 88.83520508 C-105.28396795 88.82022858 -103.28037039 88.79984019 -101.27685547 88.77368164 C-79.34805538 88.49478668 -62.84757694 92.28281545 -45.96289062 106.90600586 C-44 109 -44 109 -42.82641602 111.51416016 C-41.24182896 114.84667477 -39.9106286 116.6902083 -37 119 C-30.2798326 120.87067779 -22.96707246 120.26021236 -16.0625 120.125 C-14.11913985 120.1230568 -12.17576966 120.12561431 -10.23242188 120.1328125 C-5.48658119 120.14061642 -0.74501311 120.08690152 4 120 C3.93881489 106.52630255 3.86172716 93.05279922 3.76428509 79.57931232 C3.71954051 73.32315163 3.68029322 67.06705668 3.65356445 60.81079102 C3.62757254 54.77416283 3.58719887 48.73778708 3.53681374 42.70131493 C3.52011726 40.39725062 3.50862035 38.09314263 3.50238609 35.78902626 C3.49277548 32.56391504 3.46475166 29.33945372 3.43237305 26.11450195 C3.43380814 25.16000153 3.43524323 24.2055011 3.4367218 23.22207642 C3.35119698 17.20617769 2.51312523 13.69928266 -1.6875 9.1875 C-2.120625 8.795625 -2.55375 8.40375 -3 8 C-2.67 7.01 -2.34 6.02 -2 5 C-0.68 5 0.64 5 2 5 C1.01 2.525 1.01 2.525 0 0 Z " fill="#F8FAFA" transform="translate(190,20)"/>
<path d="M0 0 C1.4018896 -0.00599137 2.80377592 -0.01279831 4.20565796 -0.02035522 C7.99926726 -0.03796238 11.79278624 -0.04270841 15.58643246 -0.0439868 C17.96135067 -0.04541216 20.33624619 -0.04968908 22.71115875 -0.05498123 C31.01025337 -0.07346531 39.30928391 -0.08165404 47.60839844 -0.08007812 C55.32182024 -0.07887775 63.03496178 -0.09996368 70.74831271 -0.13156545 C77.3889238 -0.15779427 84.02944374 -0.16844264 90.67010617 -0.16716731 C94.62811988 -0.16665953 98.58588442 -0.17223958 102.54384613 -0.19352341 C106.2704508 -0.21301725 109.99657147 -0.21295519 113.72319412 -0.19849014 C115.72610088 -0.19543247 117.72900827 -0.21200086 119.73184204 -0.22937012 C130.30496531 -0.15646651 139.65905763 1.70543761 147.45418739 9.27908421 C154.40794084 17.47330031 154.88837089 25.85762469 154.80810547 36.23608398 C154.8148936 37.7204851 154.82380341 39.20487779 154.83465576 40.68925476 C154.85731217 44.69348437 154.84867057 48.69706475 154.83276033 52.70130467 C154.8200323 56.90647229 154.83186029 61.11158722 154.83969116 65.3167572 C154.84876675 72.37525332 154.83685394 79.43348714 154.81298828 86.49194336 C154.78577032 94.63556835 154.79460419 102.77856749 154.82212031 110.92217737 C154.84485764 117.93398084 154.84798927 124.94559662 154.83492696 131.95742506 C154.82715912 136.13666404 154.8260171 140.31560943 154.84260941 144.49482918 C154.85712304 148.42433969 154.84690839 152.35304815 154.81813812 156.28247261 C154.81156427 157.71870089 154.81336125 159.15499746 154.82445145 160.59119797 C154.89489435 170.64562322 153.55168699 177.11480107 147.02050781 184.81396484 C146.32441406 185.42498047 145.62832031 186.03599609 144.91113281 186.66552734 C144.22535156 187.29201172 143.53957031 187.91849609 142.83300781 188.56396484 C134.74179076 193.79249984 126.20551079 193.73814565 116.83569336 193.72631836 C115.40557067 193.73531053 113.97545521 193.7455221 112.54534912 193.7568512 C108.68358977 193.78320644 104.82203019 193.79037846 100.96018958 193.79229856 C98.5413539 193.79443934 96.12256811 193.80085972 93.70374489 193.80879021 C85.247858 193.83649523 76.79211242 193.84880175 68.33618164 193.84643555 C60.48172338 193.84463428 52.62788392 193.87628171 44.77358216 193.92366654 C38.00636089 193.96302309 31.23934084 193.97898184 24.47200614 193.97706932 C20.4406511 193.97630819 16.40984675 193.98464708 12.3786068 194.01660347 C8.58366049 194.0458693 4.78978303 194.04573654 0.99479675 194.02405357 C-1.04251857 194.0194731 -3.07983549 194.04430201 -5.11698914 194.07037354 C-14.57326449 193.97444031 -22.64785333 191.91006253 -29.8685503 185.48429203 C-35.99826509 178.96088577 -37.95435174 171.05563728 -37.97930908 162.28302002 C-37.98501923 161.07751495 -37.99072937 159.87200989 -37.99661255 158.62997437 C-37.99773041 157.3155838 -37.99884827 156.00119324 -38 154.64697266 C-38.00463178 153.24213532 -38.00965693 151.83729924 -38.01504517 150.4324646 C-38.02813683 146.622361 -38.03460784 142.81227501 -38.03905582 139.00215244 C-38.04199189 136.61889219 -38.04609771 134.23563669 -38.05056 131.85237885 C-38.06422667 124.38741875 -38.07389728 116.92246958 -38.07776189 109.45749784 C-38.08224016 100.85571169 -38.09978079 92.25408464 -38.12876248 83.65234685 C-38.15041635 76.99313385 -38.16046815 70.33396548 -38.16180301 63.67471766 C-38.16284842 59.70224427 -38.16869982 55.7299206 -38.18662262 51.75748444 C-38.20316749 48.01785625 -38.20522796 44.27848931 -38.19648361 40.53883743 C-38.19535287 38.52360374 -38.20902069 36.50837846 -38.22323608 34.49319458 C-38.17417388 23.77376936 -36.47769417 15.17021824 -28.83886719 7.29052734 C-19.93379254 0.15922773 -11.02228808 -0.00766093 0 0 Z M-28.83886719 13.29052734 C-33.60685998 20.58510633 -33.40908305 27.42803425 -33.35644531 35.93310547 C-33.36187269 37.40897815 -33.36899879 38.88484541 -33.37768555 40.36070251 C-33.39584897 44.35044445 -33.38888054 48.3397705 -33.3761692 52.32951927 C-33.36600515 56.51514132 -33.37544431 60.70072901 -33.38171387 64.88635254 C-33.38898039 71.91388304 -33.37942878 78.9412451 -33.36035156 85.96875 C-33.33858466 94.08046674 -33.34563674 102.19178126 -33.36765718 110.30348825 C-33.38583963 117.28209567 -33.38835564 124.26058237 -33.37790251 131.23920584 C-33.37168317 135.40107912 -33.37078878 139.56276366 -33.38404846 143.72462463 C-33.39564794 147.6384052 -33.38750725 151.55166983 -33.36447144 155.46539497 C-33.35920608 156.89720874 -33.36066073 158.32906632 -33.36952209 159.76086235 C-33.41967881 168.69203883 -33.12995003 175.31786311 -27.09277344 182.31396484 C-26.25552734 182.98298828 -26.25552734 182.98298828 -25.40136719 183.66552734 C-24.84578125 184.12701172 -24.29019531 184.58849609 -23.71777344 185.06396484 C-19.43124295 187.86224046 -15.71101904 188.54160851 -10.6348114 188.55122375 C-9.38579041 188.55830856 -8.13676941 188.56539337 -6.84989929 188.57269287 C-5.47341883 188.57039923 -4.09693871 188.56788956 -2.72045898 188.56518555 C-1.26473733 188.56953481 0.19098203 188.57471868 1.646698 188.58067322 C5.59518609 188.5940535 9.5435784 188.59464282 13.49208474 188.59210992 C16.79210528 188.59103924 20.09210652 188.59592621 23.39212292 188.60071534 C31.18094497 188.61180782 38.9697188 188.61224982 46.75854492 188.60620117 C54.78322052 188.60016495 62.80772063 188.61246401 70.83236629 188.63377124 C77.73021094 188.6514105 84.62799985 188.65738482 91.52586621 188.6541335 C95.64193473 188.65232372 99.75787814 188.65492599 103.87392616 188.66884804 C107.74735068 188.68145916 111.62050267 188.67945145 115.49392319 188.66643715 C116.91123104 188.66407869 118.32855826 188.66677975 119.74584389 188.67506027 C128.12752309 188.72047819 135.31983472 188.7522697 142.36816406 183.71240234 C142.89796875 183.16068359 143.42777344 182.60896484 143.97363281 182.04052734 C144.78767578 181.22841797 144.78767578 181.22841797 145.61816406 180.39990234 C150.98694302 173.0603058 150.59080446 165.8102504 150.54931641 157.02099609 C150.55338587 155.57320765 150.55872985 154.12542232 150.56524658 152.67764282 C150.57888151 148.7602789 150.57363745 144.84315296 150.56410933 140.92578506 C150.55649284 136.81843697 150.56356385 132.7111087 150.56826782 128.60375977 C150.57371959 121.70731971 150.56654898 114.81097617 150.55224609 107.91455078 C150.53592066 99.95115137 150.54120958 91.98798241 150.55772531 84.02458858 C150.57135669 77.17681632 150.57325177 70.32911328 150.5654093 63.48133183 C150.56074186 59.39607531 150.56008231 55.31092698 150.57001877 51.22567749 C150.57871027 47.38422275 150.57262696 43.54306399 150.555336 39.70164108 C150.55138277 38.29520534 150.55248522 36.88874451 150.55912399 35.48231888 C150.59716125 26.60275399 150.41718909 19.63651944 144.47363281 12.60302734 C144.03664062 12.06291016 143.59964844 11.52279297 143.14941406 10.96630859 C135.58882062 4.5940206 128.17739425 4.7134955 118.70214844 4.77294922 C117.24597984 4.76752167 115.78981674 4.76039546 114.33366394 4.75170898 C110.39763741 4.73354764 106.46203251 4.74051311 102.52599907 4.75322533 C98.39643131 4.76339048 94.26689836 4.75394992 90.1373291 4.74768066 C83.20395462 4.74041445 76.27075087 4.74996491 69.33740234 4.76904297 C61.33474688 4.79080982 53.33249912 4.78375772 45.32985353 4.76173735 C38.44466313 4.74355399 31.55959508 4.74103933 24.67438841 4.75149202 C20.56840557 4.75771087 16.46261404 4.75860713 12.35664368 4.74534607 C8.4953902 4.73374525 4.63465961 4.74188965 0.7734623 4.7649231 C-0.63900067 4.77018774 -2.05150805 4.76873501 -3.46395302 4.75987244 C-13.64648026 4.70189759 -21.33354094 5.78520109 -28.83886719 13.29052734 Z " fill="#4570A8" transform="translate(53.8388671875,12.70947265625)"/>
<path d="M0 0 C18.48 0 36.96 0 56 0 C56 15.51 56 31.02 56 47 C68.54 47 81.08 47 94 47 C94 31.49 94 15.98 94 0 C106.87 0 119.74 0 133 0 C133 2.97 133 5.94 133 9 C123.1 9 113.2 9 103 9 C103 24.51 103 40.02 103 56 C84.52 56 66.04 56 47 56 C47 40.49 47 24.98 47 9 C34.46 9 21.92 9 9 9 C9 24.51 9 40.02 9 56 C-4.2 56 -17.4 56 -31 56 C-31 53.03 -31 50.06 -31 47 C-20.77 47 -10.54 47 0 47 C0 31.49 0 15.98 0 0 Z " fill="#CD0103" transform="translate(61,39)"/>
<path d="M0 0 C4.08308236 -0.11800816 8.16571576 -0.18784785 12.25 -0.25 C13.38953125 -0.28351563 14.5290625 -0.31703125 15.703125 -0.3515625 C29.88036585 -0.51266751 40.34290844 4.03900767 50.75 13.5 C51.4925 14.325 52.235 15.15 53 16 C53.5259375 16.58007812 54.051875 17.16015625 54.59375 17.7578125 C58.85327456 22.55982368 58.85327456 22.55982368 60 26 C53.76739225 37.72714353 43.93350494 46.3373103 31.37109375 50.421875 C24.43549746 52.11292648 17.65199541 52.1224632 10.5625 52.0625 C9.54478516 52.05798828 8.52707031 52.05347656 7.47851562 52.04882812 C4.98561491 52.03712437 2.49283926 52.02072848 0 52 C0.19698486 51.42499756 0.39396973 50.84999512 0.59692383 50.25756836 C6.89503102 31.66012725 7.03718579 18.33216467 0 0 Z " fill="#3465A4" transform="translate(85,119)"/>
<path d="M0 0 C1.28825684 0.01047363 2.57651367 0.02094727 3.90380859 0.03173828 C4.93167984 0.03598312 4.93167984 0.03598312 5.98031616 0.04031372 C8.17113636 0.05151797 10.36154925 0.07662219 12.55224609 0.10205078 C14.03661519 0.1120803 15.5209907 0.1212062 17.00537109 0.12939453 C20.6461287 0.15145784 24.28664766 0.18598903 27.92724609 0.22705078 C28.42224609 4.18705078 28.42224609 4.18705078 28.92724609 8.22705078 C29.58724609 7.89705078 30.24724609 7.56705078 30.92724609 7.22705078 C30.92724609 22.73705078 30.92724609 38.24705078 30.92724609 54.22705078 C18.38724609 54.22705078 5.84724609 54.22705078 -7.07275391 54.22705078 C-7.07275391 38.71705078 -7.07275391 23.20705078 -7.07275391 7.22705078 C-6.41275391 7.22705078 -5.75275391 7.22705078 -5.07275391 7.22705078 C-4.74275391 6.56705078 -4.41275391 5.90705078 -4.07275391 5.22705078 C-6.71275391 4.89705078 -9.35275391 4.56705078 -12.07275391 4.22705078 C-12.07275391 3.89705078 -12.07275391 3.56705078 -12.07275391 3.22705078 C-10.95900391 3.10330078 -9.84525391 2.97955078 -8.69775391 2.85205078 C-4.70475538 2.16360276 -3.90631003 0.2886436 0 0 Z " fill="#597BAC" transform="translate(124.07275390625,31.77294921875)"/>
<path d="M0 0 C1.4018896 -0.00599137 2.80377592 -0.01279831 4.20565796 -0.02035522 C7.99926726 -0.03796238 11.79278624 -0.04270841 15.58643246 -0.0439868 C17.96135067 -0.04541216 20.33624619 -0.04968908 22.71115875 -0.05498123 C31.01025337 -0.07346531 39.30928391 -0.08165404 47.60839844 -0.08007812 C55.32182024 -0.07887775 63.03496178 -0.09996368 70.74831271 -0.13156545 C77.3889238 -0.15779427 84.02944374 -0.16844264 90.67010617 -0.16716731 C94.62811988 -0.16665953 98.58588442 -0.17223958 102.54384613 -0.19352341 C106.2704508 -0.21301725 109.99657147 -0.21295519 113.72319412 -0.19849014 C115.72610088 -0.19543247 117.72900827 -0.21200086 119.73184204 -0.22937012 C127.63148636 -0.17490063 133.94571987 1.03512728 141.16113281 4.29052734 C140.17113281 4.95052734 139.18113281 5.61052734 138.16113281 6.29052734 C138.16113281 5.63052734 138.16113281 4.97052734 138.16113281 4.29052734 C137.46409146 4.616122 136.76705011 4.94171665 136.0488863 5.27717781 C132.81842424 6.41078815 130.37521293 6.5263198 126.95707703 6.50411987 C125.70805603 6.50108856 124.45903503 6.49805725 123.17216492 6.49493408 C121.7956833 6.4814777 120.41920323 6.46786151 119.04272461 6.45410156 C117.58700983 6.44698555 116.13129016 6.4408146 114.67556763 6.43551636 C111.54459022 6.42243113 108.41372771 6.40332295 105.28281212 6.37972641 C100.32771176 6.34308294 95.37263901 6.32392693 90.41743469 6.30789185 C76.32805192 6.2596345 62.23883859 6.1879254 48.1496582 6.09863281 C40.36526066 6.04945244 32.58092971 6.01477901 24.79639941 5.99551404 C19.87514156 5.98246345 14.9544341 5.95142085 10.03336561 5.90687919 C6.96500813 5.8833339 3.89678246 5.87667947 0.82834244 5.87468338 C-0.58900349 5.87040677 -2.00634879 5.85928663 -3.42357826 5.84062195 C-13.00772061 5.7193407 -19.1545705 6.33489903 -26.65136719 12.66552734 C-30.60135319 17.40551054 -32.21332601 21.4165871 -32.21740723 27.57928467 C-32.22560989 28.82152298 -32.23381256 30.06376129 -32.24226379 31.34364319 C-32.2363064 32.70712393 -32.23008736 34.07060355 -32.22363281 35.43408203 C-32.22774086 36.8799838 -32.23320311 38.32588226 -32.23991394 39.77177429 C-32.25161418 42.87709526 -32.25413235 45.98223862 -32.2495575 49.08757782 C-32.24274069 53.99502111 -32.25862587 58.90223097 -32.2779541 63.80963135 C-32.31899407 75.10650573 -32.33036934 86.40337341 -32.34148407 97.70030975 C-32.35198342 108.06644309 -32.36868946 118.43246413 -32.40957975 128.79852796 C-32.42797567 133.68031044 -32.43181483 138.56182556 -32.42464447 143.44363451 C-32.42312736 146.47350022 -32.43387543 149.50323088 -32.44802284 152.53306007 C-32.45203979 153.941595 -32.45087626 155.35015528 -32.44425011 156.75868034 C-32.43592175 158.67567783 -32.44755313 160.59273158 -32.46032715 162.50970459 C-32.46103966 163.58409664 -32.46175217 164.65848869 -32.46248627 165.76543808 C-32.58669197 166.59871754 -32.71089767 167.43199699 -32.83886719 168.29052734 C-34.32386719 169.28052734 -34.32386719 169.28052734 -35.83886719 170.29052734 C-38.50286327 167.62653126 -38.09227423 166.36636344 -38.0995636 162.64378357 C-38.10664841 161.4424025 -38.11373322 160.24102142 -38.12103271 159.00323486 C-38.11873861 157.66467248 -38.11622887 156.32611045 -38.11352539 154.98754883 C-38.11787095 153.58315255 -38.12305358 152.17875864 -38.12901306 150.77436829 C-38.1424388 146.95166372 -38.14297723 143.12905782 -38.14044976 139.30633426 C-38.13938134 136.11342733 -38.14426068 132.92054047 -38.14905518 129.72763783 C-38.16016511 122.1886086 -38.16058103 114.64962917 -38.15454102 107.1105957 C-38.14851427 99.34445709 -38.16077565 91.57850025 -38.18211108 83.81239265 C-38.19976367 77.14049294 -38.20572224 70.46865086 -38.20247334 63.79672867 C-38.20066439 59.81416234 -38.20325675 55.83172534 -38.21718788 51.84918022 C-38.22981933 48.09726431 -38.22777227 44.34562947 -38.21477699 40.59371758 C-38.21130531 38.57131077 -38.22255316 36.54889519 -38.23434448 34.52651978 C-38.17270639 23.79596056 -36.48674732 15.17955685 -28.83886719 7.29052734 C-19.93379254 0.15922773 -11.02228808 -0.00766093 0 0 Z " fill="#396BA7" transform="translate(53.8388671875,12.70947265625)"/>
<path d="M0 0 C16.5 0 33 0 50 0 C51.88417158 4.71042895 52.27107785 7.13555302 52.25 12.0625 C52.25773437 13.87427734 52.25773437 13.87427734 52.265625 15.72265625 C52 19 52 19 50 23 C33.5 23 17 23 0 23 C0 15.41 0 7.82 0 0 Z " fill="#7598C2" transform="translate(30,133)"/>
<path d="M0 0 C6.17202471 0.10828114 9.02904357 1.25262652 13.359375 5.625 C19.16806839 14.0337752 19.58392476 21.80248163 19.53344727 31.83203125 C19.54051597 33.31628269 19.54926496 34.80052692 19.55955505 36.28475952 C19.58195065 40.29308686 19.57913284 44.30101752 19.57023358 48.30938339 C19.56510397 51.66420674 19.57243207 55.01895683 19.57970566 58.37377262 C19.5966729 66.29123978 19.59317033 74.20851405 19.57641602 82.12597656 C19.55948998 90.27694945 19.57534281 98.42738697 19.6076389 106.57830143 C19.63437854 113.59431688 19.64159926 120.61016612 19.63312382 127.62622738 C19.62820827 131.8088514 19.63033567 135.99115332 19.65091133 140.17373657 C19.66933814 144.10731099 19.66322555 148.04011809 19.63871193 151.97365189 C19.63372643 153.41150154 19.63713478 154.84941039 19.64986038 156.28721237 C19.73160944 166.32252127 18.34979531 172.66083948 12.0078125 180.4453125 C7.01623887 184.89837611 7.01623887 184.89837611 3.9296875 185.20703125 C2 184.9375 2 184.9375 -1 184 C-0.42378906 183.57203125 0.15242187 183.1440625 0.74609375 182.703125 C2.88533102 181.08664762 4.99385629 179.45593354 7.0625 177.75 C8.06990234 176.93789063 8.06990234 176.93789063 9.09765625 176.109375 C15.2121131 169.32948445 14.42889062 161.35426357 14.38818359 152.73046875 C14.39225306 151.28268031 14.39759704 149.83489497 14.40411377 148.38711548 C14.4177487 144.46975156 14.41250464 140.55262561 14.40297651 136.63525772 C14.39536003 132.52790962 14.40243104 128.42058135 14.40713501 124.31323242 C14.41258678 117.41679237 14.40541617 110.52044882 14.39111328 103.62402344 C14.37478785 95.66062403 14.38007677 87.69745507 14.3965925 79.73406124 C14.41022388 72.88628898 14.41211896 66.03858593 14.40427649 59.19080448 C14.39960904 55.10554797 14.39894949 51.02039963 14.40888596 46.93515015 C14.41757746 43.0936954 14.41149415 39.25253664 14.39420319 35.41111374 C14.39024996 34.00467799 14.39135241 32.59821717 14.39799118 31.19179153 C14.4434163 20.58757744 13.68842138 13.86315823 6 6 C3.72293763 4.47091238 1.45184138 3.24995835 -1 2 C-0.67 1.34 -0.34 0.68 0 0 Z " fill="#2B60A2" transform="translate(189,17)"/>
<path d="M0 0 C1.11616699 -0.00274933 2.23233398 -0.00549866 3.38232422 -0.0083313 C4.6022406 -0.00114075 5.82215698 0.0060498 7.07904053 0.01345825 C8.36709595 0.0131662 9.65515137 0.01287415 10.98223877 0.01257324 C14.51087086 0.0119995 18.03936693 0.0237573 21.56796741 0.03772116 C25.25685244 0.05022487 28.9457406 0.05139873 32.63464355 0.05377197 C39.61856916 0.0599878 46.60243214 0.0764 53.58633018 0.09647095 C61.53789524 0.11882676 69.48946329 0.12982258 77.44105196 0.13986182 C93.79665512 0.16076614 110.1521953 0.19594411 126.50775146 0.24050903 C126.83775146 0.90050903 127.16775146 1.56050903 127.50775146 2.24050903 C125.85775146 2.57050903 124.20775146 2.90050903 122.50775146 3.24050903 C125.80775146 3.57050903 129.10775146 3.90050903 132.50775146 4.24050903 C131.84775146 5.23050903 131.18775146 6.22050903 130.50775146 7.24050903 C133.80775146 7.57050903 137.10775146 7.90050903 140.50775146 8.24050903 C140.50775146 8.90050903 140.50775146 9.56050903 140.50775146 10.24050903 C127.30775146 10.24050903 114.10775146 10.24050903 100.50775146 10.24050903 C100.50775146 13.21050903 100.50775146 16.18050903 100.50775146 19.24050903 C100.17775146 19.24050903 99.84775146 19.24050903 99.50775146 19.24050903 C99.17775146 13.96050903 98.84775146 8.68050903 98.50775146 3.24050903 C82.66775146 3.73550903 82.66775146 3.73550903 66.50775146 4.24050903 C66.50775146 3.58050903 66.50775146 2.92050903 66.50775146 2.24050903 C41.42775146 2.24050903 16.34775146 2.24050903 -9.49224854 2.24050903 C-5.56635419 0.27756186 -4.19380996 -0.00797302 0 0 Z M62.07562256 3.16433716 C64.50775146 3.24050903 64.50775146 3.24050903 66.50775146 4.24050903 C66.17775146 4.90050903 65.84775146 5.56050903 65.50775146 6.24050903 C47.35775146 5.91050903 29.20775146 5.58050903 10.50775146 5.24050903 C10.50775146 4.91050903 10.50775146 4.58050903 10.50775146 4.24050903 C17.2338071 4.09720784 23.95988314 3.95489528 30.68597412 3.81326294 C32.97308829 3.76498698 35.26019773 3.71648651 37.54730225 3.66775513 C40.8387939 3.59766252 44.13030184 3.52838301 47.42181396 3.45925903 C48.95027451 3.42644836 48.95027451 3.42644836 50.50961304 3.39297485 C54.3648883 3.31261872 58.22038532 3.24664413 62.07562256 3.16433716 Z " fill="#476CA6" transform="translate(53.49224853515625,28.759490966796875)"/>
<path d="M0 0 C0.33 0 0.66 0 1 0 C1.17015625 0.65226563 1.3403125 1.30453125 1.515625 1.9765625 C3.883229 10.51504928 6.93879195 16.37163133 14.73810577 21.04046726 C21.79595897 24.65827944 28.59269869 24.56057144 36.37304688 24.50170898 C37.80803455 24.50549848 39.24301855 24.5110037 40.67799377 24.51808167 C44.55206598 24.53197159 48.42569084 24.52091246 52.29973793 24.50437045 C56.36743081 24.49045275 60.43509948 24.49698765 64.50280762 24.50050354 C71.33185986 24.50320038 78.16073581 24.48977553 84.98974609 24.46655273 C92.86795153 24.43994628 100.74586237 24.43819786 108.62409735 24.4499411 C116.2247018 24.46074678 123.82520043 24.45450997 131.42579651 24.44038582 C134.65046207 24.43465017 137.87504956 24.43468953 141.09971619 24.43945122 C144.90182395 24.44424851 148.70361205 24.43400644 152.5056591 24.41249657 C153.89512492 24.40696578 155.28462168 24.40642902 156.67408943 24.41144943 C168.43797821 24.44860198 176.42032384 23.28170559 185.11328125 15.07421875 C187.46019299 12.49407354 188.7811227 10.25033947 190 7 C192 8 192 8 192.6875 9.75 C193.16075321 13.15742312 192.53004909 15.93990183 191 19 C189.35 19 187.7 19 186 19 C185.38125 20.7015625 185.38125 20.7015625 184.75 22.4375 C183 26 183 26 181.32642746 26.71514034 C178.21019017 27.09670835 175.16775586 27.12255701 172.02716064 27.12025452 C171.32545549 27.12110894 170.62375034 27.12196337 169.90078139 27.12284368 C167.55003921 27.1244905 165.19936842 27.11899017 162.84863281 27.11352539 C161.16333518 27.11324332 159.47803743 27.11340164 157.79273987 27.1139679 C153.21666565 27.1142551 148.64061758 27.1083708 144.06454945 27.10139394 C139.2825973 27.09514759 134.50064456 27.09455558 129.71868896 27.09336853 C120.66295355 27.090259 111.60723019 27.08205069 102.55150008 27.07201904 C92.24205251 27.06084618 81.93260437 27.05534449 71.62315226 27.05032361 C50.41542811 27.03986778 29.20771481 27.02227564 8 27 C8 24.69 8 22.38 8 20 C5.36 19.67 2.72 19.34 0 19 C0 12.73 0 6.46 0 0 Z " fill="#C0C0C3" transform="translate(16,181)"/>
<path d="M0 0 C18.63703067 -0.11690492 37.27398673 -0.20502317 55.91130829 -0.25906086 C64.56534599 -0.28482067 73.21915559 -0.31992845 81.87304688 -0.37719727 C89.41754833 -0.42710059 96.96188457 -0.45930718 104.5065465 -0.47044247 C108.499888 -0.47694959 112.49275692 -0.49219604 116.48594666 -0.52865028 C120.2485831 -0.5627198 124.01055464 -0.57303124 127.77333069 -0.56553841 C129.80437728 -0.56755865 131.8353523 -0.5943963 133.86621094 -0.62210083 C141.02078246 -0.58187979 146.65349794 -0.15025787 152 5 C153.5 7.8125 153.5 7.8125 154 10 C150.33701257 11.22099581 147.06979302 11.01998953 143.26953125 10.87890625 C142.51911057 10.85529526 141.76868988 10.83168427 140.99552917 10.80735779 C138.60098781 10.73084327 136.20677987 10.64676674 133.8125 10.5625 C132.1881673 10.50926706 130.56381838 10.45652674 128.93945312 10.40429688 C124.95942466 10.27524473 120.97967856 10.13941046 117 10 C117.495 9.54625 117.99 9.0925 118.5 8.625 C120.22609337 7.12364481 120.22609337 7.12364481 120 5 C121.10859375 4.93941406 122.2171875 4.87882812 123.359375 4.81640625 C124.8229282 4.73197049 126.28646925 4.64732401 127.75 4.5625 C128.84441406 4.50352539 128.84441406 4.50352539 129.9609375 4.44335938 C133.4272973 4.23852902 136.65333026 3.9147998 140 3 C138.95555206 3.00138269 138.95555206 3.00138269 137.89000416 3.00279331 C120.9474938 3.0248777 104.00498801 3.0414258 87.06246662 3.05181217 C78.86919449 3.05696844 70.67593198 3.06399843 62.48266602 3.07543945 C55.34141874 3.08540669 48.20017842 3.0918583 41.05892438 3.09408849 C37.27770609 3.09539213 33.4965077 3.09845607 29.71529579 3.10573006 C26.15556803 3.11252242 22.59586835 3.1146104 19.03613472 3.11310768 C17.10836555 3.11351352 15.18059942 3.11889197 13.25283813 3.12442017 C12.10163986 3.1230455 10.95044159 3.12167084 9.76435852 3.12025452 C8.26690582 3.12163721 8.26690582 3.12163721 6.73920155 3.12304783 C4.05952261 3.00267382 1.61027814 2.60078697 -1 2 C-0.67 1.34 -0.34 0.68 0 0 Z M3 3 C4.98 3.99 4.98 3.99 7 5 C5.68 5 4.36 5 3 5 C3 4.34 3 3.68 3 3 Z " fill="#5A7AA3" transform="translate(40,27)"/>
<path d="M0 0 C12.54 0 25.08 0 38 0 C38 7.92 38 15.84 38 24 C37.34 23.67 36.68 23.34 36 23 C35.01 15.575 35.01 15.575 34 8 C23.77 8 13.54 8 3 8 C2.33531575 13.317474 1.8384912 18.25173044 1.68359375 23.5625 C1.66281265 24.23925781 1.64203156 24.91601562 1.62062073 25.61328125 C1.55605087 27.74210002 1.49667844 29.87102525 1.4375 32 C1.39422635 33.45704157 1.3506095 34.91407299 1.30664062 36.37109375 C1.20046698 39.91395412 1.09894889 43.45692963 1 47 C0.67 47 0.34 47 0 47 C0 31.49 0 15.98 0 0 Z " fill="#567AAD" transform="translate(70,48)"/>
<path d="M0 0 C1.19849075 -0.00852997 2.39698151 -0.01705994 3.63179016 -0.02584839 C4.96717848 -0.02514927 6.30256669 -0.02422616 7.63795471 -0.02310181 C9.03910685 -0.029084 10.44025568 -0.03588882 11.84140015 -0.04345703 C15.65596575 -0.06116813 19.47044169 -0.06581489 23.28504443 -0.0670886 C25.67082386 -0.06850929 28.05658044 -0.07277759 30.4423542 -0.07808304 C38.77384514 -0.09660886 47.10527199 -0.10475155 55.43678284 -0.10317993 C63.18702259 -0.1019818 70.93698237 -0.12301267 78.68715137 -0.15466726 C85.34889288 -0.18090039 92.01054346 -0.1915441 98.67233616 -0.19026911 C102.64719118 -0.18976101 106.62179817 -0.19535811 110.59660149 -0.21662521 C114.34365842 -0.23612339 118.09023405 -0.23605404 121.83730888 -0.22159195 C123.85219047 -0.21853381 125.86707267 -0.23510409 127.88188171 -0.25247192 C135.80176289 -0.19818532 142.13378136 0.99932662 149.36671448 4.26742554 C148.37671448 4.92742554 147.38671448 5.58742554 146.36671448 6.26742554 C146.36671448 5.60742554 146.36671448 4.94742554 146.36671448 4.26742554 C143.89171448 5.25742554 143.89171448 5.25742554 141.36671448 6.26742554 C141.36671448 4.94742554 141.36671448 3.62742554 141.36671448 2.26742554 C92.19671448 2.26742554 43.02671448 2.26742554 -7.63328552 2.26742554 C-4.97244344 -0.39341654 -3.71802228 0.01191619 0 0 Z " fill="#5B7DB2" transform="translate(45.63328552246094,12.732574462890625)"/>
<path d="M0 0 C9.9 0 19.8 0 30 0 C30 21.12 30 42.24 30 64 C29.67 64 29.34 64 29 64 C28.85704418 56.66765367 28.71468936 49.33529584 28.57275391 42.00292969 C28.52439008 39.50813533 28.47588828 37.01334364 28.42724609 34.51855469 C28.35738498 30.93425172 28.2880188 27.34993946 28.21875 23.765625 C28.19687622 22.64883362 28.17500244 21.53204224 28.15246582 20.38140869 C28.13244507 19.34063171 28.11242432 18.29985474 28.09179688 17.22753906 C28.07403198 16.31264709 28.05626709 15.39775513 28.03796387 14.45513916 C28.00469529 12.3036461 28 10.15175027 28 8 C20.08 8 12.16 8 4 8 C4 6.68 4 5.36 4 4 C3.34 4 2.68 4 2 4 C2 4.99 2 5.98 2 7 C1.34 7 0.68 7 0 7 C0 4.69 0 2.38 0 0 Z " fill="#5170A0" transform="translate(164,48)"/>
<path d="M0 0 C1.65 0.66 3.3 1.32 5 2 C5 2.66 5 3.32 5 4 C3.68662604 5.0260734 2.35335895 6.02727325 1 7 C1 7.33 1 7.66 1 8 C-0.65 8.33 -2.3 8.66 -4 9 C-3.505 9.99 -3.505 9.99 -3 11 C-6.153368 11.70074844 -8.72724974 12 -12 12 C-12.33 12.66 -12.66 13.32 -13 14 C-13.99 14 -14.98 14 -16 14 C-16 14.99 -16 15.98 -16 17 C-15.34 17.33 -14.68 17.66 -14 18 C-14 18.66 -14 19.32 -14 20 C-15.77007714 20.08114106 -17.54122098 20.13925505 -19.3125 20.1875 C-20.29863281 20.22230469 -21.28476563 20.25710937 -22.30078125 20.29296875 C-25 20 -25 20 -26.85546875 18.48828125 C-27.23316406 17.99714844 -27.61085937 17.50601563 -28 17 C-28.33 17.66 -28.66 18.32 -29 19 C-28.34 19.33 -27.68 19.66 -27 20 C-31 20 -31 20 -32.75 18.5 C-33.36875 17.7575 -33.36875 17.7575 -34 17 C-34 17.99 -34 18.98 -34 20 C-45.55 20 -57.1 20 -69 20 C-69 19.34 -69 18.68 -69 18 C-65.333584 17.68451556 -61.66682339 17.37321072 -58 17.0625 C-56.90381348 16.9682373 -55.80762695 16.87397461 -54.67822266 16.77685547 C-49.89904276 16.37350475 -45.12894907 15.97494664 -40.3359375 15.78515625 C-27.35558952 15.26030983 -12.89449733 13.08201508 -3.35546875 3.31640625 C-2 2 -2 2 0 2 C0 1.34 0 0.68 0 0 Z " fill="#92B2D5" transform="translate(141,164)"/>
<path d="M0 0 C5.51858459 1.33783869 8.85009807 5.5122365 12 10 C12.78515625 12.0859375 12.78515625 12.0859375 13 14 C11.6875 16.75 11.6875 16.75 10 19 C9.34 19 8.68 19 8 19 C8 18.34 8 17.68 8 17 C8.66 17 9.32 17 10 17 C10 16.34 10 15.68 10 15 C9.01 15 8.02 15 7 15 C7 15.66 7 16.32 7 17 C6.34 17 5.68 17 5 17 C5 50.99 5 84.98 5 120 C4.67 120 4.34 120 4 120 C3.99413376 118.70818314 3.98826752 117.41636627 3.98222351 116.08540344 C3.92503291 103.91658573 3.8522903 91.74794735 3.76428509 79.57931232 C3.71954051 73.32315163 3.68029322 67.06705668 3.65356445 60.81079102 C3.62757254 54.77416283 3.58719887 48.73778708 3.53681374 42.70131493 C3.52011726 40.39725062 3.50862035 38.09314263 3.50238609 35.78902626 C3.49277548 32.56391504 3.46475166 29.33945372 3.43237305 26.11450195 C3.43380814 25.16000153 3.43524323 24.2055011 3.4367218 23.22207642 C3.35119698 17.20617769 2.51312523 13.69928266 -1.6875 9.1875 C-2.120625 8.795625 -2.55375 8.40375 -3 8 C-2.67 7.01 -2.34 6.02 -2 5 C-0.68 5 0.64 5 2 5 C1.34 3.35 0.68 1.7 0 0 Z " fill="#DAE0E8" transform="translate(190,20)"/>
<path d="M0 0 C12.54 0 25.08 0 38 0 C38 0.66 38 1.32 38 2 C38.61488281 1.84402344 39.22976562 1.68804687 39.86328125 1.52734375 C40.67152344 1.33269531 41.47976562 1.13804688 42.3125 0.9375 C43.51326172 0.64166016 43.51326172 0.64166016 44.73828125 0.33984375 C47 0 47 0 50 1 C50 2.98 50 4.96 50 7 C46.77778118 8.07407294 46.08101581 7.94296569 42.95532227 7.08837891 C37.84514614 5.86095707 32.95379254 5.65361983 27.71484375 5.5859375 C26.77314835 5.56657135 25.83145294 5.5472052 24.86122131 5.5272522 C21.88673642 5.46801127 18.91221164 5.42129526 15.9375 5.375 C13.90688522 5.33676904 11.87628576 5.29771442 9.84570312 5.2578125 C4.89726159 5.16235611 -0.0512557 5.07812302 -5 5 C-5.33 4.34 -5.66 3.68 -6 3 C-5.195625 2.87625 -4.39125 2.7525 -3.5625 2.625 C-2.716875 2.41875 -1.87125 2.2125 -1 2 C-0.67 1.34 -0.34 0.68 0 0 Z " fill="#7394BF" transform="translate(70,104)"/>
<path d="M0 0 C0.66 0 1.32 0 2 0 C2.98831156 6.53686384 3.11883529 12.89577115 3.0625 19.5 C3.05798828 20.51320313 3.05347656 21.52640625 3.04882812 22.5703125 C3.03714593 25.04693827 3.02076582 27.52343657 3 30 C-1.1117256 30.02465746 -5.22342278 30.04283959 -9.33520508 30.05493164 C-10.73495228 30.0599708 -12.1346942 30.06680216 -13.53442383 30.07543945 C-15.54245777 30.0875232 -17.55052957 30.09269807 -19.55859375 30.09765625 C-20.76829834 30.10289307 -21.97800293 30.10812988 -23.22436523 30.11352539 C-26 30 -26 30 -27 29 C-27.08685603 27.43827255 -27.10702219 25.87270656 -27.09765625 24.30859375 C-27.09443359 23.36435547 -27.09121094 22.42011719 -27.08789062 21.44726562 C-27.07951172 20.45404297 -27.07113281 19.46082031 -27.0625 18.4375 C-27.05798828 17.44041016 -27.05347656 16.44332031 -27.04882812 15.41601562 C-27.03700007 12.94395151 -27.02051849 10.47200482 -27 8 C-26.67 8 -26.34 8 -26 8 C-26 13.61 -26 19.22 -26 25 C-24.618125 24.814375 -23.23625 24.62875 -21.8125 24.4375 C-18.30381271 24.03903709 -15.43377219 24.0030984 -12 25 C-12 25.33 -12 25.66 -12 26 C-10.35 26 -8.7 26 -7 26 C-6.67 25.34 -6.34 24.68 -6 24 C-4.02 24 -2.04 24 0 24 C0 16.08 0 8.16 0 0 Z " fill="#5A7DAE" transform="translate(58,56)"/>
<path d="M0 0 C0.33 0 0.66 0 1 0 C1.17270452 2.37468712 1.33813805 4.74956647 1.5 7.125 C1.54769531 7.77082031 1.59539062 8.41664062 1.64453125 9.08203125 C2.10916657 16.05156108 2.04462158 23.01796173 2 30 C-2.80549747 30.02468447 -7.61095818 30.04285255 -12.41650391 30.05493164 C-14.05192711 30.05996621 -15.6873458 30.06679427 -17.32275391 30.07543945 C-19.67090975 30.08754335 -22.01900619 30.093237 -24.3671875 30.09765625 C-25.46726639 30.10539818 -25.46726639 30.10539818 -26.58956909 30.11329651 C-31.77225659 30.11387171 -31.77225659 30.11387171 -34 29 C-34 22.07 -34 15.14 -34 8 C-33.67 8 -33.34 8 -33 8 C-32.10352837 14.05118353 -31.90884272 19.88887343 -32 26 C-30.14568359 25.75443359 -30.14568359 25.75443359 -28.25390625 25.50390625 C-22.47729417 24.86206046 -16.74269179 24.89026254 -10.9375 24.9375 C-5.5234375 24.9684375 -5.5234375 24.9684375 0 25 C0 16.75 0 8.5 0 0 Z " fill="#6689B7" transform="translate(152,56)"/>
<path d="M0 0 C12.54 0 25.08 0 38 0 C38 7.92 38 15.84 38 24 C37.67 24 37.34 24 37 24 C37 18.39 37 12.78 37 7 C36.34 7 35.68 7 35 7 C35 6.01 35 5.02 35 4 C35.66 4 36.32 4 37 4 C37 3.34 37 2.68 37 2 C36.02969849 2.1071936 36.02969849 2.1071936 35.03979492 2.21655273 C27.77552643 2.95582813 20.6101067 3.12059485 13.3125 3.0625 C11.66991211 3.05573242 11.66991211 3.05573242 9.99414062 3.04882812 C7.32936691 3.03719156 4.66471483 3.02084564 2 3 C2.17329834 3.75667969 2.34659668 4.51335938 2.52514648 5.29296875 C3.03098249 8.1766241 2.71430241 10.51563635 2.29345703 13.390625 C1.60031436 19.55394355 1.60975595 25.80300448 1.4375 32 C1.39422635 33.45704157 1.3506095 34.91407299 1.30664062 36.37109375 C1.20046698 39.91395412 1.09894889 43.45692963 1 47 C0.67 47 0.34 47 0 47 C0 31.49 0 15.98 0 0 Z " fill="#63729B" transform="translate(70,48)"/>
<path d="M0 0 C0.33 0 0.66 0 1 0 C1.00331015 0.72868758 1.00662029 1.45737516 1.01003075 2.20814419 C1.09134999 19.96161242 1.18347156 37.71499476 1.28752708 55.46834469 C1.33758927 64.05382962 1.3840328 72.63930531 1.421875 81.22485352 C1.45487826 88.71045063 1.49475521 96.19597466 1.54279006 103.68149096 C1.5679724 107.64279473 1.58977781 111.60405052 1.60334396 115.56541252 C1.6162397 119.29923541 1.63837386 123.03289308 1.66738319 126.76662445 C1.68067778 128.77946781 1.68436589 130.79236757 1.68769836 132.80525208 C1.74959829 139.54555883 2.39672101 145.46383997 4 152 C3.505 152.99 3.505 152.99 3 154 C-0 153 -0 153 -1.1875 150.8125 C-2.07334979 147.74609689 -2.14770318 145.17561845 -2 142 C-1.67 142 -1.34 142 -1 142 C-0.67 95.14 -0.34 48.28 0 0 Z " fill="#2C5E9C" transform="translate(19,38)"/>
<path d="M0 0 C0 0.33 0 0.66 0 1 C-6.7526635 2.26108118 -13.42889186 2.09287163 -20.27905273 2.02172852 C-21.61996634 2.01157191 -22.96088353 2.00187976 -24.30180359 1.99261475 C-27.9252902 1.96627203 -31.54869237 1.93346517 -35.17211413 1.89946485 C-38.96505993 1.86498404 -42.75805071 1.83649371 -46.55104065 1.80735779 C-53.72612165 1.7513372 -60.90114633 1.68995829 -68.07616621 1.62663645 C-76.24784505 1.55478101 -84.41956883 1.48892613 -92.5913018 1.42356598 C-109.39426006 1.28903656 -126.19714613 1.14700183 -143 1 C-143 0.67 -143 0.34 -143 0 C-125.38874682 -0.15407421 -107.77745454 -0.30210225 -90.16609097 -0.4429636 C-81.98854873 -0.50851067 -73.81103162 -0.57602442 -65.63354492 -0.64819336 C-58.50475941 -0.71110215 -51.3759543 -0.77029513 -44.24710137 -0.82505554 C-40.47362321 -0.85417057 -36.70018069 -0.88512625 -32.92675591 -0.92053413 C-29.37197939 -0.95383156 -25.81719735 -0.98214422 -22.26235008 -1.00670624 C-20.34209614 -1.021251 -18.42188394 -1.04101635 -16.50167847 -1.06095886 C-10.88741433 -1.09520787 -5.52574695 -1.03195065 0 0 Z " fill="#2D5F9A" transform="translate(191,202)"/>
<path d="M0 0 C15.84 0.495 15.84 0.495 32 1 C32 1.33 32 1.66 32 2 C35.3 2.33 38.6 2.66 42 3 C42 3.66 42 4.32 42 5 C28.8 5 15.6 5 2 5 C2 7.97 2 10.94 2 14 C1.67 14 1.34 14 1 14 C0.67 9.38 0.34 4.76 0 0 Z " fill="#416FA4" transform="translate(152,34)"/>
<path d="M0 0 C0.33 0 0.66 0 1 0 C1.17015625 0.65226563 1.3403125 1.30453125 1.515625 1.9765625 C3.427852 8.87278541 5.56938863 14.13868018 11.25 18.75 C12.1575 19.4925 13.065 20.235 14 21 C14 21.66 14 22.32 14 23 C15.32 23.66 16.64 24.32 18 25 C17.34 25 16.68 25 16 25 C16 25.66 16 26.32 16 27 C13.36 27 10.72 27 8 27 C8 24.69 8 22.38 8 20 C5.36 19.67 2.72 19.34 0 19 C0 12.73 0 6.46 0 0 Z " fill="#C6C6C7" transform="translate(16,181)"/>
<path d="M0 0 C5.94 0 11.88 0 18 0 C18 0.66 18 1.32 18 2 C13.05 2.66 8.1 3.32 3 4 C2.67 9.61 2.34 15.22 2 21 C5.96 20.505 5.96 20.505 10 20 C10 20.99 10 21.98 10 23 C6.7 23 3.4 23 0 23 C0 15.41 0 7.82 0 0 Z " fill="#6487B5" transform="translate(30,133)"/>
<path d="M0 0 C0.88429688 -0.01224609 1.76859375 -0.02449219 2.6796875 -0.03710938 C3.95972656 -0.04000977 3.95972656 -0.04000977 5.265625 -0.04296875 C6.03165039 -0.04707764 6.79767578 -0.05118652 7.58691406 -0.05541992 C10.01554597 0.21732147 11.64269073 0.97977605 13.75 2.1875 C10.8280231 3.64848845 8.25106525 3.29884901 4.9921875 3.28515625 C3.99761032 3.28303383 3.99761032 3.28303383 2.98294067 3.28086853 C0.86358137 3.27526754 -1.25567259 3.262715 -3.375 3.25 C-4.81119639 3.24498512 -6.24739444 3.24042219 -7.68359375 3.23632812 C-11.20576345 3.22529782 -14.72787145 3.20803259 -18.25 3.1875 C-18.25 2.5275 -18.25 1.8675 -18.25 1.1875 C-12.13457699 0.29863038 -6.17629965 0.00458182 0 0 Z " fill="#88AACF" transform="translate(90.25,180.8125)"/>
<path d="M0 0 C11.88 0 23.76 0 36 0 C36 7.92 36 15.84 36 24 C35.67 24 35.34 24 35 24 C35 18.39 35 12.78 35 7 C34.34 7 33.68 7 33 7 C33 6.01 33 5.02 33 4 C33.66 4 34.32 4 35 4 C35 3.34 35 2.68 35 2 C23.45 1.67 11.9 1.34 0 1 C0 0.67 0 0.34 0 0 Z " fill="#7A6695" transform="translate(72,48)"/>
<path d="M0 0 C1.4540625 0.0309375 1.4540625 0.0309375 2.9375 0.0625 C2.9375 2.3725 2.9375 4.6825 2.9375 7.0625 C-1.37090221 8.49863407 -4.79980736 7.40132404 -9.0625 6.0625 C-11.625 4.4375 -11.625 4.4375 -13.0625 3.0625 C-12.10537109 2.86333984 -12.10537109 2.86333984 -11.12890625 2.66015625 C-10.30261719 2.48355469 -9.47632812 2.30695313 -8.625 2.125 C-7.80128906 1.95097656 -6.97757812 1.77695313 -6.12890625 1.59765625 C-3.08568002 0.80952394 -3.50902177 0.07161269 0 0 Z " fill="#7B9DC4" transform="translate(117.0625,103.9375)"/>
<path d="M0 0 C2.97 0.33 5.94 0.66 9 1 C9 1.66 9 2.32 9 3 C20.22 3 31.44 3 43 3 C43 3.33 43 3.66 43 4 C29.47 4 15.94 4 2 4 C1.34 2.68 0.68 1.36 0 0 Z " fill="#91A9C6" transform="translate(151,136)"/>
<path d="M0 0 C4.95 0 9.9 0 15 0 C16 4 16 4 16 8 C10.38098156 5.89286808 4.99385521 3.32923681 0 0 Z " fill="#7E9EC5" transform="translate(120,112)"/>
<path d="M0 0 C0.33 0.66 0.66 1.32 1 2 C1.99 1.67 2.98 1.34 4 1 C4.33 3.31 4.66 5.62 5 8 C3.35 8.66 1.7 9.32 0 10 C0 9.34 0 8.68 0 8 C-1.32 8 -2.64 8 -4 8 C-3.50168276 4.31245243 -2.89932357 2.39509338 0 0 Z " fill="#3A6196" transform="translate(35,30)"/>
<path d="M0 0 C0.33 0 0.66 0 1 0 C3.57996518 5.87094438 3.22552426 11.59609985 3.125 17.875 C3.11597656 18.94492188 3.10695313 20.01484375 3.09765625 21.1171875 C3.07419342 23.74502439 3.04136459 26.37239406 3 29 C2.67 29 2.34 29 2 29 C1.93941406 28.22914062 1.87882812 27.45828125 1.81640625 26.6640625 C1.73261719 25.66117188 1.64882812 24.65828125 1.5625 23.625 C1.48128906 22.62726563 1.40007812 21.62953125 1.31640625 20.6015625 C1.15034374 18.02072387 1.15034374 18.02072387 0 16 C-0.07181821 13.28239892 -0.09299506 10.59140612 -0.0625 7.875 C-0.05798828 7.12089844 -0.05347656 6.36679688 -0.04882812 5.58984375 C-0.03703499 3.72652873 -0.01909942 1.86325445 0 0 Z " fill="#7281B2" transform="translate(105,66)"/>
<path d="M0 0 C0.33 0.66 0.66 1.32 1 2 C9.25 2 17.5 2 26 2 C26 2.33 26 2.66 26 3 C22.50007304 3.79706768 19.2857769 4.11863027 15.69921875 4.09765625 C14.72275391 4.09443359 13.74628906 4.09121094 12.74023438 4.08789062 C11.73283203 4.07951172 10.72542969 4.07113281 9.6875 4.0625 C8.66076172 4.05798828 7.63402344 4.05347656 6.57617188 4.04882812 C4.05072118 4.03708184 1.52539095 4.02065565 -1 4 C-0.67 2.68 -0.34 1.36 0 0 Z " fill="#5778AC" transform="translate(86,167)"/>
<path d="M0 0 C2.64 0 5.28 0 8 0 C7.8125 1.8125 7.8125 1.8125 7 4 C3.62712264 6.62334906 1.24348127 7.36372697 -3 7 C-2.505 6.21625 -2.01 5.4325 -1.5 4.625 C0.16537965 2.21447673 0.16537965 2.21447673 0 0 Z " fill="#7293C1" transform="translate(184,184)"/>
<path d="M0 0 C2 2 2 2 2 5 C-0.58246143 6.90877584 -3.12754491 8.56377246 -6 10 C-6 9.34 -6 8.68 -6 8 C-7.32 7.67 -8.64 7.34 -10 7 C-6.7 4.69 -3.4 2.38 0 0 Z " fill="#3D69A3" transform="translate(33,15)"/>
<path d="M0 0 C5.94 0 11.88 0 18 0 C17.67 0.66 17.34 1.32 17 2 C12.38 2 7.76 2 3 2 C2.67 6.29 2.34 10.58 2 15 C1.34 15 0.68 15 0 15 C0 10.05 0 5.1 0 0 Z " fill="#6789B3" transform="translate(30,166)"/>
<path d="M0 0 C0.33 0 0.66 0 1 0 C1.4803318 1.58298026 1.95921612 3.16639978 2.4375 4.75 C2.83775391 6.07257813 2.83775391 6.07257813 3.24609375 7.421875 C3.49488281 8.27265625 3.74367188 9.1234375 4 10 C4.22429688 10.72316406 4.44859375 11.44632813 4.6796875 12.19140625 C5 14 5 14 3.6875 16.1875 C2 18 2 18 0 19 C0 12.73 0 6.46 0 0 Z " fill="#C9D4DD" transform="translate(16,181)"/>
<path d="M0 0 C2.31 0 4.62 0 7 0 C7 1.65 7 3.3 7 5 C7.66 5.33 8.32 5.66 9 6 C7.375 6.8125 7.375 6.8125 5 7 C2.75390165 5.53181864 0.97621323 3.84147142 -1 2 C-0.67 1.34 -0.34 0.68 0 0 Z " fill="#6B8CB7" transform="translate(33,184)"/>
<path d="M0 0 C2 1 2 1 2.6875 2.75 C3.16075321 6.15742312 2.53004909 8.93990183 1 12 C-0.32 10.68 -1.64 9.36 -3 8 C-1.125 2.25 -1.125 2.25 0 0 Z " fill="#CDCFD2" transform="translate(206,188)"/>
<path d="M0 0 C1 3 1 3 0 6 C0.38932856 8.14255793 0.38932856 8.14255793 1 10 C0.01 9.67 -0.98 9.34 -2 9 C-2.99 9.99 -3.98 10.98 -5 12 C-5.66 11.67 -6.32 11.34 -7 11 C-5.22054913 6.95579349 -2.60470327 3.53921513 0 0 Z " fill="#8CAED1" transform="translate(151,152)"/>
<path d="M0 0 C1.98 0.99 3.96 1.98 6 3 C5.67 3.99 5.34 4.98 5 6 C4.01 6.33 3.02 6.66 2 7 C-3.63380282 3.73239437 -3.63380282 3.73239437 -5 1 C-2.525 1.495 -2.525 1.495 0 2 C0 1.34 0 0.68 0 0 Z " fill="#4169A0" transform="translate(29,196)"/>
<path d="M0 0 C3.82658013 1.31538692 4.05528451 2.11056902 6 6 C3.03 5.67 0.06 5.34 -3 5 C-2.67 3.68 -2.34 2.36 -2 1 C-1.34 0.67 -0.68 0.34 0 0 Z " fill="#CFD3D1" transform="translate(20,195)"/>
<path d="M0 0 C1.32 0 2.64 0 4 0 C4.625 2.875 4.625 2.875 5 6 C4.34 6.66 3.68 7.32 3 8 C1.68 6.02 0.36 4.04 -1 2 C-0.67 1.34 -0.34 0.68 0 0 Z " fill="#83A4CA" transform="translate(147,128)"/>
<path d="M0 0 C2.64 0 5.28 0 8 0 C8 2.31 8 4.62 8 7 C6.66382648 6.02471263 5.3311249 5.04466681 4 4.0625 C3.2575 3.51722656 2.515 2.97195312 1.75 2.41015625 C1.1725 1.94480469 0.595 1.47945313 0 1 C0 0.67 0 0.34 0 0 Z " fill="#84A1C4" transform="translate(136,120)"/>
<path d="M0 0 C1.29585916 0.42492126 2.5866044 0.86545882 3.875 1.3125 C4.59429687 1.55613281 5.31359375 1.79976562 6.0546875 2.05078125 C8 3 8 3 10 6 C7.36 6 4.72 6 2 6 C2 5.01 2 4.02 2 3 C1.34 2.67 0.68 2.34 0 2 C0 1.34 0 0.68 0 0 Z " fill="#B7BEC4" transform="translate(30,202)"/>
<path d="M0 0 C1.65 1.65 3.3 3.3 5 5 C3.68 5.99 2.36 6.98 1 8 C0.34 7.67 -0.32 7.34 -1 7 C-0.67 4.69 -0.34 2.38 0 0 Z " fill="#7B98C2" transform="translate(66,111)"/>
<path d="M0 0 C0 0.66 0 1.32 0 2 C0.66 2.33 1.32 2.66 2 3 C-1.22791555 5.1519437 -2.28400809 5.20086443 -6 5 C-3.74193548 0 -3.74193548 0 0 0 Z " fill="#6C8EBA" transform="translate(187,186)"/>
<path d="M0 0 C2.99324263 1.0975223 3.84610901 1.67682892 5.25 4.625 C5.4975 5.40875 5.745 6.1925 6 7 C5.34 7 4.68 7 4 7 C4 6.34 4 5.68 4 5 C2.68 5 1.36 5 0 5 C-0.33 4.01 -0.66 3.02 -1 2 C-0.67 1.34 -0.34 0.68 0 0 Z " fill="#4F6C9F" transform="translate(188,30)"/>
<path d="M0 0 C1.32 0.33 2.64 0.66 4 1 C3.67 3.64 3.34 6.28 3 9 C0.87491756 5.81237635 0.4979837 3.73487777 0 0 Z " fill="#2B61A1" transform="translate(201,26)"/>
<path d="M0 0 C0.33 0.66 0.66 1.32 1 2 C2.98 2 4.96 2 7 2 C7.33 2.99 7.66 3.98 8 5 C5.36 5 2.72 5 0 5 C0 3.35 0 1.7 0 0 Z " fill="#D1D2D1" transform="translate(24,203)"/>
<path d="M0 0 C2.475 0.99 2.475 0.99 5 2 C4.1875 4.4375 4.1875 4.4375 3 7 C2.01 7.33 1.02 7.66 0 8 C0 5.36 0 2.72 0 0 Z " fill="#DFE0E1" transform="translate(16,192)"/>
<path d="M0 0 C1.32 0.33 2.64 0.66 4 1 C0.04 4.465 0.04 4.465 -4 8 C-4 4.09161134 -2.49432124 2.88405893 0 0 Z " fill="#E9EFF7" transform="translate(74,168)"/>
<path d="M0 0 C3.63 0 7.26 0 11 0 C9.515 1.98 9.515 1.98 8 4 C8 3.34 8 2.68 8 2 C7.05125 2.04125 6.1025 2.0825 5.125 2.125 C2 2 2 2 0 0 Z " fill="#85A5CE" transform="translate(64,167)"/>
<path d="M0 0 C1.485 0.99 1.485 0.99 3 2 C2.34 4.97 1.68 7.94 1 11 C0.67 11 0.34 11 0 11 C0 7.37 0 3.74 0 0 Z " fill="#2F5E99" transform="translate(92,139)"/>
<path d="M0 0 C2.97 0.33 5.94 0.66 9 1 C9 1.66 9 2.32 9 3 C6.36 3 3.72 3 1 3 C0.67 2.01 0.34 1.02 0 0 Z " fill="#7FA1C8" transform="translate(151,136)"/>
<path d="M0 0 C0.99 0.99 1.98 1.98 3 3 C2.67 3.66 2.34 4.32 2 5 C-0.5625 5.625 -0.5625 5.625 -3 6 C-1.125 1.125 -1.125 1.125 0 0 Z " fill="#BCC2C3" transform="translate(202,195)"/>
<path d="M0 0 C1 3 1 3 0.3125 5 C-1.17477001 7.26631621 -2.75769234 8.50512823 -5 10 C-4.38545304 6.00544473 -2.29353263 3.25533664 0 0 Z " fill="#89A7C5" transform="translate(151,152)"/>
<path d="M0 0 C0.33 0.66 0.66 1.32 1 2 C1.66 2 2.32 2 3 2 C2.67 2.99 2.34 3.98 2 5 C1.67 4.67 1.34 4.34 1 4 C0.67 4.66 0.34 5.32 0 6 C-0.66 6 -1.32 6 -2 6 C-2.33 5.01 -2.66 4.02 -3 3 C-2.01 2.01 -1.02 1.02 0 0 Z " fill="#40679B" transform="translate(35,30)"/>
<path d="M0 0 C3.96 0.33 7.92 0.66 12 1 C12 1.33 12 1.66 12 2 C6.06 2.495 6.06 2.495 0 3 C0 2.01 0 1.02 0 0 Z " fill="#346BAE" transform="translate(36,14)"/>
<path d="M0 0 C0 1.32 0 2.64 0 4 C-2.91517292 2.92598892 -4.77810176 2.22189824 -7 0 C-2.25 -1.125 -2.25 -1.125 0 0 Z " fill="#8BA4CB" transform="translate(136,116)"/>
<path d="M0 0 C1.98 1.65 3.96 3.3 6 5 C5.34 5.66 4.68 6.32 4 7 C3.34 6.01 2.68 5.02 2 4 C1.01 4 0.02 4 -1 4 C-0.67 2.68 -0.34 1.36 0 0 Z " fill="#E7F1F7" transform="translate(194,22)"/>
</svg>
