<?xml version="1.0" encoding="UTF-8"?>
<svg version="1.1" xmlns="http://www.w3.org/2000/svg" width="225" height="225">
<path d="M0 0 C74.25 0 148.5 0 225 0 C225 74.25 225 148.5 225 225 C150.75 225 76.5 225 0 225 C0 150.75 0 76.5 0 0 Z " fill="#060606" transform="translate(0,0)"/>
<path d="M0 0 C0.33 0 0.66 0 1 0 C1 15.18 1 30.36 1 46 C-32 46 -65 46 -99 46 C-98.01 45.505 -98.01 45.505 -97 45 C-97.19580469 43.03122604 -97.19580469 43.03122604 -98 41 C-99.78622672 39.97587857 -99.78622672 39.97587857 -101.9375 39.4375 C-105.44293593 38.41322562 -105.83002062 38.25496907 -108 35 C-107.86714936 31.28018216 -107.75057131 28.889566 -105.3125 26 C-102.12832007 24.62305733 -100.29075199 25.019776 -97 26 C-95.1875 27.125 -95.1875 27.125 -94 29 C-93.3125 32.6875 -93.3125 32.6875 -93 36 C-91.35 36.33 -89.7 36.66 -88 37 C-88 34.03 -88 31.06 -88 28 C-87.33581055 27.64284912 -86.67162109 27.28569824 -85.98730469 26.91772461 C-82.9070407 25.25979896 -79.82847657 23.59874211 -76.75 21.9375 C-75.10004028 21.04973877 -75.10004028 21.04973877 -73.41674805 20.14404297 C-66.8933893 16.6192353 -60.4932012 13.01095377 -54.26953125 8.9765625 C-51.40843016 7.74545188 -49.9323824 8.08332248 -47 9 C-46.34 9.33 -45.68 9.66 -45 10 C-39.99385993 10.54923479 -36.07886216 10.52016569 -31.5 8.3125 C-28.5519228 5.9175342 -28.5519228 5.9175342 -27 1 C-21.39 1 -15.78 1 -10 1 C-10.33 3.31 -10.66 5.62 -11 8 C-8.09569462 7.91457925 -6.44171794 7.43960446 -4.3671875 5.375 C-3.30218428 4.09905411 -2.25711974 2.80615595 -1.234375 1.49609375 C-0.82703125 1.00238281 -0.4196875 0.50867188 0 0 Z " fill="#FDFDFD" transform="translate(224,179)"/>
<path d="M0 0 C32.34 0 64.68 0 98 0 C98 15.18 98 30.36 98 46 C93 41 93 41 91.4375 39.1875 C89.79678454 37.57541237 89.79678454 37.57541237 86 38 C86.495 41.465 86.495 41.465 87 45 C81.39 45 75.78 45 70 45 C69.01 43.02 68.02 41.04 67 39 C63.14252181 35.49320164 59.27061376 35.67657775 54.3046875 35.69921875 C51.72644092 35.86289104 51.72644092 35.86289104 49 38 C44.45299143 37.69351742 41.19357497 36.27824934 37.26171875 34.05078125 C36.19373047 33.44943359 35.12574219 32.84808594 34.02539062 32.22851562 C32.92388672 31.59623047 31.82238281 30.96394531 30.6875 30.3125 C29.59759766 29.69955078 28.50769531 29.08660156 27.38476562 28.45507812 C24.23586561 26.66950223 21.11238627 24.84840074 18 23 C17.08597412 22.46044678 16.17194824 21.92089355 15.23022461 21.36499023 C14.41432861 20.85782471 13.59843262 20.35065918 12.7578125 19.828125 C12.04641113 19.39016602 11.33500977 18.95220703 10.60205078 18.50097656 C8.52950936 16.55919286 8.40218004 15.22380503 8.1875 12.4375 C8.17203125 11.28701172 8.17203125 11.28701172 8.15625 10.11328125 C7.91291699 6.82220234 6.30414207 5.23830944 4 3 C2.68 2.01 1.36 1.02 0 0 Z " fill="#FDFDFD" transform="translate(127,0)"/>
<path d="M0 0 C0.33 0 0.66 0 1 0 C1 19.8 1 39.6 1 60 C-1.31 58.02 -3.62 56.04 -6 54 C-9.5527864 51.8509288 -9.5527864 51.8509288 -12 52 C-11.34 54.31 -10.68 56.62 -10 59 C-12.75236274 59.16225719 -15.49517476 59.2809328 -18.25 59.375 C-19.02730469 59.42527344 -19.80460937 59.47554687 -20.60546875 59.52734375 C-22.88114346 59.58569438 -24.79181129 59.5633192 -27 59 C-29.375 56.08984375 -29.375 56.08984375 -31 53 C-34.55469507 50.65713279 -36.52403602 49.99609866 -40.8125 50.03125 C-43.69346828 49.69641511 -44.71936656 49.30498229 -46.70800781 47.14379883 C-48.36073802 44.59139276 -49.82496299 41.99858167 -51.25 39.3125 C-52.25426984 37.51640201 -53.25945699 35.72081658 -54.265625 33.92578125 C-54.72904297 33.07193848 -55.19246094 32.2180957 -55.66992188 31.33837891 C-56.82041491 29.3157243 -58.04801579 27.47832399 -59.421875 25.60546875 C-61 23 -61 23 -61.03125 20.9140625 C-59.59172893 18.24222415 -57.70058143 16.45719572 -55.5 14.375 C-52.33306837 11.49722976 -52.33306837 11.49722976 -50 8 C-49.38125 8.33 -48.7625 8.66 -48.125 9 C-42.31963074 10.85771816 -37.02268657 10.97522388 -31.5 8.3125 C-28.5519228 5.9175342 -28.5519228 5.9175342 -27 1 C-21.39 1 -15.78 1 -10 1 C-10.33 3.31 -10.66 5.62 -11 8 C-8.09569462 7.91457925 -6.44171794 7.43960446 -4.3671875 5.375 C-3.30218428 4.09905411 -2.25711974 2.80615595 -1.234375 1.49609375 C-0.82703125 1.00238281 -0.4196875 0.50867187 0 0 Z " fill="#FCFCFC" transform="translate(224,50)"/>
<path d="M0 0 C0.33 0 0.66 0 1 0 C1 20.13 1 40.26 1 61 C-4 56 -4 56 -5.5625 54.1875 C-7.20321546 52.57541237 -7.20321546 52.57541237 -11 53 C-10.505 56.465 -10.505 56.465 -10 60 C-15.61 60 -21.22 60 -27 60 C-27.99 58.02 -28.98 56.04 -30 54 C-32.74055545 51.76187971 -34.10307903 50.94460194 -37.65625 51.1640625 C-38.5946875 51.31617188 -39.533125 51.46828125 -40.5 51.625 C-45.02827002 51.81649401 -47.33501743 51.04002103 -50.671875 48.1171875 C-53.9721069 44.9086287 -57.01670793 41.50296231 -60 38 C-58.71026258 34.54252773 -57.20666855 31.52927613 -55.21484375 28.42578125 C-54.68439453 27.59369141 -54.15394531 26.76160156 -53.60742188 25.90429688 C-53.05634766 25.04900391 -52.50527344 24.19371094 -51.9375 23.3125 C-50.84171306 21.60073061 -49.74662601 19.88851292 -48.65234375 18.17578125 C-48.16757568 17.42208252 -47.68280762 16.66838379 -47.18334961 15.8918457 C-45.96869037 14.01668656 -45.96869037 14.01668656 -45 12 C-42.671875 11.5078125 -42.671875 11.5078125 -39.75 11.125 C-35.12845062 10.35773888 -32.25456078 9.56951828 -29 6 C-28.34 4.68 -27.68 3.36 -27 2 C-21.39 2 -15.78 2 -10 2 C-10.66 4.31 -11.32 6.62 -12 9 C-8.88981722 8.6621698 -7.3377191 8.31445105 -5.015625 6.15234375 C-4.43296875 5.42144531 -3.8503125 4.69054687 -3.25 3.9375 C-2.18007388 2.6140479 -1.10021965 1.29837748 0 0 Z " fill="#FCFCFC" transform="translate(224,114)"/>
<path d="M0 0 C24.09 0 48.18 0 73 0 C72.34 0.33 71.68 0.66 71 1 C71.19580469 2.96877396 71.19580469 2.96877396 72 5 C73.78622672 6.02412143 73.78622672 6.02412143 75.9375 6.5625 C79.44293593 7.58677438 79.83002062 7.74503093 82 11 C81.78087649 17.13545817 81.78087649 17.13545817 79.25 19.9375 C76.50508782 21.23370853 74.99925788 21.52487013 72 21 C69.43489245 19.2899283 68.22674416 17.99011618 67.53125 14.953125 C67.27896627 12.97690245 67.13252321 10.98784814 67 9 C65.35 9.33 63.7 9.66 62 10 C62.2475 11.5778125 62.2475 11.5778125 62.5 13.1875 C62.335 14.445625 62.17 15.70375 62 17 C59.36526971 18.86693101 56.81151083 20.43380075 54 22 C53.02530762 22.55373291 52.05061523 23.10746582 51.04638672 23.67797852 C47.76835084 25.52968004 44.47967179 27.36106034 41.1875 29.1875 C38.95120845 30.42988419 36.71550333 31.67332471 34.48046875 32.91796875 C33.00936646 33.73430786 33.00936646 33.73430786 31.50854492 34.56713867 C29.62986474 35.64022617 27.80018384 36.79987744 26 38 C23.36565746 37.67873872 21.37289903 37.18644952 19 36 C13.91439643 35.50044796 9.48740583 35.1323466 5 37.75 C3.22749825 39.74406447 1.60078106 41.86562525 0 44 C0 29.48 0 14.96 0 0 Z " fill="#FDFDFD" transform="translate(0,0)"/>
<path d="M0 0 C1.32 1.65 2.64 3.3 4 5 C7.15227966 7.97103976 9.2645359 8.38851841 13.5625 8.3125 C14.51253906 8.30863281 15.46257813 8.30476562 16.44140625 8.30078125 C19.23955905 8.16801095 19.23955905 8.16801095 22 6 C28.13254283 6.05626186 33.01418192 9.5885004 38.125 12.625 C39.99834919 13.72975822 41.8720454 14.83392821 43.74609375 15.9375 C44.6469873 16.46988281 45.54788086 17.00226563 46.47607422 17.55078125 C48.61485802 18.77885444 50.75878058 19.91603251 52.97265625 21 C60.50812002 24.8089343 60.50812002 24.8089343 62.01953125 28.46875 C62.5 31.125 62.5 31.125 62.7265625 33.69921875 C63.12363934 37.04033671 64.63086427 38.70054473 67 41 C68.32 41.99 69.64 42.98 71 44 C47.57 44 24.14 44 0 44 C0 29.48 0 14.96 0 0 Z " fill="#FDFDFD" transform="translate(0,181)"/>
<path d="M0 0 C0.99 1.485 0.99 1.485 2 3 C4.54045287 6.53678072 4.54045287 6.53678072 8 9 C9.78859511 9.12207871 11.58228381 9.17548448 13.375 9.1875 C14.33148438 9.20167969 15.28796875 9.21585938 16.2734375 9.23046875 C19.03010017 8.99745572 20.64947395 8.40920164 23 7 C25.03660426 8.90202689 27.05331336 10.81938491 29.0625 12.75 C29.93358398 13.55824219 29.93358398 13.55824219 30.82226562 14.3828125 C32.47265625 15.984375 32.47265625 15.984375 35 19 C34.71275109 22.57601348 32.74930486 25.34356289 30.91015625 28.3515625 C30.29076172 29.36734375 29.67136719 30.383125 29.03320312 31.4296875 C28.38287109 32.48414063 27.73253906 33.53859375 27.0625 34.625 C26.41603516 35.6871875 25.76957031 36.749375 25.10351562 37.84375 C20.27628541 45.72371459 20.27628541 45.72371459 18 48 C16.01171875 48.30859375 16.01171875 48.30859375 13.6875 48.4375 C9.72344643 48.82563366 7.07686964 49.28511502 4 52 C2.73553353 54.29856455 1.89112393 56.51423326 1 59 C0.67 59 0.34 59 0 59 C0 39.53 0 20.06 0 0 Z " fill="#FCFCFC" transform="translate(0,51)"/>
<path d="M0 0 C0.99 1.485 0.99 1.485 2 3 C4.99705917 7.0692549 4.99705917 7.0692549 9 10 C9.63292969 9.98839844 10.26585937 9.97679688 10.91796875 9.96484375 C13.53839071 9.9332724 15.50954602 10.15751969 18 11 C20.98577238 13.92955491 22.898392 17.40648127 25 21 C25.74278979 22.14188586 26.49172466 23.27979301 27.24609375 24.4140625 C33.00433885 33.23636198 33.00433885 33.23636198 32.98828125 36.0625 C31.5894103 38.80495056 29.76000513 40.85236753 27.6875 43.125 C26.90761719 43.99382812 26.12773437 44.86265625 25.32421875 45.7578125 C22.33457249 48.64194183 20.56946051 49.96725418 16.37890625 50.0546875 C15.44949219 49.99539062 14.52007812 49.93609375 13.5625 49.875 C9.76964797 49.80429437 8.34685546 49.79766765 5 51.75 C3.22749825 53.74406447 1.60078106 55.86562525 0 58 C0 38.86 0 19.72 0 0 Z " fill="#FBFBFB" transform="translate(0,115)"/>
<path d="M0 0 C1.00232666 0.33197388 1.00232666 0.33197388 2.02490234 0.6706543 C5.71997056 0.80030581 8.50706052 0.84326824 12.02490234 -0.3293457 C15.98490234 3.6306543 19.94490234 7.5906543 24.02490234 11.6706543 C21.10865857 17.50314185 17.40394625 21.93540144 12.02490234 25.6706543 C7.54701842 26.52211905 3.52408696 26.21933535 -0.97509766 25.6706543 C-2.29509766 25.6706543 -3.61509766 25.6706543 -4.97509766 25.6706543 C-7.17691148 24.23320071 -9.17897799 22.80069699 -11.22509766 21.1706543 C-11.77939453 20.74139648 -12.33369141 20.31213867 -12.90478516 19.86987305 C-14.26823714 18.81202237 -15.62258538 17.74245648 -16.97509766 16.6706543 C-14.95208819 12.23438876 -11.99642007 9.2881407 -8.60009766 5.8581543 C-7.73384766 4.94259766 -7.73384766 4.94259766 -6.85009766 4.00854492 C-6.28548828 3.4368457 -5.72087891 2.86514648 -5.13916016 2.27612305 C-4.62820801 1.75171631 -4.11725586 1.22730957 -3.59082031 0.68701172 C-1.97509766 -0.3293457 -1.97509766 -0.3293457 0 0 Z " fill="#F9F9F9" transform="translate(69.97509765625,124.329345703125)"/>
<path d="M0 0 C0.99 0.33 1.98 0.66 3 1 C7.55806107 1.27430544 7.55806107 1.27430544 11.91015625 0.203125 C14 0 14 0 16.4375 1.9140625 C17.283125 2.80867188 18.12875 3.70328125 19 4.625 C20.2684375 5.94371094 20.2684375 5.94371094 21.5625 7.2890625 C23.81174639 9.7906282 25.93184727 12.34778562 28 15 C26.48273502 18.77611453 24.25848293 20.7694508 21.125 23.3125 C20.26132813 24.03050781 19.39765625 24.74851563 18.5078125 25.48828125 C16 27 16 27 14.05859375 26.6875 C13.37925781 26.460625 12.69992188 26.23375 12 26 C11.06027344 26.10699219 10.12054688 26.21398437 9.15234375 26.32421875 C0.81132039 27.26676452 0.81132039 27.26676452 -2.67773438 24.82666016 C-6.20968489 21.56631621 -9.14040988 17.8509911 -12 14 C-10.41332422 10.09714233 -7.86649519 7.66479018 -4.875 4.75 C-3.96492188 3.85796875 -3.05484375 2.9659375 -2.1171875 2.046875 C-1.41851562 1.37140625 -0.71984375 0.6959375 0 0 Z " fill="#F9F9F9" transform="translate(116,124)"/>
<path d="M0 0 C6.30522726 1.46598404 8.6516523 5.05739371 12.08276367 10.36694336 C14.27393541 14.01910243 16.36360203 17.71169229 18.35986328 21.47387695 C19.30220781 23.2225343 20.30791131 24.93769749 21.35498047 26.62573242 C22.6875 28.9375 22.6875 28.9375 22.6875 30.9375 C19.69449131 31.96125243 16.85720544 32.77795107 13.6875 32.9375 C10.75 30.625 10.75 30.625 8.6875 27.9375 C6.65510124 26.69617553 6.65510124 26.69617553 4 27.2265625 C-1.46094092 27.78038434 -4.9039745 28.06468578 -9.32421875 24.52734375 C-11.85260627 21.82232774 -14.05646518 18.87080288 -16.3125 15.9375 C-16.9725 15.6075 -17.6325 15.2775 -18.3125 14.9375 C-14.96283186 7.3067052 -8.80500092 -0.01068568 0 0 Z " fill="#F8F8F8" transform="translate(121.3125,24.0625)"/>
<path d="M0 0 C4.455 0.99 4.455 0.99 9 2 C7.69382812 5.47413995 6.17024069 8.58386629 4.25 11.7578125 C3.7240625 12.63050781 3.198125 13.50320312 2.65625 14.40234375 C2.1096875 15.30082031 1.563125 16.19929688 1 17.125 C0.18015625 18.48431641 0.18015625 18.48431641 -0.65625 19.87109375 C-2.72079238 23.28669695 -4.78584787 26.67877181 -7 30 C-9.05859375 30.4765625 -9.05859375 30.4765625 -11.4375 30.625 C-14.25952696 30.82026381 -16.28141293 31.09380431 -19 32 C-21.03660426 30.09797311 -23.05331336 28.18061509 -25.0625 26.25 C-25.64322266 25.71117187 -26.22394531 25.17234375 -26.82226562 24.6171875 C-28.47265625 23.015625 -28.47265625 23.015625 -31 20 C-30.4155037 14.79779496 -26.60679727 11.59446925 -23.03515625 8.07421875 C-18.61659055 5.05458118 -15.16427187 5.32894717 -9.98046875 5.94140625 C-6.35601033 6.01266035 -4.84889609 5.1826621 -2 3 C-1.34 2.01 -0.68 1.02 0 0 Z " fill="#F8F8F8" transform="translate(135,168)"/>
<path d="M0 0 C0.86625 0.886875 1.7325 1.77375 2.625 2.6875 C4.66156277 3.92591996 4.66156277 3.92591996 7.34765625 3.43359375 C16.19036639 2.61654802 16.19036639 2.61654802 20.4140625 5.76953125 C23.74510546 9.47490966 26.55337252 13.14054326 28.625 17.6875 C19.64129684 28.67820067 19.64129684 28.67820067 13.578125 30.70703125 C9.63807395 30.59758539 7.89244937 29.95702991 4.625 27.6875 C0.2981323 22.59927998 -2.92375031 16.76115962 -6.11328125 10.91992188 C-7.22736296 8.94872157 -8.41597001 7.11465836 -9.71875 5.265625 C-11.375 2.6875 -11.375 2.6875 -11.375 -0.3125 C-3.60714286 -3.125 -3.60714286 -3.125 0 0 Z " fill="#F9F9F9" transform="translate(65.375,170.3125)"/>
<path d="M0 0 C1.14052212 1.13038415 2.28608294 2.25571551 3.4375 3.375 C4.283125 4.24125 5.12875 5.1075 6 6 C3.47273651 11.81542352 -0.86512449 16.36934901 -6 20 C-9.28941378 20.56657809 -11.93767148 20.48604255 -15.23828125 20.05859375 C-18.69909381 19.98516774 -20.24798999 20.97220315 -23 23 C-23.6496875 23.8971875 -23.6496875 23.8971875 -24.3125 24.8125 C-26 26 -26 26 -27.9609375 25.7421875 C-29.99391475 25.2357265 -31.9996738 24.62305242 -34 24 C-32.04675716 17.6515249 -28.9952431 12.40133269 -25.5625 6.75 C-24.99595703 5.74453125 -24.42941406 4.7390625 -23.84570312 3.703125 C-19.53437799 -3.3388638 -19.53437799 -3.3388638 -15.20776367 -5.203125 C-7.88855629 -6.75794791 -4.83788172 -5.55995362 0 0 Z " fill="#F8F8F8" transform="translate(88,31)"/>
<path d="M0 0 C3.7806643 1.93233953 6.69646946 4.581887 9.8125 7.4375 C7.12381831 13.95795559 1.25287887 20.05894947 -4.1875 24.4375 C-7.61427704 25.75740686 -9.44942475 25.67483811 -13.1875 25.4375 C-14.1775 25.7675 -15.1675 26.0975 -16.1875 26.4375 C-20.1475 22.4775 -24.1075 18.5175 -28.1875 14.4375 C-25.39296558 8.84843117 -22.238588 4.20813012 -17.1875 0.4375 C-12.71965301 -0.36507663 -8.67627736 0.01889092 -4.1875 0.4375 C-2.1875 -0.5625 -2.1875 -0.5625 0 0 Z " fill="#F9F9F9" transform="translate(132.1875,74.5625)"/>
<path d="M0 0 C0.99 0.33 1.98 0.66 3 1 C3.89589844 0.89300781 4.79179688 0.78601563 5.71484375 0.67578125 C14.07770747 -0.26694157 14.07770747 -0.26694157 17.78027344 2.17333984 C21.57703768 5.42877271 24.82087455 9.15068054 28 13 C25.45011426 18.84006089 21.23493263 23.43295755 16 27 C11.44911317 27.78504273 8.14495147 26.96075198 4 25 C0.51662607 22.35326724 -2.23116881 19.37345352 -5 16 C-5.54914062 15.36449219 -6.09828125 14.72898437 -6.6640625 14.07421875 C-7.80425641 12.73974599 -8.90781359 11.37404096 -10 10 C-8.58768539 6.64117925 -6.96631022 4.86670953 -4.0625 2.6875 C-3.37285156 2.15511719 -2.68320312 1.62273437 -1.97265625 1.07421875 C-1.32167969 0.71972656 -0.67070313 0.36523438 0 0 Z " fill="#FAFAFA" transform="translate(66,74)"/>
<path d="M0 0 C3.80668295 1.53481294 5.8962489 3.86522081 8.5625 6.9375 C12.16935634 11.07412468 12.16935634 11.07412468 16 15 C14.125 19.75 14.125 19.75 13 22 C1.12 22 -10.76 22 -23 22 C-21.76091561 17.04366246 -19.34516722 15.57282993 -15.4375 12.6875 C-14.16145163 11.7178658 -12.8867064 10.74651423 -11.61328125 9.7734375 C-10.99404785 9.30260742 -10.37481445 8.83177734 -9.73681641 8.34667969 C-6.35367473 5.72348466 -3.16493121 2.87989082 0 0 Z " fill="#FAFAFA" transform="translate(49,87)"/>
<path d="M0 0 C4.00126761 2.5931969 7.71021468 5.31205625 11.375 8.375 C15.82210177 12.05556987 20.3394084 15.59469669 25 19 C24.505 20.485 24.505 20.485 24 22 C19.07048719 22.12357051 14.14187468 22.21432177 9.21118164 22.2746582 C7.53393859 22.29980792 5.8568052 22.33393259 4.17993164 22.37719727 C1.76941915 22.4378346 -0.63964552 22.46620284 -3.05078125 22.48828125 C-4.17592888 22.52699089 -4.17592888 22.52699089 -5.32380676 22.56648254 C-7.4465332 22.56762695 -7.4465332 22.56762695 -11 22 C-13.12182617 19.71948242 -13.12182617 19.71948242 -14 17 C-13.09885095 14.01092387 -11.29511072 12.01607524 -9.1796875 9.765625 C-8.64472656 9.19199219 -8.10976562 8.61835937 -7.55859375 8.02734375 C-7.00300781 7.44082031 -6.44742188 6.85429688 -5.875 6.25 C-5.31167969 5.64800781 -4.74835938 5.04601562 -4.16796875 4.42578125 C-2.78275854 2.94665849 -1.3919271 1.47280359 0 0 Z " fill="#FBFBFB" transform="translate(147,87)"/>
<path d="M0 0 C11.88 0 23.76 0 36 0 C37 5 37 5 35.93603516 6.72924805 C35.39253418 7.23496338 34.8490332 7.74067871 34.2890625 8.26171875 C33.70382813 8.82310547 33.11859375 9.38449219 32.515625 9.96289062 C31.89171875 10.53201172 31.2678125 11.10113281 30.625 11.6875 C29.40707568 12.83535545 28.1908465 13.98501298 26.9765625 15.13671875 C26.43080566 15.63905029 25.88504883 16.14138184 25.32275391 16.65893555 C23.87869332 17.98453053 23.87869332 17.98453053 23 20 C18.84370094 18.23797795 15.55523802 15.42213477 12.0625 12.625 C11.45470703 12.14289063 10.84691406 11.66078125 10.22070312 11.1640625 C9.03074069 10.2192811 7.84394434 9.27049564 6.66064453 8.31738281 C5.1537131 7.12194 3.60796112 5.97584391 2.05859375 4.8359375 C1.37925781 4.23007813 0.69992188 3.62421875 0 3 C0 2.01 0 1.02 0 0 Z " fill="#FBFBFB" transform="translate(26,116)"/>
<path d="M0 0 C11.55 0 23.1 0 35 0 C35.495 1.485 35.495 1.485 36 3 C35.40574219 3.47308594 34.81148437 3.94617188 34.19921875 4.43359375 C27.75785587 9.57265931 21.36781641 14.77015839 15 20 C11.69346646 18.58911589 9.8452183 16.94468631 7.5625 14.1875 C5.48522156 11.70194437 3.43636448 9.4434706 1 7.3125 C0.01 6.1678125 0.01 6.1678125 -1 5 C-0.67 3.35 -0.34 1.7 0 0 Z " fill="#FBFBFB" transform="translate(136,116)"/>
<path d="M0 0 C-1.42774665 2.94174427 -2.99874497 5.75040886 -4.6796875 8.5546875 C-5.19660156 9.41707031 -5.71351562 10.27945313 -6.24609375 11.16796875 C-6.78363281 12.06128906 -7.32117188 12.95460938 -7.875 13.875 C-8.66970703 15.20337891 -8.66970703 15.20337891 -9.48046875 16.55859375 C-9.99996094 17.42355469 -10.51945312 18.28851563 -11.0546875 19.1796875 C-11.52374512 19.96069824 -11.99280273 20.74170898 -12.47607422 21.54638672 C-14.25208056 24.40586505 -16.13280837 27.19921256 -18 30 C-24.27 28.68 -30.54 27.36 -37 26 C-37.33 24.35 -37.66 22.7 -38 21 C-37.4423999 20.68361572 -36.8847998 20.36723145 -36.31030273 20.04125977 C-33.6849719 18.5502013 -31.06100284 17.05677255 -28.4375 15.5625 C-27.48834717 15.02206055 -26.53919434 14.48162109 -25.5612793 13.92480469 C-19.12615729 10.24821185 -12.74396762 6.49786912 -6.44506836 2.59204102 C-2.21218849 0 -2.21218849 0 0 0 Z " fill="#F6F6F6" transform="translate(65,23)"/>
<path d="M0 0 C1.94897932 2.52798644 3.60346872 5.16468871 5.265625 7.890625 C5.61651688 8.46347733 5.96740875 9.03632965 6.32893372 9.62654114 C7.44330993 11.44785632 8.55179678 13.27267468 9.66015625 15.09765625 C10.41693121 16.33682466 11.1740885 17.57575967 11.93164062 18.81445312 C13.78308191 21.84366328 15.62926003 24.87604197 17.47265625 27.91015625 C13.66189501 27.91015625 11.87564196 26.66585966 8.5546875 24.8046875 C7.69057503 24.32306404 7.69057503 24.32306404 6.80900574 23.83171082 C5.58772232 23.1494846 4.36814022 22.4642052 3.15014648 21.77612305 C1.31262071 20.73816995 -0.52961756 19.70906501 -2.37304688 18.68164062 C-8.52437327 15.24129098 -14.59392012 11.71552757 -20.52734375 7.91015625 C-20.19734375 6.26015625 -19.86734375 4.61015625 -19.52734375 2.91015625 C-16.59382797 2.1595829 -13.65781725 1.43426769 -10.71484375 0.72265625 C-9.46477539 0.3987793 -9.46477539 0.3987793 -8.18945312 0.06835938 C-7.38701172 -0.12177734 -6.58457031 -0.31191406 -5.7578125 -0.5078125 C-5.01942139 -0.69110107 -4.28103027 -0.87438965 -3.52026367 -1.06323242 C-1.52734375 -1.08984375 -1.52734375 -1.08984375 0 0 Z " fill="#F6F6F6" transform="translate(47.52734375,173.08984375)"/>
<path d="M0 0 C3.57461007 1.35175341 6.84573063 2.94230685 10.16796875 4.828125 C11.14443359 5.38113281 12.12089844 5.93414062 13.12695312 6.50390625 C14.64192383 7.36822266 14.64192383 7.36822266 16.1875 8.25 C17.17814453 8.81074219 18.16878906 9.37148438 19.18945312 9.94921875 C21.16348512 11.07021003 23.13345075 12.19839471 25.09912109 13.33398438 C27.04305444 14.45041268 28.9994662 15.5453727 30.96728516 16.61914062 C32.33892822 17.38774414 32.33892822 17.38774414 33.73828125 18.171875 C34.55981689 18.62143555 35.38135254 19.07099609 36.2277832 19.53417969 C36.81261475 20.01790039 37.39744629 20.50162109 38 21 C38 22.32 38 23.64 38 25 C31.4 26.65 24.8 28.3 18 30 C17.20335937 28.73285156 16.40671875 27.46570313 15.5859375 26.16015625 C14.51568681 24.46089857 13.44537081 22.76168202 12.375 21.0625 C11.59189453 19.81629883 11.59189453 19.81629883 10.79296875 18.54492188 C7.65294131 13.56352032 4.44032202 8.65217862 1.08837891 3.81030273 C0 2 0 2 0 0 Z " fill="#F6F6F6" transform="translate(133,23)"/>
<path d="M0 0 C2.81892184 0.56378437 5.58626644 1.18693012 8.375 1.875 C9.15617187 2.06191406 9.93734375 2.24882812 10.7421875 2.44140625 C13.87908668 3.19877403 16.93611365 3.97870455 20 5 C19.78051758 7.32080078 19.78051758 7.32080078 19 10 C17.05737305 11.55810547 17.05737305 11.55810547 14.51171875 12.8671875 C13.58262695 13.35735352 12.65353516 13.84751953 11.69628906 14.35253906 C10.70338867 14.85495117 9.71048828 15.35736328 8.6875 15.875 C6.67504328 16.9282787 4.66331881 17.9829577 2.65234375 19.0390625 C1.67894043 19.54469727 0.70553711 20.05033203 -0.29736328 20.57128906 C-4.61387175 22.85315063 -8.77961918 25.35757233 -12.953125 27.890625 C-15 29 -15 29 -17 29 C-15.60615678 25.23479098 -13.87148227 21.93803551 -11.77734375 18.515625 C-10.84631836 16.99001953 -10.84631836 16.99001953 -9.89648438 15.43359375 C-8.92678711 13.85771484 -8.92678711 13.85771484 -7.9375 12.25 C-7.28716797 11.18394531 -6.63683594 10.11789063 -5.96679688 9.01953125 C-1.14959206 1.14959206 -1.14959206 1.14959206 0 0 Z " fill="#F7F7F7" transform="translate(151,172)"/>
<path d="M0 0 C14.52 0 29.04 0 44 0 C42.02 0.99 42.02 0.99 40 2 C37.25689854 4.54716565 35.07906656 6.88140016 33 10 C29.41968672 10.71470132 25.76828106 10.55555601 22.125 10.5625 C20.61486328 10.61760742 20.61486328 10.61760742 19.07421875 10.67382812 C16.25312634 10.69068724 13.75153208 10.62888889 11 10 C8.5390625 7.08203125 8.5390625 7.08203125 7 4 C5.16775053 2.70754973 5.16775053 2.70754973 3.25 2.125 C1.64125 1.568125 1.64125 1.568125 0 1 C0 0.67 0 0.34 0 0 Z " fill="#FAFAFA" transform="translate(77,0)"/>
<path d="M0 0 C3.58031328 -0.71470132 7.23171894 -0.55555601 10.875 -0.5625 C12.38513672 -0.61760742 12.38513672 -0.61760742 13.92578125 -0.67382812 C16.74353004 -0.69066726 19.25011797 -0.62007144 22 0 C24.3828125 2.78515625 24.3828125 2.78515625 26 6 C28.475 7.98 28.475 7.98 31 10 C17.14 10 3.28 10 -11 10 C-9.68 9.34 -8.36 8.68 -7 8 C-4.25689854 5.45283435 -2.07906656 3.11859984 0 0 Z " fill="#FBFBFB" transform="translate(88,215)"/>
<path d="M0 0 C3.76203984 1.54805777 6.06305554 3.84985145 8.8125 6.8125 C9.62332031 7.66457031 10.43414062 8.51664063 11.26953125 9.39453125 C13 12 13 12 12 17 C4.74 17 -2.52 17 -10 17 C-10.33 15.02 -10.66 13.04 -11 11 C-9.22484383 8.69920536 -7.6941573 7.02209767 -5.5625 5.125 C-5.03333984 4.62742188 -4.50417969 4.12984375 -3.95898438 3.6171875 C-2.65454308 2.39500826 -1.32919454 1.19521173 0 0 Z " fill="#F3F3F3" transform="translate(98,142)"/>
<path d="M0 0 C0.91644287 0.00523682 1.83288574 0.01047363 2.77709961 0.01586914 C3.76645508 0.0190918 4.75581055 0.02231445 5.77514648 0.02563477 C6.81606445 0.03401367 7.85698242 0.04239258 8.92944336 0.05102539 C10.49662109 0.05779297 10.49662109 0.05779297 12.09545898 0.06469727 C14.68600996 0.07652627 17.27644895 0.0930085 19.86694336 0.11352539 C20.44775391 2.49829102 20.44775391 2.49829102 20.86694336 5.11352539 C19.57397461 6.95727539 19.57397461 6.95727539 17.67944336 8.61352539 C14.76807114 11.2745196 12.2572167 13.95836458 9.86694336 17.11352539 C4.87598088 14.91525877 1.27841598 11.31166179 -2.13305664 7.11352539 C-3.19555664 3.67602539 -3.19555664 3.67602539 -3.13305664 1.11352539 C-2.13305664 0.11352539 -2.13305664 0.11352539 0 0 Z " fill="#F3F3F3" transform="translate(90.133056640625,65.886474609375)"/>
<path d="M0 0 C2.35535839 1.97850105 4.6848257 3.97537546 7 6 C7.60585937 6.51433594 8.21171875 7.02867188 8.8359375 7.55859375 C10.5 9.0625 10.5 9.0625 13 12 C12.67 13.65 12.34 15.3 12 17 C4.74 17 -2.52 17 -10 17 C-10.66 15.35 -11.32 13.7 -12 12 C-8.04 8.04 -4.08 4.08 0 0 Z " fill="#F8F8F8" transform="translate(98,43)"/>
<path d="M0 0 C7.26 0 14.52 0 22 0 C22.33 1.65 22.66 3.3 23 5 C20.9453125 7.60546875 20.9453125 7.60546875 18.125 10.1875 C14.60317102 13.24470085 14.60317102 13.24470085 12 17 C8.23796016 15.45194223 5.93694446 13.15014855 3.1875 10.1875 C2.37667969 9.33542969 1.56585938 8.48335937 0.73046875 7.60546875 C-1 5 -1 5 0 0 Z " fill="#F8F8F8" transform="translate(88,165)"/>
<path d="M0 0 C7.26 0 14.52 0 22 0 C22.33 1.65 22.66 3.3 23 5 C21.23526782 7.21263375 19.63273028 8.93752723 17.5625 10.8125 C17.03333984 11.31458984 16.50417969 11.81667969 15.95898438 12.33398438 C14.65239036 13.56995168 13.32783937 14.78688595 12 16 C8.09714233 14.41332422 5.66479018 11.86649519 2.75 8.875 C1.85796875 7.96492188 0.9659375 7.05484375 0.046875 6.1171875 C-0.96632813 5.06917969 -0.96632813 5.06917969 -2 4 C-1.34 2.68 -0.68 1.36 0 0 Z " fill="#FAFAFA" transform="translate(88,116)"/>
<path d="M0 0 C3.70226429 1.85113215 5.86992385 3.48401404 8.8125 6.3125 C9.62332031 7.07175781 10.43414062 7.83101562 11.26953125 8.61328125 C11.84058594 9.40089844 12.41164063 10.18851563 13 11 C12.67 12.65 12.34 14.3 12 16 C4.74 16 -2.52 16 -10 16 C-10.66 14.68 -11.32 13.36 -12 12 C-8.04 8.04 -4.08 4.08 0 0 Z " fill="#FBFBFB" transform="translate(98,192)"/>
<path d="M0 0 C3.70226429 1.85113215 5.86992385 3.48401404 8.8125 6.3125 C9.62332031 7.07175781 10.43414062 7.83101563 11.26953125 8.61328125 C11.84058594 9.40089844 12.41164063 10.18851563 13 11 C12.67 12.65 12.34 14.3 12 16 C4.74 16 -2.52 16 -10 16 C-10.66 14.68 -11.32 13.36 -12 12 C-8.04 8.04 -4.08 4.08 0 0 Z " fill="#FAFAFA" transform="translate(98,93)"/>
<path d="M0 0 C3.36591866 1.44253657 5.51047079 3.33264727 8 6 C6.07199089 11.26926762 3.16673064 15.38758798 0 20 C-3.96 19.01 -7.92 18.02 -12 17 C-12.33984375 13.8046875 -12.33984375 13.8046875 -12 10 C-9.62890625 7.3828125 -9.62890625 7.3828125 -6.5625 5.125 C-5.55316406 4.36445313 -4.54382813 3.60390625 -3.50390625 2.8203125 C-2.67761719 2.21960938 -1.85132813 1.61890625 -1 1 C-0.67 0.67 -0.34 0.34 0 0 Z " fill="#F3F3F3" transform="translate(148,145)"/>
<path d="M0 0 C2.24658203 -0.34057617 2.24658203 -0.34057617 5.0078125 -0.29296875 C5.99394531 -0.28330078 6.98007813 -0.27363281 7.99609375 -0.26367188 C9.02863281 -0.23853516 10.06117187 -0.21339844 11.125 -0.1875 C12.68541016 -0.16719727 12.68541016 -0.16719727 14.27734375 -0.14648438 C16.85207627 -0.11105228 19.4257833 -0.06165221 22 0 C22.65795898 1.81152344 22.65795898 1.81152344 23 4 C21.08065216 6.29016466 19.23652142 8.23281698 17.0625 10.25 C16.1972168 11.08144531 16.1972168 11.08144531 15.31445312 11.9296875 C13.88722271 13.29794145 12.44497942 14.6505038 11 16 C6.1408507 12.02896734 1.94628584 7.8858777 -2 3 C-1.34 2.01 -0.68 1.02 0 0 Z " fill="#FBFBFB" transform="translate(88,17)"/>
<path d="M0 0 C5.07648175 2.78387709 9.4833069 6.40829416 14 10 C13.67 12.31 13.34 14.62 13 17 C8.83069913 18.58830509 5.46020012 19.5732905 1 19 C-1.1875 16.734375 -1.1875 16.734375 -3 13.75 C-3.61875 12.77546875 -4.2375 11.8009375 -4.875 10.796875 C-6 8 -6 8 -5.3203125 5.78125 C-3.72871259 3.63400279 -1.95203668 1.8219009 0 0 Z " fill="#F6F6F6" transform="translate(48,145)"/>
<path d="M0 0 C3.01404027 2.14087409 4.60499048 4.82705041 5.8203125 8.29296875 C5.05941496 12.38279302 2.85815259 14.55891267 -0.1796875 17.29296875 C-3.4623807 15.80220441 -6.11046191 13.90676554 -8.9296875 11.66796875 C-9.72890625 11.03632812 -10.528125 10.4046875 -11.3515625 9.75390625 C-11.95484375 9.27179688 -12.558125 8.7896875 -13.1796875 8.29296875 C-12.8496875 6.31296875 -12.5196875 4.33296875 -12.1796875 2.29296875 C-10.60266768 1.73318691 -9.01769508 1.19577474 -7.4296875 0.66796875 C-6.10710937 0.21550781 -6.10710937 0.21550781 -4.7578125 -0.24609375 C-2.1796875 -0.70703125 -2.1796875 -0.70703125 0 0 Z " fill="#F2F2F2" transform="translate(148.1796875,60.70703125)"/>
<path d="M0 0 C1.79258558 0.08693141 3.58415144 0.19510504 5.375 0.3125 C6.87160156 0.39951172 6.87160156 0.39951172 8.3984375 0.48828125 C9.25695313 0.65714844 10.11546875 0.82601562 11 1 C13.1670328 4.2505492 13.63926695 5.22718346 13 9 C10.8125 11.23828125 10.8125 11.23828125 8 13.3125 C7.071875 14.00988281 6.14375 14.70726563 5.1875 15.42578125 C4.1046875 16.20501953 4.1046875 16.20501953 3 17 C-0.3273092 15.40989645 -2.71151623 13.96655303 -5 11 C-5 6.52707913 -2.54509888 3.53029845 0 0 Z " fill="#F5F5F5" transform="translate(49,61)"/>
<path d="M0 0 C0.66 0.99 1.32 1.98 2 3 C3.88559783 3.89474372 3.88559783 3.89474372 6 4.5 C9.45281194 5.56630957 9.8545093 5.78176395 12 9 C11.78087649 15.13545817 11.78087649 15.13545817 9.25 17.9375 C6.50508782 19.23370853 4.99925788 19.52487013 2 19 C-0.25 17.5 -0.25 17.5 -2 15 C-2.36328125 13.0234375 -2.36328125 13.0234375 -2.5625 10.875 C-2.706875 9.59625 -2.85125 8.3175 -3 7 C-3.99 6.34 -4.98 5.68 -6 5 C-4.02 4.34 -2.04 3.68 0 3 C0 2.01 0 1.02 0 0 Z " fill="#C1E5F3" transform="translate(70,2)"/>
<path d="M0 0 C1.8125 1.125 1.8125 1.125 3 3 C3.165 4.175625 3.33 5.35125 3.5 6.5625 C3.665 7.696875 3.83 8.83125 4 10 C4.99 10.66 5.98 11.32 7 12 C2.375 15 2.375 15 -1 15 C-2.97265625 14.44921875 -2.97265625 14.44921875 -5.0625 13.6875 C-5.75472656 13.44386719 -6.44695312 13.20023438 -7.16015625 12.94921875 C-9 12 -9 12 -11 9 C-10.86714936 5.28018216 -10.75057131 2.889566 -8.3125 0 C-5.12832007 -1.37694267 -3.29075199 -0.980224 0 0 Z " fill="#F3C858" transform="translate(127,205)"/>
<path d="M0 0 C1.875 1.125 1.875 1.125 3 3 C3.5 6.4375 3.5 6.4375 3 10 C0.875 12.5 0.875 12.5 -2 14 C-5.50732933 14 -7.2434698 13.6345092 -9.9375 11.375 C-11.49800943 7.88680246 -10.99154664 5.63567102 -10 2 C-6.93558602 -1.63189805 -4.37003477 -1.30171248 0 0 Z " fill="#F0C656" transform="translate(127,106)"/>
<path d="M0 0 C2.4375 1.5625 2.4375 1.5625 4 4 C3.93866496 7.4960972 3.65265114 9.93514814 1.8125 12.9375 C-0.92243127 14.54073557 -2.8903393 14.38077478 -6 14 C-8.375 13 -8.375 13 -10 11 C-10.56641498 8.22572253 -10.56641498 5.77427747 -10 3 C-7.21052771 -0.43319666 -4.246332 -0.61925675 0 0 Z " fill="#F27A81" transform="translate(17,170)"/>
<path d="M0 0 C2.4375 2.125 2.4375 2.125 4 5 C3.936318 8.18409977 3.51040601 10.14932332 1.875 12.875 C-1.12446786 14.67468071 -3.59386668 14.36494286 -7 14 C-8.9375 13 -8.9375 13 -10 11 C-10.45982357 8.24105859 -10.51068558 5.75425931 -10 3 C-7.2230264 -0.41781366 -4.23025355 -0.70504226 0 0 Z " fill="#F17A81" transform="translate(17,41)"/>
<path d="M0 0 C2.375 1.625 2.375 1.625 4 4 C4.61195145 7.6717087 4.48706506 9.28813568 2.375 12.375 C-0.71186432 14.48706506 -2.3282913 14.61195145 -6 14 C-8.375 12.375 -8.375 12.375 -10 10 C-10.61195145 6.3282913 -10.48706506 4.71186432 -8.375 1.625 C-5.28813568 -0.48706506 -3.6717087 -0.61195145 0 0 Z " fill="#C0E6F4" transform="translate(78,56)"/>
<path d="M0 0 C2.375 1.625 2.375 1.625 4 4 C4.61195145 7.6717087 4.48706506 9.28813568 2.375 12.375 C-0.71186432 14.48706506 -2.3282913 14.61195145 -6 14 C-8.375 12.375 -8.375 12.375 -10 10 C-10.61195145 6.3282913 -10.48706506 4.71186432 -8.375 1.625 C-5.28813568 -0.48706506 -3.6717087 -0.61195145 0 0 Z " fill="#6BCF9D" transform="translate(187,41)"/>
<path d="M0 0 C3.4375 1 3.4375 1 5.375 2.75 C6.67120853 5.49491218 6.96237013 7.00074212 6.4375 10 C4.875 12.3125 4.875 12.3125 2.4375 14 C-1.02480815 14.42519574 -3.3972167 14.63902633 -6.5 12.9375 C-8.20152633 9.8347167 -7.98769574 7.46230815 -7.5625 4 C-5.30132583 0.38212133 -4.292718 0 0 0 Z " fill="#C0E6F4" transform="translate(75.5625,204)"/>
<path d="M0 0 C2.375 1.625 2.375 1.625 4 4 C4.61195145 7.6717087 4.48706506 9.28813568 2.375 12.375 C0 14 0 14 -3 14.5625 C-6 14 -6 14 -8.375 11.8125 C-10.14232156 8.75367423 -10.70698088 7.44653179 -10 4 C-7.16979976 -0.02759265 -4.82432618 -0.80405436 0 0 Z " fill="#6BD09D" transform="translate(187,170)"/>
<path d="M0 0 C1.875 1.125 1.875 1.125 3 3 C3.36248449 6.38318857 3.58433618 8.86784865 2 11.9375 C-1.24517189 13.66149757 -4.41991613 13.65498416 -8 13 C-10.0625 11.4375 -10.0625 11.4375 -11 9 C-10.93375803 5.22420799 -10.78061285 2.92517078 -8.3125 0 C-5.12832007 -1.37694267 -3.29075199 -0.980224 0 0 Z " fill="#6BCF9D" transform="translate(188,106)"/>
<path d="M0 0 C2.375 1.625 2.375 1.625 4 4 C4.61195145 7.6717087 4.48706506 9.28813568 2.375 12.375 C-0.71186432 14.48706506 -2.3282913 14.61195145 -6 14 C-8.375 12.375 -8.375 12.375 -10 10 C-10.61195145 6.3282913 -10.48706506 4.71186432 -8.375 1.625 C-5.28813568 -0.48706506 -3.6717087 -0.61195145 0 0 Z " fill="#F6CA58" transform="translate(126,56)"/>
<path d="M0 0 C1.9375 1.0625 1.9375 1.0625 3 3 C3.5 6.4375 3.5 6.4375 3 10 C0.875 12.5 0.875 12.5 -2 14 C-5.50732933 14 -7.2434698 13.6345092 -9.9375 11.375 C-11.48100034 7.92482276 -10.93333407 5.60000284 -10 2 C-6.30513897 -0.46324069 -4.36706908 -0.38991688 0 0 Z " fill="#F5CA58" transform="translate(127,7)"/>
<path d="M0 0 C2.4375 1.5625 2.4375 1.5625 4 4 C4 7.77684879 3.78395245 10.03513544 1.375 13 C-2.07663304 14.45331917 -4.42809484 13.92604949 -8 13 C-10.32749345 9.50875983 -10.50299316 8.10777749 -10 4 C-7.21921757 -0.06422047 -4.81255755 -0.80209293 0 0 Z " fill="#C1E7F5" transform="translate(78,155)"/>
<path d="M0 0 C2.375 1.625 2.375 1.625 4 4 C4.61195145 7.6717087 4.48706506 9.28813568 2.375 12.375 C-0.71186432 14.48706506 -2.3282913 14.61195145 -6 14 C-8.4375 12.4375 -8.4375 12.4375 -10 10 C-9.93866496 6.5039028 -9.65265114 4.06485186 -7.8125 1.0625 C-5.04411529 -0.56034621 -3.14454533 -0.44922076 0 0 Z " fill="#F6CA58" transform="translate(126,155)"/>
<path d="M0 0 C2.5 1.5625 2.5 1.5625 4 4 C3.78571429 10.21428571 3.78571429 10.21428571 1 13 C-5.96019496 13.55239643 -5.96019496 13.55239643 -9 11.9375 C-10.58433618 8.86784865 -10.36248449 6.38318857 -10 3 C-7.7773391 -1.05308751 -4.20075589 -0.5158823 0 0 Z " fill="#C2E8F6" transform="translate(78,106)"/>
<path d="M0 0 C2.8520847 1.97452017 3.81895125 3.09475625 4.5 6.5 C3.81895125 9.90524375 2.8520847 11.02547983 0 13 C-3.46230815 13.42519574 -5.8347167 13.63902633 -8.9375 11.9375 C-10.6140629 8.88023824 -10.36528977 6.4093712 -10 3 C-7.7773391 -1.05308751 -4.20075589 -0.5158823 0 0 Z " fill="#F67C83" transform="translate(17,106)"/>
<path d="M0 0 C4.554787 3.80014774 8.95279259 7.65665546 13 12 C13 12.66 13 13.32 13 14 C4.09 12.02 4.09 12.02 -5 10 C-3.51799926 6.29499816 -2.091496 3.32738 0 0 Z " fill="#EDEDED" transform="translate(160,157)"/>
<path d="M0 0 C0.66 0 1.32 0 2 0 C3.2890625 1.6796875 3.2890625 1.6796875 4.625 3.875 C5.07101563 4.59429687 5.51703125 5.31359375 5.9765625 6.0546875 C7 8 7 8 7 10 C1.06 11.32 -4.88 12.64 -11 14 C-9.16944828 10.33889657 -7.81645033 8.62332645 -4.9375 5.875 C-2.08428067 3.22095 -2.08428067 3.22095 0 0 Z " fill="#F1F1F1" transform="translate(36,157)"/>
<path d="M0 0 C4.5 2.25 4.5 2.25 6 6 C0.74557475 10.76636599 -4.50216911 15.51492743 -10 20 C-10.66 19.67 -11.32 19.34 -12 19 C-8.04 12.73 -4.08 6.46 0 0 Z " fill="#EEEEEE" transform="translate(39,77)"/>
<path d="M0 0 C1.32861328 1.74414062 1.32861328 1.74414062 2.8203125 4.15625 C3.35527344 5.01347656 3.89023438 5.87070313 4.44140625 6.75390625 C4.99699219 7.66011719 5.55257812 8.56632812 6.125 9.5 C6.68832031 10.40621094 7.25164062 11.31242187 7.83203125 12.24609375 C9.22779683 14.49351291 10.61674298 16.74486806 12 19 C8.56223405 19 8.1876286 18.61645115 5.71484375 16.4453125 C5.10189453 15.91292969 4.48894531 15.38054687 3.85742188 14.83203125 C3.22384766 14.26871094 2.59027344 13.70539063 1.9375 13.125 C1.30005859 12.56941406 0.66261719 12.01382813 0.00585938 11.44140625 C-2.39123933 9.3448921 -4.74760886 7.25239114 -7 5 C-2.25 0 -2.25 0 0 0 Z " fill="#EFEFEF" transform="translate(159,77)"/>
<path d="M0 0 C3.95969176 1.67229701 7.0161201 4.36304994 10.25 7.125 C10.80429687 7.59292969 11.35859375 8.06085938 11.9296875 8.54296875 C13.28947326 9.69175328 14.64515165 10.84539653 16 12 C14.63016497 15.16115776 14.0109362 15.9927092 11 18 C9.1630042 15.18987611 7.33102376 12.37651809 5.5 9.5625 C4.97535156 8.76005859 4.45070313 7.95761719 3.91015625 7.13085938 C3.41386719 6.36708984 2.91757812 5.60332031 2.40625 4.81640625 C1.94541016 4.10943604 1.48457031 3.40246582 1.00976562 2.67407227 C0 1 0 1 0 0 Z " fill="#EAEAEA" transform="translate(27,128)"/>
<path d="M0 0 C0.66 0.33 1.32 0.66 2 1 C-3.445 9.415 -3.445 9.415 -9 18 C-10.65 16.68 -12.3 15.36 -14 14 C-12.44878481 9.9408321 -9.79818814 7.96336874 -6.4375 5.3125 C-5.44621094 4.52488281 -4.45492187 3.73726562 -3.43359375 2.92578125 C-2.22896484 1.97251953 -2.22896484 1.97251953 -1 1 C-0.67 0.67 -0.34 0.34 0 0 Z " fill="#ECECEC" transform="translate(169,128)"/>
<path d="M0 0 C-1.45217676 1.50596108 -2.91192861 3.00462104 -4.375 4.5 C-5.18710938 5.3353125 -5.99921875 6.170625 -6.8359375 7.03125 C-9 9 -9 9 -11 9 C-14 4.61538462 -14 4.61538462 -14 2 C-12.04396149 1.47061343 -10.08507711 0.95173199 -8.125 0.4375 C-7.03445312 0.14746094 -5.94390625 -0.14257812 -4.8203125 -0.44140625 C-2 -1 -2 -1 0 0 Z " fill="#E4E4E4" transform="translate(169,56)"/>
<path d="M0 0 C1.41702513 0.14230808 2.8336096 0.28900746 4.25 0.4375 C5.43335938 0.55931641 5.43335938 0.55931641 6.640625 0.68359375 C8.82364639 0.97634993 10.8773182 1.42064419 13 2 C11.125 6.75 11.125 6.75 10 9 C6.78956118 7.61811547 4.95063635 6.07578097 2.75 3.375 C2.22921875 2.74335937 1.7084375 2.11171875 1.171875 1.4609375 C0.78515625 0.97882812 0.3984375 0.49671875 0 0 Z " fill="#EEEEEE" transform="translate(30,56)"/>
</svg>
