<svg version="1.1" id="Layer_1" xmlns="http://www.w3.org/2000/svg" xmlns:xlink="http://www.w3.org/1999/xlink" x="0px" y="0px"
	 width="100%" viewBox="0 0 225 225" enable-background="new 0 0 225 225" xml:space="preserve">
<path fill="#070707" opacity="1.000000" stroke="none" 
	d="
M121.000000,1.000003 
	C123.041664,1.000000 125.083336,1.000000 127.584808,1.357852 
	C135.122238,4.710245 137.400131,8.246788 137.596909,15.798969 
	C137.630829,17.100374 138.533249,18.952034 139.600296,19.565775 
	C151.371613,26.336365 163.254883,32.912304 175.033356,39.499317 
	C184.889511,32.914921 191.983566,34.414886 197.976196,44.113419 
	C198.462357,44.900219 199.568329,45.764095 200.413467,45.792824 
	C205.163101,45.954281 209.921066,45.870667 214.953705,45.870667 
	C214.633163,45.042229 214.356506,44.624241 214.322342,44.187290 
	C214.177277,42.331875 214.104111,40.470840 214.004684,38.611858 
	C215.727615,39.039738 217.832016,38.989586 219.093246,39.996044 
	C221.638046,42.026756 223.724503,44.631828 226.000000,47.000000 
	C226.000000,48.066654 226.000000,49.133312 225.686798,50.726265 
	C223.167053,53.723557 221.161972,56.432373 218.658569,58.552914 
	C217.601379,59.448410 215.494766,59.104977 213.865158,59.324699 
	C213.823929,57.710632 213.666809,56.087200 213.796158,54.486919 
	C213.851074,53.807693 214.506775,53.177032 215.019150,52.303032 
	C209.300293,52.303032 204.005402,52.303032 198.774734,52.303032 
	C193.351273,62.996876 186.591934,65.133751 175.850006,59.436462 
	C171.817902,63.681862 167.732513,67.983337 163.625595,72.307495 
	C168.941818,80.958427 173.964935,89.357239 179.289459,97.560417 
	C180.111191,98.826385 182.317581,99.862251 183.882004,99.860069 
	C190.165909,99.851303 194.665741,102.361717 197.662552,107.907089 
	C198.212784,108.925240 199.709717,109.991158 200.821014,110.049034 
	C205.420517,110.288597 210.039749,110.149536 213.810104,110.149536 
	C213.810104,107.616173 212.901947,104.523529 213.988251,103.451050 
	C216.737961,100.736343 218.566345,103.959122 220.421967,105.682396 
	C222.304169,107.430321 224.142471,109.225510 226.000000,111.000000 
	C226.000000,112.388893 226.000000,113.777779 225.650940,115.558746 
	C222.919907,118.495972 220.684357,121.209045 218.070587,123.488434 
	C217.239212,124.213463 214.990738,124.346848 214.140778,123.725281 
	C213.298416,123.109268 213.114899,121.184196 213.188873,119.863892 
	C213.239883,118.953491 214.221268,118.095222 214.904160,117.030830 
	C209.184982,117.030830 203.869629,117.030830 198.525208,117.030830 
	C195.685226,124.073357 190.732697,127.599983 183.041428,127.015617 
	C182.014862,126.937630 180.444626,127.632599 179.908951,128.470215 
	C174.918488,136.273636 170.099350,144.186615 165.181732,152.146866 
	C169.115784,156.265579 172.675140,160.237289 176.546753,163.876877 
	C177.543472,164.813843 179.640594,165.272263 181.031128,164.983200 
	C188.613525,163.407043 193.667328,165.645950 197.740234,172.520370 
	C198.344742,173.540695 199.751389,174.660660 200.840988,174.718658 
	C205.430099,174.962906 210.039719,174.821960 214.904465,174.821960 
	C214.606186,173.995361 214.344238,173.568619 214.310822,173.124695 
	C214.171249,171.270187 214.100327,169.410507 214.004227,167.552734 
	C215.845306,168.102005 218.039124,168.199585 219.449219,169.300751 
	C221.888870,171.205948 223.842499,173.733505 226.000000,176.000000 
	C226.000000,177.066650 226.000000,178.133316 225.675385,179.698975 
	C223.142181,182.664505 221.133469,185.367294 218.629898,187.485092 
	C217.580414,188.372879 215.482315,188.021057 213.860962,188.232819 
	C213.824768,186.618240 213.672394,184.993835 213.807709,183.393753 
	C213.864395,182.723190 214.530975,182.104202 215.053131,181.242523 
	C209.331039,181.242523 204.040054,181.242523 198.810226,181.242523 
	C193.402161,191.904526 186.712784,193.997040 176.621780,188.547424 
	C175.578033,187.983749 173.563370,188.394012 172.378647,189.043991 
	C161.635162,194.938202 150.999619,201.028885 140.271988,206.952515 
	C138.201187,208.095932 136.951584,209.102768 137.433960,211.867416 
	C137.961029,214.888153 137.225082,217.661392 132.776489,217.216751 
	C131.969833,215.478302 131.210449,213.992050 131.092789,212.456619 
	C130.755753,208.057968 128.223953,205.556091 124.172356,205.308090 
	C120.467712,205.081329 117.957817,207.496246 117.132263,211.169205 
	C116.320602,214.780350 118.820740,218.064697 122.845802,219.274948 
	C124.681625,219.826935 126.420631,220.700912 128.179306,221.786255 
	C127.770035,223.429123 127.385010,224.714554 127.000000,226.000000 
	C125.285866,226.000000 123.571724,226.000000 121.263077,225.689392 
	C118.331833,223.896942 114.735313,222.920441 113.899399,220.836578 
	C111.580879,215.056686 107.267548,215.491730 102.627953,215.648727 
	C98.983131,215.772049 95.324738,215.556290 91.685478,215.744598 
	C90.564957,215.802567 89.295807,216.477676 88.424828,217.244934 
	C85.208412,220.078384 82.130180,223.068680 79.000000,226.000000 
	C76.958336,226.000000 74.916664,226.000000 72.382416,225.648773 
	C64.897766,222.423187 62.219269,218.262726 62.116817,210.843094 
	C62.099991,209.624680 61.009727,207.920807 59.923561,207.294373 
	C48.320026,200.602234 36.617310,194.082047 24.994576,187.544342 
	C13.890341,194.441513 6.660067,192.440735 1.000000,181.000000 
	C1.000000,179.285858 1.000000,177.571732 1.288080,175.229095 
	C4.604933,166.188171 10.340199,163.155655 19.179119,165.141449 
	C20.243980,165.380661 21.893091,165.348679 22.547575,164.705658 
	C26.672117,160.653381 30.592083,156.392883 34.683224,152.092285 
	C29.732615,144.131027 25.047632,136.507462 20.232363,128.967102 
	C19.633474,128.029266 18.247114,126.824783 17.388771,126.941673 
	C9.154293,128.063095 4.383328,123.732300 1.000000,117.000000 
	C1.000000,114.958336 1.000000,112.916664 1.331275,110.312759 
	C4.378973,102.744133 8.681429,99.970619 16.066816,99.867783 
	C17.632647,99.845978 19.803127,98.770164 20.631458,97.491165 
	C25.944950,89.286751 30.962006,80.890366 36.254200,72.267509 
	C34.203629,70.103645 32.130909,67.971733 30.122034,65.781288 
	C28.026237,63.496063 25.991945,61.154438 24.080667,59.005978 
	C13.685512,65.368172 6.273745,62.877125 1.000000,52.000000 
	C1.000000,49.958332 1.000000,47.916668 1.360045,45.433525 
	C6.240371,34.713043 14.609289,32.697281 24.901237,39.537678 
	C36.217087,33.138214 47.565296,26.636200 59.013378,20.315075 
	C61.392143,19.001625 62.734615,17.996572 62.292484,14.753777 
	C61.821907,11.302356 62.859890,7.835768 68.035202,9.506444 
	C68.420128,10.966584 68.854027,12.049328 68.871170,13.138628 
	C68.948906,18.078850 71.281349,21.358448 75.168182,21.787178 
	C78.621201,22.168058 82.407173,19.046701 82.862938,15.443225 
	C83.338058,11.686705 80.584213,8.722705 75.758888,7.364773 
	C74.333145,6.963545 73.120880,5.803764 71.865051,4.622914 
	C72.279541,3.169488 72.639771,2.084744 73.000000,1.000000 
	C74.714134,1.000000 76.428276,1.000000 78.711205,1.323263 
	C82.213745,4.125120 85.125427,6.630580 88.093330,9.067569 
	C89.116608,9.907793 90.260330,11.188053 91.382584,11.224145 
	C97.825241,11.431339 104.277985,11.324974 110.727303,11.324974 
	C110.433929,10.826939 110.140556,10.328903 109.847176,9.830868 
	C113.564789,6.887247 117.282394,3.943626 121.000000,1.000003 
M94.815689,137.722046 
	C91.471550,134.268387 88.203941,130.734619 84.730217,127.416618 
	C83.845680,126.571732 82.323837,126.064545 81.065544,126.003288 
	C77.527222,125.831032 73.972633,125.930573 70.426842,126.018822 
	C69.555435,126.040512 68.408089,126.147324 67.871391,126.691833 
	C63.248177,131.382401 58.735886,136.182297 54.019016,141.129425 
	C58.778183,144.986176 63.127579,148.510849 66.711746,151.415390 
	C70.546387,150.646240 74.159241,148.684570 76.471687,149.696030 
	C82.722527,152.430084 85.520828,148.546219 88.841568,144.942245 
	C90.861382,142.750168 92.919044,140.592972 94.815689,137.722046 
M140.278503,135.260361 
	C137.871414,132.743729 135.472443,130.219238 133.052979,127.714554 
	C132.161301,126.791473 116.747070,125.880753 115.817261,126.719208 
	C111.890495,130.260132 107.988800,133.828888 102.908272,138.451782 
	C107.730537,142.698471 111.500641,146.168610 115.467758,149.396622 
	C116.353539,150.117371 117.919930,150.111038 119.192314,150.226807 
	C123.029434,150.575958 126.873398,150.871582 130.720703,151.073776 
	C131.844894,151.132858 133.282883,151.196732 134.074646,150.596115 
	C137.983887,147.630661 141.724503,144.442917 145.722870,141.171371 
	C143.879715,139.159088 142.329803,137.466965 140.278503,135.260361 
M106.635933,36.369896 
	C106.022354,37.434952 104.653549,39.179615 104.908585,39.463028 
	C108.680122,43.654236 112.605591,47.716068 116.685684,51.608231 
	C117.164154,52.064663 118.813705,51.057461 119.854897,51.201607 
	C123.969254,51.771236 129.586914,51.106014 131.831940,53.518475 
	C136.283051,58.301601 140.169052,57.143093 145.314789,55.169750 
	C139.891937,46.393539 134.557037,37.673283 129.071854,29.048595 
	C128.638824,28.367729 127.183350,28.205900 126.165436,28.052578 
	C122.962677,27.570168 119.741966,27.206911 116.808563,26.833239 
	C113.688545,29.729715 110.407967,32.775242 106.635933,36.369896 
M132.320663,192.870956 
	C136.632736,185.877319 140.944824,178.883682 146.157516,170.429352 
	C141.494843,170.657333 137.018814,169.521088 135.175323,171.227997 
	C130.233795,175.803406 125.308029,177.496460 118.938766,175.499405 
	C118.051033,175.221054 116.543541,175.416916 115.928696,176.015472 
	C112.065628,179.776260 108.374054,183.713226 103.911987,188.330536 
	C107.632645,191.686356 110.949669,194.690811 114.283173,197.676865 
	C115.253693,198.546219 116.280540,200.086319 117.265854,200.073914 
	C120.839966,200.028809 124.595657,200.000427 127.900993,198.859497 
	C129.655273,198.253983 130.623825,195.372086 132.320663,192.870956 
M94.776184,188.235504 
	C91.009796,183.979797 87.305840,179.664764 83.393623,175.547623 
	C82.933182,175.063065 81.298111,175.538834 80.259331,175.786545 
	C75.698250,176.874191 70.645973,177.233047 67.705681,173.507507 
	C63.583042,168.283829 59.556477,169.994339 54.472202,171.739182 
	C59.960590,180.623779 65.221588,189.195709 70.579201,197.706802 
	C71.002495,198.379257 72.061790,198.933685 72.885071,199.029114 
	C83.138901,200.217667 83.141861,200.193329 90.848946,192.348480 
	C92.012245,191.164368 93.173752,189.978516 94.776184,188.235504 
M62.340023,57.403442 
	C62.930759,57.273289 63.797672,57.348965 64.070976,56.982243 
	C68.472046,51.076790 74.054916,49.218155 81.109917,51.574913 
	C81.903511,51.840019 83.354691,51.271717 84.016762,50.607368 
	C87.730225,46.881126 91.295105,43.006805 95.681870,38.367477 
	C91.816299,34.843655 88.192177,31.460501 84.458893,28.202431 
	C83.694839,27.535637 82.484673,26.908562 81.542648,26.989620 
	C71.409088,27.861635 71.407417,27.898359 65.775589,36.963345 
	C63.418854,40.756733 61.074577,44.558048 58.752232,48.372555 
	C57.354092,50.669037 56.009071,52.997860 54.513641,55.526085 
	C57.340015,56.192490 59.431465,56.685612 62.340023,57.403442 
M141.394501,82.169296 
	C138.404495,79.796112 135.414474,77.422928 132.424469,75.049744 
	C132.383270,75.585350 132.342087,76.120956 132.300888,76.656563 
	C127.865150,76.656563 123.428612,76.610588 118.994240,76.688293 
	C117.859787,76.708183 116.364159,76.737648 115.662827,77.414146 
	C111.886917,81.056343 108.309105,84.903908 104.180542,89.180252 
	C106.280884,91.048508 108.092125,92.516663 109.737541,94.151688 
	C113.689369,98.078590 116.962868,103.371628 123.995499,100.035477 
	C125.640137,99.255310 128.215057,99.835846 129.376144,98.742981 
	C133.852066,94.529984 137.972672,89.932213 142.086716,85.352997 
	C142.506775,84.885437 141.994110,83.579910 141.394501,82.169296 
M76.430290,99.977722 
	C79.010788,100.038467 82.271851,101.126549 84.037323,99.956993 
	C88.398064,97.068176 92.073303,93.144562 96.919716,88.841660 
	C92.047462,84.452621 88.390106,81.064262 84.607964,77.821457 
	C83.738411,77.075905 82.452515,76.455666 81.337379,76.419456 
	C76.611603,76.265999 71.877975,76.354370 65.698463,76.354370 
	C63.514912,78.158432 60.010426,81.053856 56.385841,84.048500 
	C60.936104,88.855537 64.869659,93.381927 69.243477,97.432991 
	C70.799980,98.874641 73.425247,99.162369 76.430290,99.977722 
M56.678719,93.763260 
	C54.792011,92.011894 52.905308,90.260521 50.884026,88.384232 
	C43.551693,94.300735 36.190075,100.197151 28.903776,106.185219 
	C28.142496,106.810860 27.826805,107.978691 27.304379,108.894966 
	C28.287584,109.314438 29.267895,110.090584 30.254444,110.098602 
	C41.018127,110.186058 51.782787,110.153366 62.220287,110.153366 
	C63.570011,107.796021 64.701881,105.819168 65.933105,103.668793 
	C63.027912,100.564499 60.096077,97.431740 56.678719,93.763260 
M168.961761,104.552277 
	C162.242371,99.105759 155.522980,93.659233 148.606094,88.052635 
	C143.595337,93.369377 138.730942,98.530800 133.896683,103.660255 
	C135.277267,106.029282 136.493973,108.117081 137.679779,110.151871 
	C147.957626,110.151871 157.952271,110.198708 167.945511,110.101707 
	C169.456009,110.087051 170.960007,109.402588 172.467010,109.027954 
	C171.483673,107.687859 170.500336,106.347755 168.961761,104.552277 
M43.504486,116.891510 
	C39.006653,116.892021 34.506065,116.810097 30.013231,116.960304 
	C29.077820,116.991577 28.171129,117.881996 27.251204,118.376480 
	C27.736021,119.164047 28.054855,120.154625 28.731373,120.707726 
	C35.384460,126.147110 42.097023,131.513748 48.940399,137.019882 
	C53.627907,132.109085 58.171986,127.491425 62.498680,122.678345 
	C63.239635,121.854103 63.575729,119.966942 63.146965,118.987480 
	C62.721386,118.015289 61.116508,117.030167 59.990772,116.984283 
	C54.835144,116.774178 49.666161,116.891670 43.504486,116.891510 
M136.933105,117.972816 
	C136.846741,119.321266 136.141769,121.216179 136.772980,121.930725 
	C141.350800,127.112846 146.198196,132.056839 150.945038,137.060089 
	C157.878830,131.445114 164.370026,126.231445 170.791672,120.933434 
	C171.586227,120.277901 172.010422,119.173454 172.606247,118.277031 
	C171.658386,117.815384 170.710327,116.952919 169.762695,116.953392 
	C158.943558,116.958817 148.124481,117.095757 136.933105,117.972816 
M167.049988,184.490143 
	C168.205551,183.848724 169.504883,183.375015 170.487915,182.532333 
	C172.807144,180.544220 172.963013,178.433929 169.700897,177.518967 
	C163.884613,175.887634 157.965500,174.622849 152.134354,173.215622 
	C146.051834,183.019760 140.234406,192.396576 134.416992,201.773392 
	C134.612411,202.008011 134.807846,202.242630 135.003265,202.477264 
	C145.474976,196.611084 155.946671,190.744904 167.049988,184.490143 
M151.175308,52.330215 
	C152.289734,52.623287 153.490173,53.341381 154.503799,53.136292 
	C159.038239,52.218861 163.564590,51.189518 167.994202,49.866852 
	C169.453506,49.431107 170.612991,47.991299 171.909576,47.010605 
	C170.931793,45.888580 170.162598,44.405281 168.943420,43.701340 
	C158.632721,37.748024 148.246536,31.925119 137.861557,26.101316 
	C136.813629,25.513653 135.624039,25.178629 133.947037,24.503752 
	C139.864441,34.028278 145.348282,42.854927 151.175308,52.330215 
M57.916874,189.594574 
	C54.505260,184.137222 51.093647,178.679871 47.668640,173.201096 
	C42.087288,174.547913 36.764107,175.709686 31.528208,177.181870 
	C30.212793,177.551743 29.177290,178.917130 28.013140,179.824997 
	C28.926731,180.984268 29.603537,182.554886 30.790985,183.238388 
	C41.260262,189.264618 51.814724,195.143173 62.366093,201.025757 
	C63.068913,201.417587 63.952038,201.486008 65.449120,201.895950 
	C62.764500,197.546692 60.509197,193.892975 57.916874,189.594574 
M43.429192,52.871311 
	C44.860073,53.133865 46.290958,53.396420 47.818985,53.676800 
	C53.607075,44.293114 59.304733,35.056038 64.984329,25.848246 
	C64.421700,25.455263 64.224510,25.247612 64.160522,25.282722 
	C52.566143,31.644760 40.964672,37.994579 29.434196,44.470779 
	C28.684988,44.891575 27.930052,46.466969 28.162388,47.188023 
	C28.482922,48.182793 29.608500,49.315132 30.620716,49.619972 
	C34.584045,50.813576 38.638374,51.705006 43.429192,52.871311 
M106.714615,77.189758 
	C107.875870,75.997414 109.233315,74.935600 110.139526,73.573570 
	C110.938957,72.372025 112.026062,70.404915 111.561470,69.550842 
	C110.916557,68.365303 108.969841,67.311180 107.528313,67.238792 
	C102.214012,66.971947 96.873161,67.010193 91.554543,67.230049 
	C90.410446,67.277344 88.899117,68.329178 88.333099,69.349037 
	C87.878830,70.167557 88.183136,72.035095 88.867981,72.752823 
	C92.495163,76.554176 96.349037,80.139206 99.990837,83.669769 
	C102.144455,81.603104 104.179459,79.650269 106.714615,77.189758 
M108.916962,159.865448 
	C112.259567,158.946823 113.314972,156.892654 110.964676,154.227448 
	C107.494202,150.291992 103.655388,146.681335 100.179466,143.142151 
	C96.377937,146.814117 92.804230,150.048431 89.534767,153.565536 
	C88.631859,154.536835 87.978439,156.610672 88.411324,157.702576 
	C88.825180,158.746460 90.777802,159.714828 92.095131,159.772141 
	C97.395729,160.002686 102.712234,159.867371 108.916962,159.865448 
M87.607025,56.834343 
	C88.890228,58.198303 90.087807,60.628143 91.471642,60.739315 
	C97.073486,61.189316 102.736961,61.040527 108.367004,60.828720 
	C109.492371,60.786385 110.990120,59.725773 111.537209,58.713634 
	C111.967926,57.916813 111.591225,56.092407 110.898811,55.378441 
	C107.220558,51.585758 103.329529,47.999416 99.290161,44.128880 
	C95.619690,47.984779 91.761131,52.038269 87.607025,56.834343 
M97.900620,180.950592 
	C99.184792,181.018295 100.984306,181.663239 101.665260,181.055267 
	C104.867729,178.196136 107.873413,175.089081 110.694847,171.848923 
	C111.451324,170.980164 111.859001,169.092377 111.428894,168.108749 
	C111.006386,167.142487 109.335289,166.209793 108.177383,166.165283 
	C102.885597,165.961716 97.576653,165.951050 92.285408,166.161316 
	C90.933205,166.215027 88.722687,167.109909 88.504555,168.006912 
	C88.176598,169.355515 88.865791,171.367569 89.817047,172.528427 
	C92.117661,175.335922 94.819939,177.814270 97.900620,180.950592 
M95.508858,97.979630 
	C93.313675,100.236862 90.997612,102.393639 88.991234,104.807785 
	C88.321228,105.613968 87.955002,107.288040 88.339600,108.183075 
	C88.728142,109.087257 90.203667,110.037758 91.230576,110.069260 
	C97.032898,110.247276 102.846268,110.245674 108.648697,110.069206 
	C109.662903,110.038376 111.122894,109.089256 111.504723,108.192741 
	C111.891861,107.283798 111.594521,105.549118 110.911392,104.808174 
	C107.366638,100.963463 103.602654,97.320869 99.798477,93.490479 
	C98.292984,95.064575 97.148422,96.261299 95.508858,97.979630 
M93.748062,209.048843 
	C98.710648,209.048447 103.677185,209.151627 108.632553,208.962311 
	C109.652550,208.923340 111.104820,207.999954 111.495438,207.106964 
	C111.888481,206.208420 111.602585,204.481262 110.929169,203.736969 
	C107.421318,199.859909 103.695007,196.180527 100.323090,192.718155 
	C96.554192,196.308670 93.079666,199.376328 89.936958,202.752838 
	C88.926941,203.837936 87.977531,206.140594 88.479134,207.155121 
	C89.014137,208.237213 91.298866,208.454208 93.748062,209.048843 
M104.368668,116.888168 
	C100.038170,116.888489 95.702545,116.775063 91.380791,116.969612 
	C90.308556,117.017876 88.797707,117.830505 88.370361,118.716934 
	C87.950218,119.588432 88.248734,121.363655 88.926994,122.113937 
	C92.442863,126.003181 96.181297,129.691223 99.701340,133.304810 
	C103.483788,129.621124 106.923721,126.471001 110.089188,123.065742 
	C111.032761,122.050690 112.028732,119.781006 111.543945,119.042648 
	C110.790047,117.894463 108.816254,117.493843 107.303879,116.924057 
	C106.720451,116.704254 105.984909,116.888184 104.368668,116.888168 
M104.117081,29.612871 
	C106.292732,27.321388 108.550377,25.099674 110.594955,22.696672 
	C111.223099,21.958424 111.811432,20.404339 111.451439,19.793201 
	C110.930092,18.908167 109.543251,18.061890 108.501945,18.032318 
	C102.682594,17.867048 96.852928,17.838243 91.033432,18.000828 
	C88.125206,18.082079 86.812592,20.971605 88.787003,23.074411 
	C92.282387,26.797085 96.095299,30.221619 100.016190,34.003220 
	C101.145844,32.775631 102.375992,31.438835 104.117081,29.612871 
M137.078583,159.428131 
	C137.988388,160.789383 138.601898,162.889130 139.855988,163.392288 
	C148.123459,166.709381 148.710449,166.409454 153.335358,158.865952 
	C154.529526,156.918213 155.738724,154.979706 157.173141,152.661896 
	C154.781601,150.483490 152.497101,148.402603 150.055832,146.178909 
	C146.405426,149.095245 142.592728,152.007111 138.962708,155.131195 
	C137.997986,155.961472 137.594009,157.443268 137.078583,159.428131 
M62.971291,158.519272 
	C62.528847,157.567184 62.330345,156.327286 61.603260,155.711014 
	C57.694546,152.398041 53.654392,149.240143 50.150360,146.423233 
	C47.556004,148.563095 45.143707,150.552811 42.669598,152.593506 
	C44.683113,155.908981 46.176819,158.870407 48.163952,161.452026 
	C49.353161,162.997009 51.679550,165.252762 52.860889,164.922379 
	C56.505707,163.903030 62.086155,165.579468 62.971291,158.519272 
M142.572250,74.881111 
	C144.364899,76.278786 146.157532,77.676468 148.116943,79.204163 
	C150.677994,76.489296 153.020218,74.006393 155.378220,71.506783 
	C153.984406,69.193481 152.547028,67.326843 151.663635,65.227135 
	C150.114746,61.545673 147.637695,61.051800 144.243607,62.336388 
	C142.867844,62.857075 141.359726,63.017788 139.956497,63.478355 
	C136.896210,64.482803 135.837860,69.045547 138.176163,71.277061 
	C139.367142,72.413673 140.750198,73.349030 142.572250,74.881111 
M53.980804,77.446411 
	C56.178761,75.697891 58.205582,73.649178 60.616730,72.274628 
	C63.843330,70.435219 63.770187,67.253128 62.021473,65.701302 
	C59.735119,63.672386 56.217133,62.899464 53.108418,62.005501 
	C52.110470,61.718525 50.246845,62.404118 49.615589,63.260918 
	C47.701767,65.858551 46.197365,68.757828 43.939877,72.531990 
	C46.259159,74.414520 48.373135,76.293129 50.679127,77.895370 
	C51.308159,78.332436 52.514694,77.938339 53.980804,77.446411 
M127.267754,107.158813 
	C121.721794,105.734871 118.136513,107.652115 117.188782,112.548584 
	C116.488342,116.167458 119.062531,120.299263 122.928474,120.212219 
	C125.423264,120.156044 128.730194,118.575310 130.140610,116.589378 
	C132.367142,113.454361 131.161163,109.980606 127.267754,107.158813 
M74.103851,106.679634 
	C69.987709,107.973198 67.661934,111.054634 69.153496,114.922981 
	C70.077377,117.319061 73.377342,120.240326 75.649078,120.273186 
	C77.957405,120.306557 81.250961,117.552902 82.440063,115.181023 
	C84.513733,111.044731 80.787201,107.171471 74.103851,106.679634 
M8.295849,52.202679 
	C11.859331,56.348625 15.187219,57.297607 18.459711,54.849003 
	C21.373362,52.668900 22.788481,49.796146 21.020920,46.212051 
	C19.253860,42.628971 16.209738,40.989483 12.432903,42.369564 
	C8.307609,43.876972 6.715771,47.122536 8.295849,52.202679 
M178.893936,110.583893 
	C177.109055,114.201088 178.327881,117.421783 181.387756,119.130234 
	C183.330627,120.215012 187.063492,120.552277 188.548950,119.385490 
	C190.474792,117.872803 191.957657,114.446060 191.751572,112.001770 
	C191.590286,110.088730 188.696121,107.149132 186.785995,106.957275 
	C184.374161,106.715019 181.728531,108.800217 178.893936,110.583893 
M18.253128,171.968384 
	C14.900900,170.136063 11.418032,170.404907 9.457824,173.488312 
	C8.178516,175.500671 7.535053,179.306244 8.620659,181.066559 
	C9.859264,183.074982 13.318833,184.585953 15.843215,184.630951 
	C17.607069,184.662415 20.632986,182.063507 20.919493,180.288300 
	C21.315746,177.833069 19.666277,175.047668 18.253128,171.968384 
M81.331200,216.689865 
	C83.625992,213.566498 83.717201,210.172867 80.816483,207.781784 
	C79.060890,206.334641 75.842735,205.282074 73.845207,205.893448 
	C71.818741,206.513657 69.333229,209.296967 69.155251,211.318390 
	C68.956123,213.580063 70.571281,216.676666 72.391869,218.280579 
	C75.031998,220.606506 78.264771,219.700714 81.331200,216.689865 
M129.633835,18.924814 
	C131.946564,14.091021 131.108932,10.280262 127.296837,8.292830 
	C123.775719,6.457103 118.989235,7.819387 117.943161,11.790662 
	C117.317833,14.164660 118.035774,17.746908 119.565407,19.645828 
	C122.262917,22.994560 125.948769,22.418879 129.633835,18.924814 
M122.078621,57.220989 
	C117.962227,59.167301 115.814735,62.191395 117.644791,66.736824 
	C119.041527,70.205994 122.002243,71.790443 125.652084,70.860924 
	C129.451859,69.893211 131.543671,67.175087 130.955734,63.135475 
	C130.293655,58.586403 127.245445,56.838741 122.078621,57.220989 
M125.997131,156.118820 
	C119.360451,155.917130 114.910027,160.964951 117.904137,165.746307 
	C119.155991,167.745422 122.341179,169.749542 124.515175,169.615051 
	C126.707489,169.479431 129.672379,167.113007 130.626038,164.977097 
	C132.227432,161.390427 130.312851,158.243683 125.997131,156.118820 
M82.639313,65.907715 
	C83.555443,62.114586 82.054375,59.091743 78.677887,57.847382 
	C76.682251,57.111912 73.278076,57.237980 71.912361,58.498695 
	C70.182793,60.095291 68.873711,63.413315 69.264282,65.662262 
	C69.611183,67.659805 72.241196,70.031158 74.373405,70.774277 
	C77.886909,71.998779 80.714462,70.030434 82.639313,65.907715 
M73.941605,169.841019 
	C80.495628,169.860153 84.813972,165.355011 82.206688,160.690125 
	C81.000458,158.531952 77.760643,156.220642 75.519516,156.294861 
	C73.296486,156.368515 70.239754,158.925385 69.213165,161.158417 
	C67.563347,164.747055 69.710693,167.772903 73.941605,169.841019 
M182.384048,171.517807 
	C181.370621,172.363785 180.073334,173.028458 179.395920,174.089050 
	C177.186569,177.548157 177.792831,180.789917 180.878540,183.431458 
	C183.799332,185.931824 188.367111,185.481873 190.660156,182.401642 
	C193.075592,179.157013 193.063187,175.548508 189.953888,173.025497 
	C188.275253,171.663391 185.422043,171.748825 182.384048,171.517807 
M183.148880,42.259033 
	C179.351547,43.972397 177.199814,46.761799 178.502686,50.979736 
	C179.681595,54.796391 182.640091,56.667206 186.637268,55.862621 
	C190.378448,55.109566 192.276581,52.493546 192.173904,48.647743 
	C192.062012,44.458160 189.339569,42.346104 183.148880,42.259033 
M13.768555,120.600456 
	C19.881380,119.610512 23.399555,115.802567 21.207239,111.741676 
	C19.932415,109.380287 16.678633,106.645805 14.372013,106.695778 
	C12.147516,106.743980 8.934749,109.767639 8.054888,112.177399 
	C6.649361,116.026848 8.903544,119.122658 13.768555,120.600456 
M35.155262,169.712006 
	C37.978302,168.952499 40.801342,168.193008 44.060524,167.316162 
	C42.049091,164.072113 40.209644,161.105438 38.168243,157.813065 
	C33.903271,162.360428 30.041159,166.478256 25.266375,171.569183 
	C29.192884,170.840790 31.771322,170.362473 35.155262,169.712006 
M166.062546,162.465027 
	C164.803635,160.789108 163.544724,159.113205 162.012451,157.073380 
	C159.507874,161.238815 157.743027,164.173981 155.758514,167.474472 
	C161.887863,168.909164 167.471115,170.216034 173.054367,171.522903 
	C173.224640,171.168777 173.394913,170.814651 173.565201,170.460526 
	C171.226288,167.966995 168.887375,165.473450 166.062546,162.465027 
M164.184296,92.329170 
	C165.906067,93.633415 167.627838,94.937660 169.349625,96.241913 
	C169.620926,95.925049 169.892242,95.608185 170.163559,95.291328 
	C166.471909,89.343842 162.780258,83.396362 158.910141,77.161369 
	C156.708252,79.548004 154.971039,81.430969 153.171249,83.381767 
	C156.914505,86.435791 160.264343,89.168846 164.184296,92.329170 
M45.047001,81.622604 
	C43.731747,80.240204 42.416489,78.857796 40.834507,77.195053 
	C36.906315,83.626625 33.312992,89.509918 29.719671,95.393219 
	C30.079638,95.692787 30.439602,95.992363 30.799568,96.291931 
	C35.878078,92.135719 40.967888,87.992958 45.992390,83.772461 
	C46.186535,83.609383 45.753235,82.699333 45.047001,81.622604 
M38.885559,146.413651 
	C40.735523,144.974915 42.585487,143.536194 44.703922,141.888672 
	C39.648056,137.857010 35.308578,134.396606 30.969097,130.936218 
	C30.632221,131.315872 30.295345,131.695541 29.958469,132.075211 
	C32.775078,136.682510 35.591686,141.289825 38.885559,146.413651 
M160.286911,137.822952 
	C158.783539,139.071243 157.280182,140.319519 155.470627,141.822037 
	C157.199661,143.656387 158.760117,145.311890 160.583069,147.245850 
	C163.856689,141.923141 166.975601,136.852005 170.094513,131.780853 
	C169.761658,131.466415 169.428787,131.151993 169.095932,130.837570 
	C166.340866,133.011337 163.585815,135.185104 160.286911,137.822952 
M31.281334,56.912575 
	C33.991077,60.066116 36.700825,63.219662 39.727371,66.741890 
	C41.418587,63.946865 42.666100,61.885132 44.090332,59.531342 
	C39.749485,58.509861 35.898933,57.603756 31.281334,56.912575 
M156.533585,60.893303 
	C157.626801,62.656639 158.720016,64.419975 159.089493,65.015930 
	C162.232971,62.641178 165.295639,60.327469 168.358322,58.013760 
	C168.084091,57.497795 167.809845,56.981831 167.535614,56.465866 
	C163.759964,57.716778 159.984299,58.967690 156.533585,60.893303 
z"/>
<path fill="#FEFEFE" opacity="1.000000" stroke="none" 
	d="
M133.116806,217.446487 
	C137.225082,217.661392 137.961029,214.888153 137.433960,211.867416 
	C136.951584,209.102768 138.201187,208.095932 140.271988,206.952515 
	C150.999619,201.028885 161.635162,194.938202 172.378647,189.043991 
	C173.563370,188.394012 175.578033,187.983749 176.621780,188.547424 
	C186.712784,193.997040 193.402161,191.904526 198.810226,181.242523 
	C204.040054,181.242523 209.331039,181.242523 215.053131,181.242523 
	C214.530975,182.104202 213.864395,182.723190 213.807709,183.393753 
	C213.672394,184.993835 213.824768,186.618240 213.860962,188.232819 
	C215.482315,188.021057 217.580414,188.372879 218.629898,187.485092 
	C221.133469,185.367294 223.142181,182.664505 225.675385,180.098999 
	C226.000000,195.286926 226.000000,210.573853 226.000000,226.000000 
	C193.312561,226.000000 160.624939,226.000000 127.468658,226.000000 
	C127.385010,224.714554 127.770035,223.429123 128.494598,221.685684 
	C130.261673,219.967285 131.689240,218.706879 133.116806,217.446487 
z"/>
<path fill="#FEFEFE" opacity="1.000000" stroke="none" 
	d="
M226.000000,46.531342 
	C223.724503,44.631828 221.638046,42.026756 219.093246,39.996044 
	C217.832016,38.989586 215.727615,39.039738 214.004684,38.611858 
	C214.104111,40.470840 214.177277,42.331875 214.322342,44.187290 
	C214.356506,44.624241 214.633163,45.042229 214.953705,45.870667 
	C209.921066,45.870667 205.163101,45.954281 200.413467,45.792824 
	C199.568329,45.764095 198.462357,44.900219 197.976196,44.113419 
	C191.983566,34.414886 184.889511,32.914921 175.033356,39.499317 
	C163.254883,32.912304 151.371613,26.336365 139.600296,19.565775 
	C138.533249,18.952034 137.630829,17.100374 137.596909,15.798969 
	C137.400131,8.246788 135.122238,4.710245 128.022308,1.357852 
	C160.567108,1.000000 193.134232,1.000000 226.000000,1.000000 
	C226.000000,16.019575 226.000000,31.041130 226.000000,46.531342 
z"/>
<path fill="#FDFDFD" opacity="1.000000" stroke="none" 
	d="
M226.000000,110.531342 
	C224.142471,109.225510 222.304169,107.430321 220.421967,105.682396 
	C218.566345,103.959122 216.737961,100.736343 213.988251,103.451050 
	C212.901947,104.523529 213.810104,107.616173 213.810104,110.149536 
	C210.039749,110.149536 205.420517,110.288597 200.821014,110.049034 
	C199.709717,109.991158 198.212784,108.925240 197.662552,107.907089 
	C194.665741,102.361717 190.165909,99.851303 183.882004,99.860069 
	C182.317581,99.862251 180.111191,98.826385 179.289459,97.560417 
	C173.964935,89.357239 168.941818,80.958427 163.625595,72.307495 
	C167.732513,67.983337 171.817902,63.681862 175.850006,59.436462 
	C186.591934,65.133751 193.351273,62.996876 198.774734,52.303032 
	C204.005402,52.303032 209.300293,52.303032 215.019150,52.303032 
	C214.506775,53.177032 213.851074,53.807693 213.796158,54.486919 
	C213.666809,56.087200 213.823929,57.710632 213.865158,59.324699 
	C215.494766,59.104977 217.601379,59.448410 218.658569,58.552914 
	C221.161972,56.432373 223.167053,53.723557 225.686798,51.126282 
	C226.000000,70.687561 226.000000,90.375122 226.000000,110.531342 
z"/>
<path fill="#FDFDFD" opacity="1.000000" stroke="none" 
	d="
M226.000000,175.531342 
	C223.842499,173.733505 221.888870,171.205948 219.449219,169.300751 
	C218.039124,168.199585 215.845306,168.102005 214.004227,167.552734 
	C214.100327,169.410507 214.171249,171.270187 214.310822,173.124695 
	C214.344238,173.568619 214.606186,173.995361 214.904465,174.821960 
	C210.039719,174.821960 205.430099,174.962906 200.840988,174.718658 
	C199.751389,174.660660 198.344742,173.540695 197.740234,172.520370 
	C193.667328,165.645950 188.613525,163.407043 181.031128,164.983200 
	C179.640594,165.272263 177.543472,164.813843 176.546753,163.876877 
	C172.675140,160.237289 169.115784,156.265579 165.181732,152.146866 
	C170.099350,144.186615 174.918488,136.273636 179.908951,128.470215 
	C180.444626,127.632599 182.014862,126.937630 183.041428,127.015617 
	C190.732697,127.599983 195.685226,124.073357 198.525208,117.030830 
	C203.869629,117.030830 209.184982,117.030830 214.904160,117.030830 
	C214.221268,118.095222 213.239883,118.953491 213.188873,119.863892 
	C213.114899,121.184196 213.298416,123.109268 214.140778,123.725281 
	C214.990738,124.346848 217.239212,124.213463 218.070587,123.488434 
	C220.684357,121.209045 222.919907,118.495972 225.650940,115.975403 
	C226.000000,135.687561 226.000000,155.375122 226.000000,175.531342 
z"/>
<path fill="#FEFEFE" opacity="1.000000" stroke="none" 
	d="
M67.892258,9.132067 
	C62.859890,7.835768 61.821907,11.302356 62.292484,14.753777 
	C62.734615,17.996572 61.392143,19.001625 59.013378,20.315075 
	C47.565296,26.636200 36.217087,33.138214 24.901237,39.537678 
	C14.609289,32.697281 6.240371,34.713043 1.360045,44.996025 
	C1.000000,30.388865 1.000000,15.777729 1.000000,1.000000 
	C24.687302,1.000000 48.374992,1.000000 72.531342,1.000000 
	C72.639771,2.084744 72.279541,3.169488 71.575699,4.786096 
	C70.118813,6.589329 69.005539,7.860698 67.892258,9.132067 
z"/>
<path fill="#FDFDFD" opacity="1.000000" stroke="none" 
	d="
M1.000000,181.468658 
	C6.660067,192.440735 13.890341,194.441513 24.994576,187.544342 
	C36.617310,194.082047 48.320026,200.602234 59.923561,207.294373 
	C61.009727,207.920807 62.099991,209.624680 62.116817,210.843094 
	C62.219269,218.262726 64.897766,222.423187 71.944916,225.648773 
	C48.422939,226.000000 24.845879,226.000000 1.000000,226.000000 
	C1.000000,211.313538 1.000000,196.625427 1.000000,181.468658 
z"/>
<path fill="#FCFCFC" opacity="1.000000" stroke="none" 
	d="
M1.000000,52.468658 
	C6.273745,62.877125 13.685512,65.368172 24.080667,59.005978 
	C25.991945,61.154438 28.026237,63.496063 30.122034,65.781288 
	C32.130909,67.971733 34.203629,70.103645 36.254200,72.267509 
	C30.962006,80.890366 25.944950,89.286751 20.631458,97.491165 
	C19.803127,98.770164 17.632647,99.845978 16.066816,99.867783 
	C8.681429,99.970619 4.378973,102.744133 1.331275,109.875259 
	C1.000000,90.979103 1.000000,71.958214 1.000000,52.468658 
z"/>
<path fill="#FCFCFC" opacity="1.000000" stroke="none" 
	d="
M1.000000,117.468658 
	C4.383328,123.732300 9.154293,128.063095 17.388771,126.941673 
	C18.247114,126.824783 19.633474,128.029266 20.232363,128.967102 
	C25.047632,136.507462 29.732615,144.131027 34.683224,152.092285 
	C30.592083,156.392883 26.672117,160.653381 22.547575,164.705658 
	C21.893091,165.348679 20.243980,165.380661 19.179119,165.141449 
	C10.340199,163.155655 4.604933,166.188171 1.288080,174.800293 
	C1.000000,155.979111 1.000000,136.958206 1.000000,117.468658 
z"/>
<path fill="#FCFCFC" opacity="1.000000" stroke="none" 
	d="
M120.531342,1.000003 
	C117.282394,3.943626 113.564789,6.887247 109.847176,9.830868 
	C110.140556,10.328903 110.433929,10.826939 110.727303,11.324974 
	C104.277985,11.324974 97.825241,11.431339 91.382584,11.224145 
	C90.260330,11.188053 89.116608,9.907793 88.093330,9.067569 
	C85.125427,6.630580 82.213745,4.125120 79.139999,1.323263 
	C92.687561,1.000000 106.375122,1.000000 120.531342,1.000003 
z"/>
<path fill="#FCFCFC" opacity="1.000000" stroke="none" 
	d="
M79.468658,226.000000 
	C82.130180,223.068680 85.208412,220.078384 88.424828,217.244934 
	C89.295807,216.477676 90.564957,215.802567 91.685478,215.744598 
	C95.324738,215.556290 98.983131,215.772049 102.627953,215.648727 
	C107.267548,215.491730 111.580879,215.056686 113.899399,220.836578 
	C114.735313,222.920441 118.331833,223.896942 120.834282,225.689392 
	C107.312439,226.000000 93.624878,226.000000 79.468658,226.000000 
z"/>
<path fill="#FBFBFB" opacity="1.000000" stroke="none" 
	d="
M94.887695,138.071075 
	C92.919044,140.592972 90.861382,142.750168 88.841568,144.942245 
	C85.520828,148.546219 82.722527,152.430084 76.471687,149.696030 
	C74.159241,148.684570 70.546387,150.646240 66.711746,151.415390 
	C63.127579,148.510849 58.778183,144.986176 54.019016,141.129425 
	C58.735886,136.182297 63.248177,131.382401 67.871391,126.691833 
	C68.408089,126.147324 69.555435,126.040512 70.426842,126.018822 
	C73.972633,125.930573 77.527222,125.831032 81.065544,126.003288 
	C82.323837,126.064545 83.845680,126.571732 84.730217,127.416618 
	C88.203941,130.734619 91.471550,134.268387 94.887695,138.071075 
z"/>
<path fill="#FBFBFB" opacity="1.000000" stroke="none" 
	d="
M140.529205,135.517593 
	C142.329803,137.466965 143.879715,139.159088 145.722870,141.171371 
	C141.724503,144.442917 137.983887,147.630661 134.074646,150.596115 
	C133.282883,151.196732 131.844894,151.132858 130.720703,151.073776 
	C126.873398,150.871582 123.029434,150.575958 119.192314,150.226807 
	C117.919930,150.111038 116.353539,150.117371 115.467758,149.396622 
	C111.500641,146.168610 107.730537,142.698471 102.908272,138.451782 
	C107.988800,133.828888 111.890495,130.260132 115.817261,126.719208 
	C116.747070,125.880753 132.161301,126.791473 133.052979,127.714554 
	C135.472443,130.219238 137.871414,132.743729 140.529205,135.517593 
z"/>
<path fill="#F9F9F9" opacity="1.000000" stroke="none" 
	d="
M106.881668,36.095329 
	C110.407967,32.775242 113.688545,29.729715 116.808563,26.833239 
	C119.741966,27.206911 122.962677,27.570168 126.165436,28.052578 
	C127.183350,28.205900 128.638824,28.367729 129.071854,29.048595 
	C134.557037,37.673283 139.891937,46.393539 145.314789,55.169750 
	C140.169052,57.143093 136.283051,58.301601 131.831940,53.518475 
	C129.586914,51.106014 123.969254,51.771236 119.854897,51.201607 
	C118.813705,51.057461 117.164154,52.064663 116.685684,51.608231 
	C112.605591,47.716068 108.680122,43.654236 104.908585,39.463028 
	C104.653549,39.179615 106.022354,37.434952 106.881668,36.095329 
z"/>
<path fill="#F9F9F9" opacity="1.000000" stroke="none" 
	d="
M132.133865,193.194366 
	C130.623825,195.372086 129.655273,198.253983 127.900993,198.859497 
	C124.595657,200.000427 120.839966,200.028809 117.265854,200.073914 
	C116.280540,200.086319 115.253693,198.546219 114.283173,197.676865 
	C110.949669,194.690811 107.632645,191.686356 103.911987,188.330536 
	C108.374054,183.713226 112.065628,179.776260 115.928696,176.015472 
	C116.543541,175.416916 118.051033,175.221054 118.938766,175.499405 
	C125.308029,177.496460 130.233795,175.803406 135.175323,171.227997 
	C137.018814,169.521088 141.494843,170.657333 146.157516,170.429352 
	C140.944824,178.883682 136.632736,185.877319 132.133865,193.194366 
z"/>
<path fill="#F9F9F9" opacity="1.000000" stroke="none" 
	d="
M94.556137,188.514481 
	C93.173752,189.978516 92.012245,191.164368 90.848946,192.348480 
	C83.141861,200.193329 83.138901,200.217667 72.885071,199.029114 
	C72.061790,198.933685 71.002495,198.379257 70.579201,197.706802 
	C65.221588,189.195709 59.960590,180.623779 54.472202,171.739182 
	C59.556477,169.994339 63.583042,168.283829 67.705681,173.507507 
	C70.645973,177.233047 75.698250,176.874191 80.259331,175.786545 
	C81.298111,175.538834 82.933182,175.063065 83.393623,175.547623 
	C87.305840,179.664764 91.009796,183.979797 94.556137,188.514481 
z"/>
<path fill="#F9F9F9" opacity="1.000000" stroke="none" 
	d="
M61.931465,57.291088 
	C59.431465,56.685612 57.340015,56.192490 54.513641,55.526085 
	C56.009071,52.997860 57.354092,50.669037 58.752232,48.372555 
	C61.074577,44.558048 63.418854,40.756733 65.775589,36.963345 
	C71.407417,27.898359 71.409088,27.861635 81.542648,26.989620 
	C82.484673,26.908562 83.694839,27.535637 84.458893,28.202431 
	C88.192177,31.460501 91.816299,34.843655 95.681870,38.367477 
	C91.295105,43.006805 87.730225,46.881126 84.016762,50.607368 
	C83.354691,51.271717 81.903511,51.840019 81.109917,51.574913 
	C74.054916,49.218155 68.472046,51.076790 64.070976,56.982243 
	C63.797672,57.348965 62.930759,57.273289 61.931465,57.291088 
z"/>
<path fill="#FBFBFB" opacity="1.000000" stroke="none" 
	d="
M141.654388,82.416275 
	C141.994110,83.579910 142.506775,84.885437 142.086716,85.352997 
	C137.972672,89.932213 133.852066,94.529984 129.376144,98.742981 
	C128.215057,99.835846 125.640137,99.255310 123.995499,100.035477 
	C116.962868,103.371628 113.689369,98.078590 109.737541,94.151688 
	C108.092125,92.516663 106.280884,91.048508 104.180542,89.180252 
	C108.309105,84.903908 111.886917,81.056343 115.662827,77.414146 
	C116.364159,76.737648 117.859787,76.708183 118.994240,76.688293 
	C123.428612,76.610588 127.865150,76.656563 132.300888,76.656563 
	C132.342087,76.120956 132.383270,75.585350 132.424469,75.049744 
	C135.414474,77.422928 138.404495,79.796112 141.654388,82.416275 
z"/>
<path fill="#FBFBFB" opacity="1.000000" stroke="none" 
	d="
M75.996468,99.977280 
	C73.425247,99.162369 70.799980,98.874641 69.243477,97.432991 
	C64.869659,93.381927 60.936104,88.855537 56.385841,84.048500 
	C60.010426,81.053856 63.514912,78.158432 65.698463,76.354370 
	C71.877975,76.354370 76.611603,76.265999 81.337379,76.419456 
	C82.452515,76.455666 83.738411,77.075905 84.607964,77.821457 
	C88.390106,81.064262 92.047462,84.452621 96.919716,88.841660 
	C92.073303,93.144562 88.398064,97.068176 84.037323,99.956993 
	C82.271851,101.126549 79.010788,100.038467 75.996468,99.977280 
z"/>
<path fill="#FBFBFB" opacity="1.000000" stroke="none" 
	d="
M56.921478,94.031120 
	C60.096077,97.431740 63.027912,100.564499 65.933105,103.668793 
	C64.701881,105.819168 63.570011,107.796021 62.220287,110.153366 
	C51.782787,110.153366 41.018127,110.186058 30.254444,110.098602 
	C29.267895,110.090584 28.287584,109.314438 27.304379,108.894966 
	C27.826805,107.978691 28.142496,106.810860 28.903776,106.185219 
	C36.190075,100.197151 43.551693,94.300735 50.884026,88.384232 
	C52.905308,90.260521 54.792011,92.011894 56.921478,94.031120 
z"/>
<path fill="#FCFCFC" opacity="1.000000" stroke="none" 
	d="
M169.239380,104.779968 
	C170.500336,106.347755 171.483673,107.687859 172.467010,109.027954 
	C170.960007,109.402588 169.456009,110.087051 167.945511,110.101707 
	C157.952271,110.198708 147.957626,110.151871 137.679779,110.151871 
	C136.493973,108.117081 135.277267,106.029282 133.896683,103.660255 
	C138.730942,98.530800 143.595337,93.369377 148.606094,88.052635 
	C155.522980,93.659233 162.242371,99.105759 169.239380,104.779968 
z"/>
<path fill="#FBFBFB" opacity="1.000000" stroke="none" 
	d="
M44.003231,116.891510 
	C49.666161,116.891670 54.835144,116.774178 59.990772,116.984283 
	C61.116508,117.030167 62.721386,118.015289 63.146965,118.987480 
	C63.575729,119.966942 63.239635,121.854103 62.498680,122.678345 
	C58.171986,127.491425 53.627907,132.109085 48.940399,137.019882 
	C42.097023,131.513748 35.384460,126.147110 28.731373,120.707726 
	C28.054855,120.154625 27.736021,119.164047 27.251202,118.376480 
	C28.171129,117.881996 29.077820,116.991577 30.013231,116.960304 
	C34.506065,116.810097 39.006653,116.892021 44.003231,116.891510 
z"/>
<path fill="#FBFBFB" opacity="1.000000" stroke="none" 
	d="
M137.119247,117.585205 
	C148.124481,117.095757 158.943558,116.958817 169.762695,116.953392 
	C170.710327,116.952919 171.658386,117.815384 172.606247,118.277031 
	C172.010422,119.173454 171.586227,120.277901 170.791672,120.933434 
	C164.370026,126.231445 157.878830,131.445114 150.945038,137.060089 
	C146.198196,132.056839 141.350800,127.112846 136.772980,121.930725 
	C136.141769,121.216179 136.846741,119.321266 137.119247,117.585205 
z"/>
<path fill="#F7F7F7" opacity="1.000000" stroke="none" 
	d="
M166.734192,184.684433 
	C155.946671,190.744904 145.474976,196.611084 135.003265,202.477264 
	C134.807846,202.242630 134.612411,202.008011 134.416992,201.773392 
	C140.234406,192.396576 146.051834,183.019760 152.134354,173.215622 
	C157.965500,174.622849 163.884613,175.887634 169.700897,177.518967 
	C172.963013,178.433929 172.807144,180.544220 170.487915,182.532333 
	C169.504883,183.375015 168.205551,183.848724 166.734192,184.684433 
z"/>
<path fill="#F7F7F7" opacity="1.000000" stroke="none" 
	d="
M151.003708,52.005898 
	C145.348282,42.854927 139.864441,34.028278 133.947037,24.503752 
	C135.624039,25.178629 136.813629,25.513653 137.861557,26.101316 
	C148.246536,31.925119 158.632721,37.748024 168.943420,43.701340 
	C170.162598,44.405281 170.931793,45.888580 171.909576,47.010605 
	C170.612991,47.991299 169.453506,49.431107 167.994202,49.866852 
	C163.564590,51.189518 159.038239,52.218861 154.503799,53.136292 
	C153.490173,53.341381 152.289734,52.623287 151.003708,52.005898 
z"/>
<path fill="#F7F7F7" opacity="1.000000" stroke="none" 
	d="
M58.085388,189.916901 
	C60.509197,193.892975 62.764500,197.546692 65.449120,201.895950 
	C63.952038,201.486008 63.068913,201.417587 62.366093,201.025757 
	C51.814724,195.143173 41.260262,189.264618 30.790985,183.238388 
	C29.603537,182.554886 28.926731,180.984268 28.013145,179.825012 
	C29.177290,178.917130 30.212793,177.551743 31.528208,177.181870 
	C36.764107,175.709686 42.087288,174.547913 47.668640,173.201096 
	C51.093647,178.679871 54.505260,184.137222 58.085388,189.916901 
z"/>
<path fill="#F7F7F7" opacity="1.000000" stroke="none" 
	d="
M43.044044,52.790012 
	C38.638374,51.705006 34.584045,50.813576 30.620716,49.619972 
	C29.608500,49.315132 28.482922,48.182793 28.162388,47.188023 
	C27.930052,46.466969 28.684988,44.891575 29.434196,44.470779 
	C40.964672,37.994579 52.566143,31.644760 64.160522,25.282722 
	C64.224510,25.247612 64.421700,25.455263 64.984329,25.848246 
	C59.304733,35.056038 53.607075,44.293114 47.818985,53.676800 
	C46.290958,53.396420 44.860073,53.133865 43.044044,52.790012 
z"/>
<path fill="#F3F3F3" opacity="1.000000" stroke="none" 
	d="
M106.464539,77.443596 
	C104.179459,79.650269 102.144455,81.603104 99.990837,83.669769 
	C96.349037,80.139206 92.495163,76.554176 88.867981,72.752823 
	C88.183136,72.035095 87.878830,70.167557 88.333099,69.349037 
	C88.899117,68.329178 90.410446,67.277344 91.554543,67.230049 
	C96.873161,67.010193 102.214012,66.971947 107.528313,67.238792 
	C108.969841,67.311180 110.916557,68.365303 111.561470,69.550842 
	C112.026062,70.404915 110.938957,72.372025 110.139526,73.573570 
	C109.233315,74.935600 107.875870,75.997414 106.464539,77.443596 
z"/>
<path fill="#F3F3F3" opacity="1.000000" stroke="none" 
	d="
M108.469910,159.866333 
	C102.712234,159.867371 97.395729,160.002686 92.095131,159.772141 
	C90.777802,159.714828 88.825180,158.746460 88.411324,157.702576 
	C87.978439,156.610672 88.631859,154.536835 89.534767,153.565536 
	C92.804230,150.048431 96.377937,146.814117 100.179466,143.142151 
	C103.655388,146.681335 107.494202,150.291992 110.964676,154.227448 
	C113.314972,156.892654 112.259567,158.946823 108.469910,159.866333 
z"/>
<path fill="#F9F9F9" opacity="1.000000" stroke="none" 
	d="
M87.754799,56.463051 
	C91.761131,52.038269 95.619690,47.984779 99.290161,44.128880 
	C103.329529,47.999416 107.220558,51.585758 110.898811,55.378441 
	C111.591225,56.092407 111.967926,57.916813 111.537209,58.713634 
	C110.990120,59.725773 109.492371,60.786385 108.367004,60.828720 
	C102.736961,61.040527 97.073486,61.189316 91.471642,60.739315 
	C90.087807,60.628143 88.890228,58.198303 87.754799,56.463051 
z"/>
<path fill="#FAFAFA" opacity="1.000000" stroke="none" 
	d="
M97.630463,180.687943 
	C94.819939,177.814270 92.117661,175.335922 89.817047,172.528427 
	C88.865791,171.367569 88.176598,169.355515 88.504555,168.006912 
	C88.722687,167.109909 90.933205,166.215027 92.285408,166.161316 
	C97.576653,165.951050 102.885597,165.961716 108.177383,166.165283 
	C109.335289,166.209793 111.006386,167.142487 111.428894,168.108749 
	C111.859001,169.092377 111.451324,170.980164 110.694847,171.848923 
	C107.873413,175.089081 104.867729,178.196136 101.665260,181.055267 
	C100.984306,181.663239 99.184792,181.018295 97.630463,180.687943 
z"/>
<path fill="#FAFAFA" opacity="1.000000" stroke="none" 
	d="
M95.756355,97.718826 
	C97.148422,96.261299 98.292984,95.064575 99.798477,93.490479 
	C103.602654,97.320869 107.366638,100.963463 110.911392,104.808174 
	C111.594521,105.549118 111.891861,107.283798 111.504723,108.192741 
	C111.122894,109.089256 109.662903,110.038376 108.648697,110.069206 
	C102.846268,110.245674 97.032898,110.247276 91.230576,110.069260 
	C90.203667,110.037758 88.728142,109.087257 88.339600,108.183075 
	C87.955002,107.288040 88.321228,105.613968 88.991234,104.807785 
	C90.997612,102.393639 93.313675,100.236862 95.756355,97.718826 
z"/>
<path fill="#FBFBFB" opacity="1.000000" stroke="none" 
	d="
M93.283890,209.048859 
	C91.298866,208.454208 89.014137,208.237213 88.479134,207.155121 
	C87.977531,206.140594 88.926941,203.837936 89.936958,202.752838 
	C93.079666,199.376328 96.554192,196.308670 100.323090,192.718155 
	C103.695007,196.180527 107.421318,199.859909 110.929169,203.736969 
	C111.602585,204.481262 111.888481,206.208420 111.495438,207.106964 
	C111.104820,207.999954 109.652550,208.923340 108.632553,208.962311 
	C103.677185,209.151627 98.710648,209.048447 93.283890,209.048859 
z"/>
<path fill="#FAFAFA" opacity="1.000000" stroke="none" 
	d="
M104.843674,116.888168 
	C105.984909,116.888184 106.720451,116.704254 107.303879,116.924057 
	C108.816254,117.493843 110.790047,117.894463 111.543945,119.042648 
	C112.028732,119.781006 111.032761,122.050690 110.089188,123.065742 
	C106.923721,126.471001 103.483788,129.621124 99.701340,133.304810 
	C96.181297,129.691223 92.442863,126.003181 88.926994,122.113937 
	C88.248734,121.363655 87.950218,119.588432 88.370361,118.716934 
	C88.797707,117.830505 90.308556,117.017876 91.380791,116.969612 
	C95.702545,116.775063 100.038170,116.888489 104.843674,116.888168 
z"/>
<path fill="#FCFCFC" opacity="1.000000" stroke="none" 
	d="
M103.861610,29.857456 
	C102.375992,31.438835 101.145844,32.775631 100.016190,34.003220 
	C96.095299,30.221619 92.282387,26.797085 88.787003,23.074411 
	C86.812592,20.971605 88.125206,18.082079 91.033432,18.000828 
	C96.852928,17.838243 102.682594,17.867048 108.501945,18.032318 
	C109.543251,18.061890 110.930092,18.908167 111.451439,19.793201 
	C111.811432,20.404339 111.223099,21.958424 110.594955,22.696672 
	C108.550377,25.099674 106.292732,27.321388 103.861610,29.857456 
z"/>
<path fill="#F7F7F7" opacity="1.000000" stroke="none" 
	d="
M137.005585,159.027039 
	C137.594009,157.443268 137.997986,155.961472 138.962708,155.131195 
	C142.592728,152.007111 146.405426,149.095245 150.055832,146.178909 
	C152.497101,148.402603 154.781601,150.483490 157.173141,152.661896 
	C155.738724,154.979706 154.529526,156.918213 153.335358,158.865952 
	C148.710449,166.409454 148.123459,166.709381 139.855988,163.392288 
	C138.601898,162.889130 137.988388,160.789383 137.005585,159.027039 
z"/>
<path fill="#F8F8F8" opacity="1.000000" stroke="none" 
	d="
M62.900085,158.912476 
	C62.086155,165.579468 56.505707,163.903030 52.860889,164.922379 
	C51.679550,165.252762 49.353161,162.997009 48.163952,161.452026 
	C46.176819,158.870407 44.683113,155.908981 42.669598,152.593506 
	C45.143707,150.552811 47.556004,148.563095 50.150360,146.423233 
	C53.654392,149.240143 57.694546,152.398041 61.603260,155.711014 
	C62.330345,156.327286 62.528847,157.567184 62.900085,158.912476 
z"/>
<path fill="#F7F7F7" opacity="1.000000" stroke="none" 
	d="
M142.309326,74.628235 
	C140.750198,73.349030 139.367142,72.413673 138.176163,71.277061 
	C135.837860,69.045547 136.896210,64.482803 139.956497,63.478355 
	C141.359726,63.017788 142.867844,62.857075 144.243607,62.336388 
	C147.637695,61.051800 150.114746,61.545673 151.663635,65.227135 
	C152.547028,67.326843 153.984406,69.193481 155.378220,71.506783 
	C153.020218,74.006393 150.677994,76.489296 148.116943,79.204163 
	C146.157532,77.676468 144.364899,76.278786 142.309326,74.628235 
z"/>
<path fill="#F7F7F7" opacity="1.000000" stroke="none" 
	d="
M53.718502,77.686050 
	C52.514694,77.938339 51.308159,78.332436 50.679127,77.895370 
	C48.373135,76.293129 46.259159,74.414520 43.939877,72.531990 
	C46.197365,68.757828 47.701767,65.858551 49.615589,63.260918 
	C50.246845,62.404118 52.110470,61.718525 53.108418,62.005501 
	C56.217133,62.899464 59.735119,63.672386 62.021473,65.701302 
	C63.770187,67.253128 63.843330,70.435219 60.616730,72.274628 
	C58.205582,73.649178 56.178761,75.697891 53.718502,77.686050 
z"/>
<path fill="#C2E6F4" opacity="1.000000" stroke="none" 
	d="
M68.035202,9.506444 
	C69.005539,7.860698 70.118813,6.589329 71.521439,5.154779 
	C73.120880,5.803764 74.333145,6.963545 75.758888,7.364773 
	C80.584213,8.722705 83.338058,11.686705 82.862938,15.443225 
	C82.407173,19.046701 78.621201,22.168058 75.168182,21.787178 
	C71.281349,21.358448 68.948906,18.078850 68.871170,13.138628 
	C68.854027,12.049328 68.420128,10.966584 68.035202,9.506444 
z"/>
<path fill="#F4C958" opacity="1.000000" stroke="none" 
	d="
M132.776489,217.216751 
	C131.689240,218.706879 130.261673,219.967285 128.518829,221.328278 
	C126.420631,220.700912 124.681625,219.826935 122.845802,219.274948 
	C118.820740,218.064697 116.320602,214.780350 117.132263,211.169205 
	C117.957817,207.496246 120.467712,205.081329 124.172356,205.308090 
	C128.223953,205.556091 130.755753,208.057968 131.092789,212.456619 
	C131.210449,213.992050 131.969833,215.478302 132.776489,217.216751 
z"/>
<path fill="#F4C958" opacity="1.000000" stroke="none" 
	d="
M127.577354,107.376953 
	C131.161163,109.980606 132.367142,113.454361 130.140610,116.589378 
	C128.730194,118.575310 125.423264,120.156044 122.928474,120.212219 
	C119.062531,120.299263 116.488342,116.167458 117.188782,112.548584 
	C118.136513,107.652115 121.721794,105.734871 127.577354,107.376953 
z"/>
<path fill="#BFE4F2" opacity="1.000000" stroke="none" 
	d="
M74.461655,106.558853 
	C80.787201,107.171471 84.513733,111.044731 82.440063,115.181023 
	C81.250961,117.552902 77.957405,120.306557 75.649078,120.273186 
	C73.377342,120.240326 70.077377,117.319061 69.153496,114.922981 
	C67.661934,111.054634 69.987709,107.973198 74.461655,106.558853 
z"/>
<path fill="#F27A81" opacity="1.000000" stroke="none" 
	d="
M8.157206,51.856857 
	C6.715771,47.122536 8.307609,43.876972 12.432903,42.369564 
	C16.209738,40.989483 19.253860,42.628971 21.020920,46.212051 
	C22.788481,49.796146 21.373362,52.668900 18.459711,54.849003 
	C15.187219,57.297607 11.859331,56.348625 8.157206,51.856857 
z"/>
<path fill="#6ACE9C" opacity="1.000000" stroke="none" 
	d="
M179.038849,110.232651 
	C181.728531,108.800217 184.374161,106.715019 186.785995,106.957275 
	C188.696121,107.149132 191.590286,110.088730 191.751572,112.001770 
	C191.957657,114.446060 190.474792,117.872803 188.548950,119.385490 
	C187.063492,120.552277 183.330627,120.215012 181.387756,119.130234 
	C178.327881,117.421783 177.109055,114.201088 179.038849,110.232651 
z"/>
<path fill="#F27A81" opacity="1.000000" stroke="none" 
	d="
M18.573002,172.186035 
	C19.666277,175.047668 21.315746,177.833069 20.919493,180.288300 
	C20.632986,182.063507 17.607069,184.662415 15.843215,184.630951 
	C13.318833,184.585953 9.859264,183.074982 8.620659,181.066559 
	C7.535053,179.306244 8.178516,175.500671 9.457824,173.488312 
	C11.418032,170.404907 14.900900,170.136063 18.573002,172.186035 
z"/>
<path fill="#BFE4F2" opacity="1.000000" stroke="none" 
	d="
M81.091721,216.979172 
	C78.264771,219.700714 75.031998,220.606506 72.391869,218.280579 
	C70.571281,216.676666 68.956123,213.580063 69.155251,211.318390 
	C69.333229,209.296967 71.818741,206.513657 73.845207,205.893448 
	C75.842735,205.282074 79.060890,206.334641 80.816483,207.781784 
	C83.717201,210.172867 83.625992,213.566498 81.091721,216.979172 
z"/>
<path fill="#F6CA58" opacity="1.000000" stroke="none" 
	d="
M129.365570,19.206268 
	C125.948769,22.418879 122.262917,22.994560 119.565407,19.645828 
	C118.035774,17.746908 117.317833,14.164660 117.943161,11.790662 
	C118.989235,7.819387 123.775719,6.457103 127.296837,8.292830 
	C131.108932,10.280262 131.946564,14.091021 129.365570,19.206268 
z"/>
<path fill="#F6CA58" opacity="1.000000" stroke="none" 
	d="
M122.465897,57.151314 
	C127.245445,56.838741 130.293655,58.586403 130.955734,63.135475 
	C131.543671,67.175087 129.451859,69.893211 125.652084,70.860924 
	C122.002243,71.790443 119.041527,70.205994 117.644791,66.736824 
	C115.814735,62.191395 117.962227,59.167301 122.465897,57.151314 
z"/>
<path fill="#F6CA58" opacity="1.000000" stroke="none" 
	d="
M126.371536,156.252838 
	C130.312851,158.243683 132.227432,161.390427 130.626038,164.977097 
	C129.672379,167.113007 126.707489,169.479431 124.515175,169.615051 
	C122.341179,169.749542 119.155991,167.745422 117.904137,165.746307 
	C114.910027,160.964951 119.360451,155.917130 126.371536,156.252838 
z"/>
<path fill="#C2E8F6" opacity="1.000000" stroke="none" 
	d="
M82.470062,66.254616 
	C80.714462,70.030434 77.886909,71.998779 74.373405,70.774277 
	C72.241196,70.031158 69.611183,67.659805 69.264282,65.662262 
	C68.873711,63.413315 70.182793,60.095291 71.912361,58.498695 
	C73.278076,57.237980 76.682251,57.111912 78.677887,57.847382 
	C82.054375,59.091743 83.555443,62.114586 82.470062,66.254616 
z"/>
<path fill="#C2E8F6" opacity="1.000000" stroke="none" 
	d="
M73.566971,169.716949 
	C69.710693,167.772903 67.563347,164.747055 69.213165,161.158417 
	C70.239754,158.925385 73.296486,156.368515 75.519516,156.294861 
	C77.760643,156.220642 81.000458,158.531952 82.206688,160.690125 
	C84.813972,165.355011 80.495628,169.860153 73.566971,169.716949 
z"/>
<path fill="#6CD19E" opacity="1.000000" stroke="none" 
	d="
M182.741394,171.349518 
	C185.422043,171.748825 188.275253,171.663391 189.953888,173.025497 
	C193.063187,175.548508 193.075592,179.157013 190.660156,182.401642 
	C188.367111,185.481873 183.799332,185.931824 180.878540,183.431458 
	C177.792831,180.789917 177.186569,177.548157 179.395920,174.089050 
	C180.073334,173.028458 181.370621,172.363785 182.741394,171.349518 
z"/>
<path fill="#6CD19E" opacity="1.000000" stroke="none" 
	d="
M183.534927,42.171265 
	C189.339569,42.346104 192.062012,44.458160 192.173904,48.647743 
	C192.276581,52.493546 190.378448,55.109566 186.637268,55.862621 
	C182.640091,56.667206 179.681595,54.796391 178.502686,50.979736 
	C177.199814,46.761799 179.351547,43.972397 183.534927,42.171265 
z"/>
<path fill="#F27A81" opacity="1.000000" stroke="none" 
	d="
M13.413988,120.472809 
	C8.903544,119.122658 6.649361,116.026848 8.054888,112.177399 
	C8.934749,109.767639 12.147516,106.743980 14.372013,106.695778 
	C16.678633,106.645805 19.932415,109.380287 21.207239,111.741676 
	C23.399555,115.802567 19.881380,119.610512 13.413988,120.472809 
z"/>
<path fill="#F1F1F1" opacity="1.000000" stroke="none" 
	d="
M34.752510,169.798096 
	C31.771322,170.362473 29.192884,170.840790 25.266375,171.569183 
	C30.041159,166.478256 33.903271,162.360428 38.168243,157.813065 
	C40.209644,161.105438 42.049091,164.072113 44.060524,167.316162 
	C40.801342,168.193008 37.978302,168.952499 34.752510,169.798096 
z"/>
<path fill="#F1F1F1" opacity="1.000000" stroke="none" 
	d="
M166.305511,162.722473 
	C168.887375,165.473450 171.226288,167.966995 173.565201,170.460526 
	C173.394913,170.814651 173.224640,171.168777 173.054367,171.522903 
	C167.471115,170.216034 161.887863,168.909164 155.758514,167.474472 
	C157.743027,164.173981 159.507874,161.238815 162.012451,157.073380 
	C163.544724,159.113205 164.803635,160.789108 166.305511,162.722473 
z"/>
<path fill="#F1F1F1" opacity="1.000000" stroke="none" 
	d="
M163.899246,92.115540 
	C160.264343,89.168846 156.914505,86.435791 153.171249,83.381767 
	C154.971039,81.430969 156.708252,79.548004 158.910141,77.161369 
	C162.780258,83.396362 166.471909,89.343842 170.163559,95.291328 
	C169.892242,95.608185 169.620926,95.925049 169.349625,96.241913 
	C167.627838,94.937660 165.906067,93.633415 163.899246,92.115540 
z"/>
<path fill="#F3F3F3" opacity="1.000000" stroke="none" 
	d="
M45.329651,81.879974 
	C45.753235,82.699333 46.186535,83.609383 45.992390,83.772461 
	C40.967888,87.992958 35.878078,92.135719 30.799568,96.291931 
	C30.439602,95.992363 30.079638,95.692787 29.719671,95.393219 
	C33.312992,89.509918 36.906315,83.626625 40.834507,77.195053 
	C42.416489,78.857796 43.731747,80.240204 45.329651,81.879974 
z"/>
<path fill="#EEEEEE" opacity="1.000000" stroke="none" 
	d="
M38.646927,146.155396 
	C35.591686,141.289825 32.775078,136.682510 29.958469,132.075211 
	C30.295345,131.695541 30.632221,131.315872 30.969097,130.936218 
	C35.308578,134.396606 39.648056,137.857010 44.703922,141.888672 
	C42.585487,143.536194 40.735523,144.974915 38.646927,146.155396 
z"/>
<path fill="#EEEEEE" opacity="1.000000" stroke="none" 
	d="
M160.558838,137.590912 
	C163.585815,135.185104 166.340866,133.011337 169.095932,130.837570 
	C169.428787,131.151993 169.761658,131.466415 170.094513,131.780853 
	C166.975601,136.852005 163.856689,141.923141 160.583069,147.245850 
	C158.760117,145.311890 157.199661,143.656387 155.470627,141.822037 
	C157.280182,140.319519 158.783539,139.071243 160.558838,137.590912 
z"/>
<path fill="#EBEBEB" opacity="1.000000" stroke="none" 
	d="
M31.664856,56.805115 
	C35.898933,57.603756 39.749485,58.509861 44.090332,59.531342 
	C42.666100,61.885132 41.418587,63.946865 39.727371,66.741890 
	C36.700825,63.219662 33.991077,60.066116 31.664856,56.805115 
z"/>
<path fill="#EBEBEB" opacity="1.000000" stroke="none" 
	d="
M156.371109,60.555950 
	C159.984299,58.967690 163.759964,57.716778 167.535614,56.465866 
	C167.809845,56.981831 168.084091,57.497795 168.358322,58.013760 
	C165.295639,60.327469 162.232971,62.641178 159.089493,65.015930 
	C158.720016,64.419975 157.626801,62.656639 156.371109,60.555950 
z"/>
</svg>