<?xml version="1.0" encoding="UTF-8"?>
<svg version="1.1" xmlns="http://www.w3.org/2000/svg" width="225" height="225">
<path d="M0 0 C74.25 0 148.5 0 225 0 C225 74.25 225 148.5 225 225 C150.75 225 76.5 225 0 225 C0 150.75 0 76.5 0 0 Z " fill="#FEFEFD" transform="translate(0,0)"/>
<path d="M0 0 C4.95 0 9.9 0 15 0 C15 4.62 15 9.24 15 14 C21.93 14 28.86 14 36 14 C36 9.38 36 4.76 36 0 C40.62 0 45.24 0 50 0 C50 4.62 50 9.24 50 14 C57.26 14 64.52 14 72 14 C72 9.38 72 4.76 72 0 C76.62 0 81.24 0 86 0 C86 4.62 86 9.24 86 14 C87.21816406 13.95359375 88.43632812 13.9071875 89.69140625 13.859375 C91.31507948 13.82183342 92.93877945 13.78543583 94.5625 13.75 C95.36236328 13.71648438 96.16222656 13.68296875 96.98632812 13.6484375 C102.8772469 13.55225923 106.2788789 14.3818355 111 18 C115.230311 22.8737283 115.52753422 27.70899174 115.25 33.9375 C115.23195312 34.71673828 115.21390625 35.49597656 115.1953125 36.29882812 C115.14866383 38.19976131 115.07693829 40.10005169 115 42 C119.62 42 124.24 42 129 42 C129 46.95 129 51.9 129 57 C124.38 57 119.76 57 115 57 C115 63.6 115 70.2 115 77 C119.62 77 124.24 77 129 77 C129 81.95 129 86.9 129 92 C124.38 92 119.76 92 115 92 C115 98.93 115 105.86 115 113 C119.62 113 124.24 113 129 113 C129 117.62 129 122.24 129 127 C124.05 127 119.1 127 114 127 C114.04640625 128.30195313 114.0928125 129.60390625 114.140625 130.9453125 C114.17815847 132.67185196 114.21455693 134.39841636 114.25 136.125 C114.30027344 137.40890625 114.30027344 137.40890625 114.3515625 138.71875 C114.43779608 144.32393239 113.89018483 147.64669793 110 152 C105.54072739 155.88861615 100.79230179 155.35050318 95.1875 155.1875 C94.30384766 155.17396484 93.42019531 155.16042969 92.50976562 155.14648438 C90.33957977 155.11129217 88.16970967 155.05748985 86 155 C86 159.95 86 164.9 86 170 C81.05 170 76.1 170 71 170 C71 165.38 71 160.76 71 156 C64.07 156 57.14 156 50 156 C50 160.62 50 165.24 50 170 C45.38 170 40.76 170 36 170 C36 165.38 36 160.76 36 156 C29.07 156 22.14 156 15 156 C15 160.62 15 165.24 15 170 C10.05 170 5.1 170 0 170 C0 165.05 0 160.1 0 155 C-1.30195312 155.04640625 -2.60390625 155.0928125 -3.9453125 155.140625 C-5.67185196 155.17815847 -7.39841636 155.21455693 -9.125 155.25 C-9.9809375 155.28351563 -10.836875 155.31703125 -11.71875 155.3515625 C-17.32393239 155.43779608 -20.64669793 154.89018483 -25 151 C-28.88861615 146.54072739 -28.35050318 141.79230179 -28.1875 136.1875 C-28.17396484 135.30384766 -28.16042969 134.42019531 -28.14648438 133.50976562 C-28.11129217 131.33957977 -28.05748985 129.16970967 -28 127 C-32.62 127 -37.24 127 -42 127 C-42 122.38 -42 117.76 -42 113 C-37.38 113 -32.76 113 -28 113 C-28 106.07 -28 99.14 -28 92 C-32.62 92 -37.24 92 -42 92 C-42 87.38 -42 82.76 -42 78 C-37.38 78 -32.76 78 -28 78 C-28 70.74 -28 63.48 -28 56 C-32.62 56 -37.24 56 -42 56 C-42 51.71 -42 47.42 -42 43 C-37.38 43 -32.76 43 -28 43 C-28.06960937 41.63746094 -28.13921875 40.27492187 -28.2109375 38.87109375 C-28.26724263 37.0599454 -28.32183982 35.24874339 -28.375 33.4375 C-28.42527344 32.54224609 -28.47554687 31.64699219 -28.52734375 30.72460938 C-28.6569961 24.82542727 -27.78939802 21.66294133 -23.68994141 17.35961914 C-20.42724376 14.73466058 -17.856041 13.7449137 -13.671875 13.8046875 C-12.87265625 13.81113281 -12.0734375 13.81757812 -11.25 13.82421875 C-10.425 13.84097656 -9.6 13.85773437 -8.75 13.875 C-7.90953125 13.88402344 -7.0690625 13.89304687 -6.203125 13.90234375 C-4.13529396 13.92584183 -2.06761005 13.96171092 0 14 C0 9.38 0 4.76 0 0 Z " fill="#FE6A02" transform="translate(66,24)"/>
<path d="M0 0 C6.27 0 12.54 0 19 0 C19 6.27 19 12.54 19 19 C15.04 19 11.08 19 7 19 C7 16.69 7 14.38 7 12 C4.69 12 2.38 12 0 12 C0 8.04 0 4.08 0 0 Z " fill="#FFFAF7" transform="translate(147,52)"/>
<path d="M0 0 C6.6 0 13.2 0 20 0 C20 3.96 20 7.92 20 12 C16.7 12 13.4 12 10 12 C10 14.31 10 16.62 10 19 C6.7 19 3.4 19 0 19 C0 12.73 0 6.46 0 0 Z " fill="#FEFAF7" transform="translate(52,52)"/>
<path d="M0 0 C3.3 0 6.6 0 10 0 C10 2.64 10 5.28 10 8 C13.3 8 16.6 8 20 8 C20 11.3 20 14.6 20 18 C13.4 18 6.8 18 0 18 C0 12.06 0 6.12 0 0 Z " fill="#FFFBF9" transform="translate(52,147)"/>
<path d="M0 0 C3.63 0 7.26 0 11 0 C11 5.94 11 11.88 11 18 C4.73 18 -1.54 18 -8 18 C-8 14.7 -8 11.4 -8 8 C-5.36 8 -2.72 8 0 8 C0 5.36 0 2.72 0 0 Z " fill="#FFFEFD" transform="translate(155,147)"/>
<path d="M0 0 C1.258125 -0.04125 2.51625 -0.0825 3.8125 -0.125 C4.52019531 -0.14820312 5.22789063 -0.17140625 5.95703125 -0.1953125 C8 0 8 0 11 2 C11.25 5.0625 11.25 5.0625 11 8 C10 9 10 9 8.15234375 9.09765625 C6.1015625 9.06510417 4.05078125 9.03255208 2 9 C2 10.98 2 12.96 2 15 C1.34 15 0.68 15 0 15 C0 10.05 0 5.1 0 0 Z " fill="#FEF2EA" transform="translate(95,100)"/>
<path d="M0 0 C3.56289027 0.66804193 4.74851506 1.79144161 7 4.5625 C6.01 4.8925 5.02 5.2225 4 5.5625 C4 4.9025 4 4.2425 4 3.5625 C2.00045254 3.51995644 -0.00041636 3.52169217 -2 3.5625 C-3.40432936 4.73968985 -3.40432936 4.73968985 -3.125 8.0625 C-3.40432936 11.38531015 -3.40432936 11.38531015 -2 12.5625 C-0.33382885 12.60313832 1.33388095 12.605221 3 12.5625 C3.33 11.5725 3.66 10.5825 4 9.5625 C2.68 9.5625 1.36 9.5625 0 9.5625 C0 8.9025 0 8.2425 0 7.5625 C2.31 7.5625 4.62 7.5625 7 7.5625 C7.1875 10.4375 7.1875 10.4375 7 13.5625 C3.2794164 16.04288907 1.40203429 16.02587203 -3 15.5625 C-5.4375 13.9375 -5.4375 13.9375 -7 11.5625 C-7.64850195 7.75255105 -7.28071139 6.05914323 -5.375 2.6875 C-3 0.5625 -3 0.5625 0 0 Z " fill="#FFE8DB" transform="translate(115,99.4375)"/>
<path d="M0 0 C0.99 0 1.98 0 3 0 C3.83986084 1.93467942 4.67168027 3.87285129 5.5 5.8125 C5.9640625 6.89144531 6.428125 7.97039062 6.90625 9.08203125 C8 12 8 12 8 15 C7.01 14.67 6.02 14.34 5 14 C5 13.01 5 12.02 5 11 C2.69 11 0.38 11 -2 11 C-2.33 12.32 -2.66 13.64 -3 15 C-3.99 14.67 -4.98 14.34 -6 14 C-5.19074658 11.85294019 -4.37750887 9.7073817 -3.5625 7.5625 C-3.11003906 6.36753906 -2.65757813 5.17257813 -2.19140625 3.94140625 C-1 1 -1 1 0 0 Z " fill="#FEE5D7" transform="translate(129,100)"/>
<path d="M0 0 C3.63 0 7.26 0 11 0 C11 0.66 11 1.32 11 2 C8.36 2 5.72 2 3 2 C3 3.32 3 4.64 3 6 C5.31 6 7.62 6 10 6 C10 6.99 10 7.98 10 9 C7.69 9 5.38 9 3 9 C3 10.98 3 12.96 3 15 C2.01 15 1.02 15 0 15 C0 10.05 0 5.1 0 0 Z " fill="#FED7C1" transform="translate(82,100)"/>
<path d="M0 0 C2.9375 0.125 2.9375 0.125 6 1 C7.875 3.0625 7.875 3.0625 9 5 C6.69 5 4.38 5 2 5 C2 5.66 2 6.32 2 7 C3.32 7 4.64 7 6 7 C5.67 8.32 5.34 9.64 5 11 C2.625 11.125 2.625 11.125 0 11 C-2 9 -2 9 -2.25 5.5 C-2 2 -2 2 0 0 Z " fill="#FF6D0E" transform="translate(113,102)"/>
<path d="M0 0 C2.31 0 4.62 0 7 0 C7.1875 2.875 7.1875 2.875 7 6 C3.3558226 8.4294516 1.28758728 8.16179575 -3 8 C0 6 0 6 3 5 C3.33 4.01 3.66 3.02 4 2 C2.68 2 1.36 2 0 2 C0 1.34 0 0.68 0 0 Z " fill="#FEE1D2" transform="translate(115,107)"/>
<path d="M0 0 C2.7920147 1.39600735 3.00162933 3.00416384 4.125 5.875 C4.47820312 6.75929688 4.83140625 7.64359375 5.1953125 8.5546875 C6 11 6 11 6 14 C5.01 13.67 4.02 13.34 3 13 C3 12.01 3 11.02 3 10 C1.35 10 -0.3 10 -2 10 C-1.484375 9.649375 -0.96875 9.29875 -0.4375 8.9375 C1.40146383 6.90531273 1.40146383 6.90531273 0.6875 3.3125 C0.460625 2.219375 0.23375 1.12625 0 0 Z " fill="#FEEEE4" transform="translate(131,101)"/>
<path d="M0 0 C1.65 0 3.3 0 5 0 C5.66 1.32 6.32 2.64 7 4 C5 6 5 6 2.375 6.125 C1.59125 6.08375 0.8075 6.0425 0 6 C0 4.02 0 2.04 0 0 Z " fill="#FE7924" transform="translate(97,102)"/>
<path d="M0 0 C0.66 0 1.32 0 2 0 C2.680625 1.670625 2.680625 1.670625 3.375 3.375 C4.72465986 6.96199008 4.72465986 6.96199008 7 9 C2.25 8.25 2.25 8.25 0 6 C-0.125 2.875 -0.125 2.875 0 0 Z " fill="#FFF1E9" transform="translate(108,105)"/>
<path d="M0 0 C1.32 0 2.64 0 4 0 C4 1.98 4 3.96 4 6 C2.68 6.33 1.36 6.66 0 7 C0.185625 6.21625 0.37125 5.4325 0.5625 4.625 C1.25962266 2.02910225 1.25962266 2.02910225 0 0 Z " fill="#FEEADE" transform="translate(102,102)"/>
<path d="M0 0 C2.1385485 2.1385485 2.42655063 3.13275314 3 6 C1.35 6 -0.3 6 -2 6 C-1.34 4.02 -0.68 2.04 0 0 Z " fill="#FE6F18" transform="translate(130,103)"/>
</svg>
