<?xml version="1.0" encoding="UTF-8"?>
<svg version="1.1" xmlns="http://www.w3.org/2000/svg" width="225" height="225">
<path d="M0 0 C74.25 0 148.5 0 225 0 C225 74.25 225 148.5 225 225 C150.75 225 76.5 225 0 225 C0 150.75 0 76.5 0 0 Z " fill="#4D6BFF" transform="translate(0,0)"/>
<path d="M0 0 C74.25 0 148.5 0 225 0 C225 74.25 225 148.5 225 225 C150.75 225 76.5 225 0 225 C0 150.75 0 76.5 0 0 Z M49 37 C48.13117187 37.70769531 47.26234375 38.41539063 46.3671875 39.14453125 C28.54671795 54.26740679 16.37195829 77.78031372 14 101 C13.17104854 113.62889524 13.65197076 125.75288004 17 138 C17.40025391 139.49466797 17.40025391 139.49466797 17.80859375 141.01953125 C25.8279742 167.64387435 43.83213153 187.93497902 68.12109375 201.109375 C89.94504432 212.22798432 116.60002851 214.68452107 139.97900391 207.38183594 C153.16518728 203.04639302 165.40581808 197.0725759 176 188 C176.81082031 187.33355469 177.62164062 186.66710937 178.45703125 185.98046875 C191.76677877 174.63344898 199.78407051 160.11701718 206 144 C206.2990625 143.22914063 206.598125 142.45828125 206.90625 141.6640625 C215.19528467 118.70343645 212.05639756 92.7652548 202 71 C197.91084333 62.45692621 193.1752404 55.1652589 187 48 C186.47019531 47.32582031 185.94039062 46.65164062 185.39453125 45.95703125 C172.47227383 29.97172022 152.64366045 20.54577225 133 16 C131.82957153 15.72506714 131.82957153 15.72506714 130.63549805 15.44458008 C101.78680819 9.12942995 71.27929123 18.05929692 49 37 Z " fill="#FEFEFF" transform="translate(0,0)"/>
<path d="M0 0 C-0.6895753 4.76433842 -2.49970302 8.8556419 -4.40234375 13.234375 C-4.92643829 14.45572647 -4.92643829 14.45572647 -5.46112061 15.70175171 C-6.61500093 18.38664641 -7.77607289 21.0683622 -8.9375 23.75 C-9.74545462 25.62472691 -10.55314947 27.49956579 -11.3605957 29.37451172 C-17.80813057 44.32555862 -24.33528032 59.24197471 -30.89624023 74.14355469 C-31.24900528 74.94506958 -31.60177032 75.74658447 -31.96522522 76.5723877 C-32.65338302 78.13278598 -33.34354268 79.69230321 -34.03587341 81.25085449 C-35.71876537 85.04619875 -37.36041316 88.85147443 -38.93212891 92.69433594 C-39.24213333 93.43948456 -39.55213776 94.18463318 -39.87153625 94.95236206 C-40.45459133 96.35795169 -41.02579729 97.76853697 -41.58293152 99.18460083 C-42.37036133 101.06591797 -42.37036133 101.06591797 -44 104 C-46.10185242 104.68338013 -46.10185242 104.68338013 -48 105 C-50.56839386 99.627169 -53.13175706 94.25197902 -55.69042969 88.87451172 C-56.5620867 87.04442201 -57.43512964 85.21499175 -58.30957031 83.38623047 C-59.56417499 80.76180231 -60.81382253 78.1350649 -62.0625 75.5078125 C-62.65309204 74.27649094 -62.65309204 74.27649094 -63.25561523 73.02029419 C-63.61598877 72.25965668 -63.9763623 71.49901917 -64.34765625 70.71533203 C-64.66742432 70.04470734 -64.98719238 69.37408264 -65.31665039 68.68313599 C-66 67 -66 67 -66 65 C-66.8245166 64.74621582 -67.6490332 64.49243164 -68.49853516 64.23095703 C-72.48049734 62.83107882 -76.21706534 61.11862097 -80.0234375 59.3046875 C-80.76961334 58.95238068 -81.51578918 58.60007385 -82.28457642 58.23709106 C-84.64956962 57.11957157 -87.01230323 55.99736523 -89.375 54.875 C-90.98552973 54.11296975 -92.59620535 53.35124774 -94.20703125 52.58984375 C-98.13971792 50.73012511 -102.07038604 48.86620201 -106 47 C-106 45.68 -106 44.36 -106 43 C-105.14398193 42.63463135 -104.28796387 42.2692627 -103.40600586 41.89282227 C-86.75517706 34.78306121 -70.12149571 27.63620114 -53.52972412 20.38955688 C-51.06741508 19.31464566 -48.60438857 18.2413961 -46.14111328 17.16870117 C-44.52635204 16.4653668 -42.9116058 15.76199801 -41.296875 15.05859375 C-40.51170502 14.71656418 -39.72653503 14.37453461 -38.91757202 14.0221405 C-34.44304202 12.07110196 -29.97426003 10.10767562 -25.51063538 8.13182068 C-22.88859603 6.97320445 -20.262763 5.82338793 -17.63595581 4.67562866 C-15.86123995 3.89640036 -14.09178583 3.10522266 -12.32250977 2.3137207 C-11.27377686 1.85698975 -10.22504395 1.40025879 -9.14453125 0.9296875 C-8.24065674 0.52991699 -7.33678223 0.13014648 -6.40551758 -0.28173828 C-3.78546016 -1.06405929 -2.53138284 -0.9359673 0 0 Z " fill="#FDFDFF" transform="translate(158,68)"/>
</svg>
