<svg version="1.1" id="Layer_1" xmlns="http://www.w3.org/2000/svg" xmlns:xlink="http://www.w3.org/1999/xlink" x="0px" y="0px"
	 width="100%" viewBox="0 0 225 225" enable-background="new 0 0 225 225" xml:space="preserve">
<path fill="#FEFFFF" opacity="1.000000" stroke="none" 
	d="
M124.000000,226.000000 
	C82.666672,226.000000 41.833340,226.000000 1.000005,226.000000 
	C1.000004,151.000000 1.000004,76.000015 1.000002,1.000015 
	C75.999992,1.000010 150.999985,1.000010 225.999969,1.000005 
	C225.999985,75.999985 225.999985,150.999969 226.000000,225.999969 
	C192.166672,226.000000 158.333328,226.000000 124.000000,226.000000 
M138.058853,137.761200 
	C136.439377,141.478210 134.953888,145.239746 138.801392,148.516983 
	C141.717194,151.000626 144.830048,150.666641 148.598206,148.905853 
	C151.733109,151.603912 154.868011,154.301956 157.995178,157.752136 
	C155.937057,161.712082 154.938034,165.586563 159.197495,168.827850 
	C162.604294,171.420273 165.795624,169.695770 169.221756,168.789139 
	C172.150787,171.526169 175.079834,174.263199 177.958008,177.754822 
	C175.699509,181.721237 174.879120,185.573898 179.145004,188.793793 
	C182.536942,191.354019 186.065216,190.358215 190.326767,185.782578 
	C190.780228,185.295700 191.236984,184.811279 191.674728,184.310440 
	C228.258316,142.453094 228.190582,84.208382 191.511612,42.500378 
	C186.542725,36.850208 183.487640,35.595856 179.773819,37.801647 
	C174.215134,41.103161 176.375198,45.607155 177.312607,50.179916 
	C174.531815,53.058365 171.751038,55.936817 168.266403,58.618431 
	C165.047592,56.655888 161.762024,55.796227 158.640625,58.658199 
	C155.390976,61.637779 155.544739,65.012794 157.856445,68.527832 
	C158.096481,68.892815 157.963089,69.503387 157.344528,70.156776 
	C154.199936,72.863991 151.055359,75.571213 147.218399,77.878532 
	C143.956879,76.159157 140.878372,76.247414 138.245895,79.030533 
	C135.755859,81.663063 135.865280,84.594368 137.497681,87.663147 
	C137.861359,88.346855 137.878250,89.215034 137.386536,90.149017 
	C134.239319,92.809555 131.092087,95.470085 127.383720,97.726547 
	C117.762901,90.415718 108.730446,90.544289 98.369019,97.997818 
	C95.230118,95.331352 92.091217,92.664894 88.945236,89.239037 
	C90.557114,85.521523 92.046753,81.758987 88.198410,78.482689 
	C85.282158,75.999931 82.169739,76.332863 78.402443,78.093475 
	C75.269707,75.395706 72.136978,72.697937 69.008881,69.248322 
	C71.480400,63.531948 71.237511,59.466671 67.318237,58.120922 
	C64.619476,57.194260 61.155003,58.497604 57.777176,58.201908 
	C54.869255,55.468369 51.961330,52.734825 49.079849,49.247208 
	C49.498894,46.582397 50.889606,43.601646 50.146042,41.314865 
	C48.274536,35.559155 42.082417,35.513153 37.008327,40.859020 
	C2.503181,77.212318 -1.686739,132.932404 27.145498,173.945709 
	C30.573515,178.821976 34.613178,183.295746 38.626553,187.722916 
	C41.114555,190.467438 44.416477,191.117279 47.633362,188.899796 
	C50.936287,186.623001 51.856728,183.503143 49.986954,179.751373 
	C49.554714,178.884094 49.316875,177.919907 49.642517,176.828262 
	C52.438499,173.948746 55.234486,171.069244 58.734600,168.384262 
	C61.953293,170.341690 65.235977,171.201492 68.359360,168.342972 
	C71.617722,165.360962 71.428543,161.985153 69.144066,158.471909 
	C68.905212,158.104584 69.036766,157.496414 69.655037,156.843430 
	C72.799767,154.136124 75.944496,151.428818 79.781570,149.121460 
	C83.043098,150.840851 86.121628,150.752563 88.754089,147.969467 
	C91.244141,145.336960 91.134727,142.405609 89.502312,139.336823 
	C89.138626,138.653107 89.121727,137.784943 89.613449,136.850983 
	C92.760674,134.190445 95.907906,131.529907 99.616516,129.272736 
	C109.243950,136.582413 118.270287,136.454193 128.631699,129.000427 
	C131.772736,131.667526 134.913757,134.334610 138.058853,137.761200 
z"/>
<path fill="#43A6F5" opacity="1.000000" stroke="none" 
	d="
M177.954407,50.001190 
	C176.375198,45.607155 174.215134,41.103161 179.773819,37.801647 
	C183.487640,35.595856 186.542725,36.850208 191.511612,42.500378 
	C228.190582,84.208382 228.258316,142.453094 191.674728,184.310440 
	C191.236984,184.811279 190.780228,185.295700 190.326767,185.782578 
	C186.065216,190.358215 182.536942,191.354019 179.145004,188.793793 
	C174.879120,185.573898 175.699509,181.721237 178.330444,177.364471 
	C195.927460,160.341019 203.822128,139.512573 204.848450,116.104256 
	C205.658218,97.634819 200.739197,80.267456 190.670059,64.711708 
	C187.181702,59.322605 182.235001,54.877483 177.954407,50.001190 
z"/>
<path fill="#43A6F5" opacity="1.000000" stroke="none" 
	d="
M48.989586,177.000320 
	C49.316875,177.919907 49.554714,178.884094 49.986954,179.751373 
	C51.856728,183.503143 50.936287,186.623001 47.633362,188.899796 
	C44.416477,191.117279 41.114555,190.467438 38.626553,187.722916 
	C34.613178,183.295746 30.573515,178.821976 27.145498,173.945709 
	C-1.686739,132.932404 2.503181,77.212318 37.008327,40.859020 
	C42.082417,35.513153 48.274536,35.559155 50.146042,41.314865 
	C50.889606,43.601646 49.498894,46.582397 48.713516,49.632137 
	C48.041298,50.139664 47.648453,50.179527 47.441902,50.396633 
	C31.201078,67.467300 22.836483,87.970329 22.129583,111.340408 
	C21.576601,129.621979 26.214035,146.866196 36.292980,162.245850 
	C39.819237,167.626633 44.717728,172.108154 48.989586,177.000320 
z"/>
<path fill="#8FC9F9" opacity="1.000000" stroke="none" 
	d="
M49.316051,176.914291 
	C44.717728,172.108154 39.819237,167.626633 36.292980,162.245850 
	C26.214035,146.866196 21.576601,129.621979 22.129583,111.340408 
	C22.836483,87.970329 31.201078,67.467300 47.441902,50.396633 
	C47.648453,50.179527 48.041298,50.139664 48.700298,50.009178 
	C51.961330,52.734825 54.869255,55.468369 57.794891,58.838226 
	C37.171757,83.301010 30.019289,110.254913 41.269043,140.230225 
	C45.024738,150.237396 52.341549,158.908096 58.030472,168.189728 
	C55.234486,171.069244 52.438499,173.948746 49.316051,176.914291 
z"/>
<path fill="#8FC9F9" opacity="1.000000" stroke="none" 
	d="
M177.633514,50.090553 
	C182.235001,54.877483 187.181702,59.322605 190.670059,64.711708 
	C200.739197,80.267456 205.658218,97.634819 204.848450,116.104256 
	C203.822128,139.512573 195.927460,160.341019 178.355896,176.987183 
	C175.079834,174.263199 172.150787,171.526169 169.206238,168.153061 
	C189.808746,143.690811 197.048950,116.762161 185.735657,86.774895 
	C181.961334,76.770599 174.659531,68.097115 168.970245,58.815269 
	C171.751038,55.936817 174.531815,53.058365 177.633514,50.090553 
z"/>
<path fill="#43A6F5" opacity="1.000000" stroke="none" 
	d="
M168.618317,58.716850 
	C174.659531,68.097115 181.961334,76.770599 185.735657,86.774895 
	C197.048950,116.762161 189.808746,143.690811 169.079803,167.850800 
	C165.795624,169.695770 162.604294,171.420273 159.197495,168.827850 
	C154.938034,165.586563 155.937057,161.712082 158.349335,157.377258 
	C159.847702,156.078064 161.186890,155.315430 162.107254,154.205505 
	C179.274597,133.502548 181.679001,103.671577 167.694336,80.772270 
	C165.219589,76.720001 161.270966,73.567833 158.002960,70.000008 
	C157.963089,69.503387 158.096481,68.892815 157.856445,68.527832 
	C155.544739,65.012794 155.390976,61.637779 158.640625,58.658199 
	C161.762024,55.796227 165.047592,56.655888 168.618317,58.716850 
z"/>
<path fill="#43A6F5" opacity="1.000000" stroke="none" 
	d="
M58.382538,168.286987 
	C52.341549,158.908096 45.024738,150.237396 41.269043,140.230225 
	C30.019289,110.254913 37.171757,83.301010 57.922684,59.139408 
	C61.155003,58.497604 64.619476,57.194260 67.318237,58.120922 
	C71.237511,59.466671 71.480400,63.531948 68.655594,69.622406 
	C67.157204,70.919769 65.816589,71.680832 64.895950,72.790375 
	C47.718353,93.492424 45.313156,123.311478 59.304375,146.225861 
	C61.779068,150.278824 65.728203,153.431534 68.996460,156.999985 
	C69.036766,157.496414 68.905212,158.104584 69.144066,158.471909 
	C71.428543,161.985153 71.617722,165.360962 68.359360,168.342972 
	C65.235977,171.201492 61.953293,170.341690 58.382538,168.286987 
z"/>
<path fill="#8FC9F9" opacity="1.000000" stroke="none" 
	d="
M69.325745,156.921707 
	C65.728203,153.431534 61.779068,150.278824 59.304375,146.225861 
	C45.313156,123.311478 47.718353,93.492424 64.895950,72.790375 
	C65.816589,71.680832 67.157204,70.919769 68.653275,69.998322 
	C72.136978,72.697937 75.269707,75.395706 78.570572,78.457924 
	C68.991013,88.550972 64.056564,100.494850 64.192604,114.071518 
	C64.326836,127.467140 69.586922,139.120590 79.089218,148.721527 
	C75.944496,151.428818 72.799767,154.136124 69.325745,156.921707 
z"/>
<path fill="#8FC9F9" opacity="1.000000" stroke="none" 
	d="
M157.673737,70.078392 
	C161.270966,73.567833 165.219589,76.720001 167.694336,80.772270 
	C181.679001,103.671577 179.274597,133.502548 162.107254,154.205505 
	C161.186890,155.315430 159.847702,156.078064 158.353195,157.001190 
	C154.868011,154.301956 151.733109,151.603912 148.429733,148.541962 
	C158.007904,138.448990 162.943680,126.505646 162.807434,112.928841 
	C162.672989,99.533150 157.413284,87.879433 147.910767,78.278427 
	C151.055359,75.571213 154.199936,72.863991 157.673737,70.078392 
z"/>
<path fill="#43A6F5" opacity="1.000000" stroke="none" 
	d="
M127.943321,128.870331 
	C118.270287,136.454193 109.243950,136.582413 99.176018,128.777588 
	C89.920654,118.773193 90.028816,108.616776 99.056633,98.129761 
	C108.730446,90.544289 117.762901,90.415718 127.824081,98.222046 
	C137.077164,108.223915 136.968933,118.385727 127.943321,128.870331 
M108.806427,118.703064 
	C111.750237,121.026474 115.155602,121.708061 117.688393,118.839539 
	C119.267593,117.051003 120.523018,113.646233 119.887756,111.598366 
	C119.222069,109.452400 116.325638,107.149582 114.020195,106.634705 
	C112.235878,106.236214 109.388855,108.042549 107.853294,109.663544 
	C105.353539,112.302376 106.065575,115.433670 108.806427,118.703064 
z"/>
<path fill="#43A6F5" opacity="1.000000" stroke="none" 
	d="
M79.435394,148.921494 
	C69.586922,139.120590 64.326836,127.467140 64.192604,114.071518 
	C64.056564,100.494850 68.991013,88.550972 78.912796,78.551437 
	C82.169739,76.332863 85.282158,75.999931 88.198410,78.482689 
	C92.046753,81.758987 90.557114,85.521523 88.598885,89.613449 
	C87.459694,90.558510 86.457443,90.974762 85.905708,91.723145 
	C78.679924,101.524330 75.847099,112.266937 79.983139,124.050369 
	C81.742027,129.061356 83.268059,134.557816 88.945168,137.001694 
	C89.121727,137.784943 89.138626,138.653107 89.502312,139.336823 
	C91.134727,142.405609 91.244141,145.336960 88.754089,147.969467 
	C86.121628,150.752563 83.043098,150.840851 79.435394,148.921494 
z"/>
<path fill="#43A6F5" opacity="1.000000" stroke="none" 
	d="
M147.564575,78.078476 
	C157.413284,87.879433 162.672989,99.533150 162.807434,112.928841 
	C162.943680,126.505646 158.007904,138.448990 148.087219,148.449066 
	C144.830048,150.666641 141.717194,151.000626 138.801392,148.516983 
	C134.953888,145.239746 136.439377,141.478210 138.405777,137.384964 
	C139.544891,136.436737 140.545471,136.018402 141.097717,135.269455 
	C148.324005,125.469627 151.153656,114.728302 147.016159,102.946991 
	C145.256760,97.937126 143.731506,92.441162 138.054810,89.998276 
	C137.878250,89.215034 137.861359,88.346855 137.497681,87.663147 
	C135.865280,84.594368 135.755859,81.663063 138.245895,79.030533 
	C140.878372,76.247414 143.956879,76.159157 147.564575,78.078476 
z"/>
<path fill="#8FC9F9" opacity="1.000000" stroke="none" 
	d="
M89.279312,136.926331 
	C83.268059,134.557816 81.742027,129.061356 79.983139,124.050369 
	C75.847099,112.266937 78.679924,101.524330 85.905708,91.723145 
	C86.457443,90.974762 87.459694,90.558510 88.602417,89.993149 
	C92.091217,92.664894 95.230118,95.331352 98.712830,98.063789 
	C90.028816,108.616776 89.920654,118.773193 98.895325,128.575912 
	C95.907906,131.529907 92.760674,134.190445 89.279312,136.926331 
z"/>
<path fill="#8FC9F9" opacity="1.000000" stroke="none" 
	d="
M137.720673,90.073647 
	C143.731506,92.441162 145.256760,97.937126 147.016159,102.946991 
	C151.153656,114.728302 148.324005,125.469627 141.097717,135.269455 
	C140.545471,136.018402 139.544891,136.436737 138.403748,137.005219 
	C134.913757,134.334610 131.772736,131.667526 128.287506,128.935379 
	C136.968933,118.385727 137.077164,108.223915 128.104660,98.424088 
	C131.092087,95.470085 134.239319,92.809555 137.720673,90.073647 
z"/>
<path fill="#DFF0FD" opacity="1.000000" stroke="none" 
	d="
M108.543503,118.441513 
	C106.065575,115.433670 105.353539,112.302376 107.853294,109.663544 
	C109.388855,108.042549 112.235878,106.236214 114.020195,106.634705 
	C116.325638,107.149582 119.222069,109.452400 119.887756,111.598366 
	C120.523018,113.646233 119.267593,117.051003 117.688393,118.839539 
	C115.155602,121.708061 111.750237,121.026474 108.543503,118.441513 
z"/>
</svg>