<?xml version="1.0" encoding="UTF-8"?>
<svg version="1.1" xmlns="http://www.w3.org/2000/svg" width="225" height="225">
<path d="M0 0 C74.25 0 148.5 0 225 0 C225 74.25 225 148.5 225 225 C150.75 225 76.5 225 0 225 C0 150.75 0 76.5 0 0 Z " fill="#FEFEFE" transform="translate(0,0)"/>
<path d="M0 0 C2.4375 1.4375 2.4375 1.4375 4 4 C3.73828125 5.98828125 3.73828125 5.98828125 3.25 8.25 C2.73898263 11.38910667 2.77195927 12.60447172 4.3828125 15.3984375 C6.47195118 17.73335721 8.28234679 19.43314457 11 21 C13.51406692 21.13921543 15.55229313 20.79173051 18.0078125 20.2734375 C20 20 20 20 22.625 21.375 C24.21783812 24.41587278 23.94941809 25.07252538 23.3125 28.3125 C22.85396814 31.19742962 22.75250725 32.52907629 24.125 35.140625 C26.68855196 38.06022584 28.60869423 39.84257396 32.5546875 40.2890625 C34.2875664 40.22221554 36.01971998 40.13168037 37.75 40.015625 C40 40 40 40 42.6875 41.4375 C44.21570492 44.42113818 43.93073092 45.13457615 43.3125 48.3125 C42.79968001 51.34417114 42.70474063 52.51912436 44.3359375 55.17578125 C46.1636178 57.09985819 47.69160569 58.68223399 50 60 C52.74521226 59.70697173 54.08680993 58.94435261 56.4375 57.4375 C62.19851344 55.11288054 69.40143548 54.50578636 75.2578125 56.9375 C76.85465726 57.93293569 78.42920592 58.96394433 80 60 C83.91222718 59.55244738 86.14153468 57.7013721 88.81640625 54.953125 C90.72919638 51.79670564 90.29693733 48.8450174 89.91796875 45.26953125 C90 43 90 43 91.19140625 41.18359375 C93.59990154 39.60740785 94.92196278 39.91625648 97.75 40.25 C101.91845814 40.36630059 104.03151568 39.83748018 107.1875 37.0625 C109.1643975 34.81103341 109.98150741 33.68884891 110.0625 30.671875 C109.8153766 29.11705694 109.53734057 27.56679299 109.2265625 26.0234375 C109 24 109 24 110.5625 21.4375 C113.6264918 19.63053048 115.49278777 19.62689232 119 20 C119.99 20.33 120.98 20.66 122 21 C125.02351374 18.5719266 127.72945233 16.15788814 130 13 C130.1781645 10.46012009 129.79675679 8.46657743 129.26171875 5.98828125 C129 4 129 4 130.5625 1.4375 C133.74517603 -0.43946279 135.35949372 -0.66866442 139 0 C140.98200143 1.61689591 142.36945909 3.06969391 144 5 C144.59683594 5.62003906 145.19367188 6.24007812 145.80859375 6.87890625 C164.39423137 26.55142326 172.56551232 53.27507228 172.1484375 79.890625 C171.3634868 107.50544808 159.24126234 131.79025612 141 152 C138.12529507 153.43735246 136.18105412 153.38172649 133 153 C130.34311506 150.55286914 129.104045 149.06646129 128.75 145.4375 C128.8325 144.633125 128.915 143.82875 129 143 C129 138.68057183 128.83239123 138.17094294 126.0625 135.1875 C123.31978539 132.52897178 123.31978539 132.52897178 119.671875 131.94921875 C118.12103013 132.22908976 116.57263673 132.52297265 115.02734375 132.83203125 C113 133 113 133 110.375 131.0625 C108.77842923 127.50650147 109.38346091 125.79088084 110.0625 122.0703125 C109.97688892 119.23444537 109.03989066 118.11824302 107.1875 116 C104.02058174 113.16376397 102.02284634 112.66260864 97.8125 112.875 C96.5440625 112.96394531 96.5440625 112.96394531 95.25 113.0546875 C93 113 93 113 90.3125 111 C88.78139269 107.50032614 89.37721769 105.72204131 90.0859375 102.07421875 C89.93436436 98.41579441 87.47704801 96.57686514 84.95703125 94.15234375 C83.07522856 92.78315528 83.07522856 92.78315528 80.9140625 93.21875 C78.84330907 93.99640718 78.84330907 93.99640718 76.5625 95.5625 C70.80148656 97.88711946 63.59856452 98.49421364 57.7421875 96.0625 C56.14534274 95.06706431 54.57079408 94.03605567 53 93 C49.03110671 93.43924511 46.81152655 95.40221453 44.11328125 98.1875 C42.71453379 100.46475902 42.87977096 101.47357986 43.375 104.0625 C44 108 44 108 42.6875 111 C39.57061458 113.31954264 38.90194583 113.13546419 35.1875 112.875 C30.97715366 112.66260864 28.97941826 113.16376397 25.8125 116 C23.96010934 118.11824302 23.02311108 119.23444537 22.9375 122.0703125 C23.123125 123.08738281 23.123125 123.08738281 23.3125 124.125 C24 128 24 128 22.4375 131 C20 133 20 133 16.9375 133.375 C14 133 14 133 11 132 C8.02210138 134.45008727 5.30189827 136.89376026 3 140 C2.7333564 142.13444668 2.7333564 142.13444668 3.25 144.1875 C4 148 4 148 2.4375 151 C0 153 0 153 -2.9375 153.625 C-6.92286302 152.81166061 -8.48566502 150.9765804 -11 148 C-11.59683594 147.37996094 -12.19367187 146.75992188 -12.80859375 146.12109375 C-31.44625242 126.39351352 -39.60357353 99.60889537 -39.2109375 72.92578125 C-38.41550151 48.20343418 -29.35402776 25.50751614 -13 7 C-12.01684024 5.79491341 -11.03685714 4.58721491 -10.0625 3.375 C-6.89927421 -0.26750243 -4.74830495 -0.47483049 0 0 Z " fill="#43A5F5" transform="translate(46,36)"/>
<path d="M0 0 C2.4375 1.5625 2.4375 1.5625 4 4 C4.30996079 7.95200013 3.91273182 9.84295108 1.453125 12.9609375 C0.08226435 14.43598356 -1.29600916 15.90415843 -2.6796875 17.3671875 C-18.4090039 35.21493035 -25.04731037 58.46906664 -24.13183594 81.93798828 C-22.6417674 105.24376393 -12.50119759 126.49880241 4 143 C3.81597683 146.37375813 3.59820495 149.0239814 1.8125 151.9375 C-1.00547398 153.58941578 -2.79404815 153.5129523 -6 153 C-7.98200143 151.38310409 -9.36945909 149.93030609 -11 148 C-11.59683594 147.37996094 -12.19367187 146.75992188 -12.80859375 146.12109375 C-31.44625242 126.39351352 -39.60357353 99.60889537 -39.2109375 72.92578125 C-38.41550151 48.20343418 -29.35402776 25.50751614 -13 7 C-12.01684024 5.79491341 -11.03685714 4.58721491 -10.0625 3.375 C-6.89927421 -0.26750243 -4.74830495 -0.47483049 0 0 Z " fill="#43A5F5" transform="translate(46,36)"/>
<path d="M0 0 C1.98200143 1.61689591 3.36945909 3.06969391 5 5 C5.59683594 5.62003906 6.19367188 6.24007812 6.80859375 6.87890625 C25.39423137 26.55142326 33.56551232 53.27507228 33.1484375 79.890625 C32.3634868 107.50544808 20.24126234 131.79025612 2 152 C-0.87470493 153.43735246 -2.81894588 153.38172649 -6 153 C-8.56842451 150.63434585 -9.84262615 149.08570276 -10.34765625 145.6015625 C-9.88261016 142.12155468 -8.54537879 141.01142489 -6.0625 138.5625 C10.73253786 120.76240476 18.38691005 97.21750226 18.1484375 72.96484375 C17.33981924 51.36622454 9.59093859 31.05659567 -5.45751953 15.42333984 C-8.85506246 11.76623688 -9.86369682 8.9780293 -10 4 C-7.35056658 -0.13311614 -4.75603111 -0.87355673 0 0 Z " fill="#43A5F5" transform="translate(185,36)"/>
<path d="M0 0 C1.1055189 0.93590504 2.20935453 1.87379858 3.3125 2.8125 C4.23482422 3.59560547 4.23482422 3.59560547 5.17578125 4.39453125 C6.85424679 5.87172469 8.43882034 7.40039131 10 9 C8.32768896 12.70233567 6.04966646 15.82987705 3.6875 19.125 C-1.9903207 27.20244344 -6.34251274 35.44965516 -9 45 C-9.309375 46.06541016 -9.309375 46.06541016 -9.625 47.15234375 C-14.88971131 68.54023347 -8.82599191 89.85303215 2.21875 108.28515625 C4.54699126 111.83368186 7.10893712 114.89739594 10 118 C8.59155282 121.21524305 6.89655214 123.32183868 4.375 125.75 C3.74335937 126.36359375 3.11171875 126.9771875 2.4609375 127.609375 C1.97882812 128.06828125 1.49671875 128.5271875 1 129 C-15.93863513 113.12002956 -25.00472559 91.42858579 -26.1875 68.33984375 C-26.6156896 42.4611351 -18.24214569 20.12800538 -1 1 C-0.67 0.67 -0.34 0.34 0 0 Z " fill="#8FC9F8" transform="translate(47,48)"/>
<path d="M0 0 C17.09095205 16.02276755 25.79860899 37.44051127 27.22265625 60.625 C27.86916384 87.15992038 18.21981623 109.10951782 1 129 C-0.1055189 128.06409496 -1.20935453 127.12620142 -2.3125 126.1875 C-2.92738281 125.66542969 -3.54226562 125.14335937 -4.17578125 124.60546875 C-5.85424679 123.12827531 -7.43882034 121.59960869 -9 120 C-7.35233636 116.34534183 -5.1020905 113.29862452 -2.75 110.0625 C4.23174792 100.16302764 8.57212812 89.87735886 11 78 C11.18304688 77.23300781 11.36609375 76.46601562 11.5546875 75.67578125 C15.0411661 54.72632653 8.23451146 35.44369307 -3 18 C-4.90107492 15.52901859 -6.8718305 13.28388922 -9 11 C-7.59155282 7.78475695 -5.89655214 5.67816132 -3.375 3.25 C-2.74335938 2.63640625 -2.11171875 2.0228125 -1.4609375 1.390625 C-0.73777344 0.70226563 -0.73777344 0.70226563 0 0 Z " fill="#8FC9F8" transform="translate(177,48)"/>
<path d="M0 0 C5.24975135 0.94495524 8.29060008 4.5171024 11.50390625 8.54296875 C17.76321701 17.73598151 23.12444645 26.77926067 26.125 37.5625 C26.33125 38.27277344 26.5375 38.98304687 26.75 39.71484375 C31.98431815 60.97926123 26.036232 82.37711333 15.03125 100.71875 C8.08367769 111.08316116 8.08367769 111.08316116 3.125 113.5625 C0.25 113.9375 0.25 113.9375 -2.875 113.5625 C-5.72648004 111.07659432 -6.78089209 109.59768698 -7.125 105.8125 C-5.84126135 102.4747795 -4.67515187 101.11032492 -2.25 98.5625 C8.97649151 86.63057366 13.54788318 70.12047238 13.328125 54.078125 C12.39033357 37.84711949 5.81185149 23.69282212 -5.1875 11.89453125 C-7.16818464 9.15733512 -7.37082692 7.8680128 -6.875 4.5625 C-4.79050193 1.5960989 -3.57168811 0.69880854 0 0 Z " fill="#43A5F5" transform="translate(161.875,55.4375)"/>
<path d="M0 0 C2.4375 1.5625 2.4375 1.5625 4 4 C4.30899393 7.93967256 3.96582292 9.84578199 1.41796875 12.890625 C0.76441406 13.56609375 0.11085938 14.2415625 -0.5625 14.9375 C-11.19855657 26.18570371 -15.97347437 41.49384644 -16.3125 56.75 C-15.8394232 73.0711496 -9.76958747 88.86307662 1.5 100.8125 C3.76324637 103.32922996 3.99351007 103.66252368 4.0625 107.25 C2.42164948 111.49690722 2.42164948 111.49690722 0 113 C-2.8125 113.5 -2.8125 113.5 -6 113 C-19.48296967 103.03668105 -26.73519471 85.97170934 -30 70 C-30.18304688 69.23300781 -30.36609375 68.46601562 -30.5546875 67.67578125 C-33.1198161 52.26250851 -30.38689236 35.74985905 -23 22 C-22.49597656 21.04609375 -21.99195313 20.0921875 -21.47265625 19.109375 C-10.3142483 -1.03142483 -10.3142483 -1.03142483 0 0 Z " fill="#43A5F5" transform="translate(66,56)"/>
<path d="M0 0 C1.08518111 0.91447846 2.16804738 1.83170407 3.25 2.75 C3.85328125 3.26046875 4.4565625 3.7709375 5.078125 4.296875 C7.1368643 6.12128625 9.07241968 8.03830322 11 10 C10.54109375 10.556875 10.0821875 11.11375 9.609375 11.6875 C0.41302692 23.12497492 -4.37985579 35.08989165 -3 50 C-1.22457818 61.51065145 4.05888138 70.81322535 11 80 C9.73113036 81.12721436 8.45982438 82.25168658 7.1875 83.375 C6.47980469 84.00148438 5.77210937 84.62796875 5.04296875 85.2734375 C3 87 3 87 0 89 C-11.78858565 77.46223532 -17.79741686 61.21081565 -18.25 44.9375 C-18.02937543 28.83190636 -12.56960442 12.911376 -1.25 1.1875 C-0.8375 0.795625 -0.425 0.40375 0 0 Z " fill="#8EC9F8" transform="translate(67,68)"/>
<path d="M0 0 C10.69969011 7.91483926 16.76682107 22.2212983 18.72265625 35.1484375 C20.47064454 53.12071144 16.33734476 70.61214087 5 85 C3.37304405 86.38151001 1.71451992 87.72878917 0 89 C-3.33333333 85.66666667 -6.66666667 82.33333333 -10 79 C-9.55269531 78.47792969 -9.10539063 77.95585937 -8.64453125 77.41796875 C0.86088371 65.84527804 5.42676778 52.99009183 4 38 C1.8673717 26.58341499 -3.07990827 18.12863164 -10 9 C-9.44570312 8.51789063 -8.89140625 8.03578125 -8.3203125 7.5390625 C-7.59585938 6.90742187 -6.87140625 6.27578125 -6.125 5.625 C-5.40570313 4.99851562 -4.68640625 4.37203125 -3.9453125 3.7265625 C-2.5923402 2.52573166 -1.2791655 1.2791655 0 0 Z " fill="#8EC9F8" transform="translate(157,68)"/>
<path d="M0 0 C3.4375 0.5625 3.4375 0.5625 5.9375 2.125 C8.04231417 5.54532303 7.31635144 7.75414377 6.4375 11.5625 C5.7775 11.5625 5.1175 11.5625 4.4375 11.5625 C4.17066406 12.10003906 3.90382813 12.63757813 3.62890625 13.19140625 C2.75303107 14.93454144 1.86290673 16.6705353 0.96484375 18.40234375 C0.44019531 19.42457031 -0.08445312 20.44679688 -0.625 21.5 C-1.15222656 22.51964844 -1.67945312 23.53929688 -2.22265625 24.58984375 C-5.81553538 32.56121697 -5.29134806 40.89502165 -2.6171875 49.0703125 C-0.49186938 54.09236049 2.68812228 58.43019398 6.1328125 62.62890625 C7.4375 64.5625 7.4375 64.5625 7.3125 67.625 C6.00226684 72.0236399 6.00226684 72.0236399 3.4375 73.5625 C0.25 74.3125 0.25 74.3125 -3.5625 73.5625 C-12.10417286 66.98310334 -17.48424171 55.32595892 -19.3125 44.8515625 C-20.92385714 30.09757371 -17.51243502 17.45515742 -8.5625 5.5625 C-8.12808594 4.97210938 -7.69367188 4.38171875 -7.24609375 3.7734375 C-4.96167343 1.07435343 -3.51705953 0.55532519 0 0 Z " fill="#43A5F5" transform="translate(82.5625,75.4375)"/>
<path d="M0 0 C9.05662385 7.32091416 14.01008337 18.75465719 16 30 C17.44777191 44.93386644 12.71711414 57.9819372 3.5625 69.6875 C0.96805541 72.47710193 0.20019859 72.95588845 -3.6875 73.8125 C-7 73 -7 73 -9.5 70.875 C-11 68 -11 68 -11.125 65.125 C-9.83690626 61.54696182 -8.10365449 59.68073479 -5.5625 56.92578125 C0.18549374 49.84137896 1.76203924 40.87634598 1 32 C-0.23569257 25.32935454 -2.79543349 20.25926337 -6.79296875 14.8125 C-8 13 -8 13 -8 11 C-8.66 11 -9.32 11 -10 11 C-10.36010591 3.67784643 -10.36010591 3.67784643 -8.9375 1 C-5.54132918 -0.75286236 -3.78454756 -0.74450116 0 0 Z " fill="#43A5F5" transform="translate(146,76)"/>
<path d="M0 0 C3.3142272 2.99790183 5.22399543 5.93477732 7.1875 9.9375 C7.69667969 10.95714844 8.20585937 11.97679688 8.73046875 13.02734375 C12.16395996 21.06699548 11.75338866 29.29327636 9.0546875 37.4921875 C7.30134928 41.66123615 5.08782793 45.67093551 2 49 C-1 49 -1 49 -2.75390625 47.5390625 C-3.35074219 46.90742188 -3.94757813 46.27578125 -4.5625 45.625 C-5.16191406 44.99851563 -5.76132813 44.37203125 -6.37890625 43.7265625 C-6.91386719 43.15679687 -7.44882813 42.58703125 -8 42 C-8.66 41.34 -9.32 40.68 -10 40 C-9.45859375 39.35998047 -9.45859375 39.35998047 -8.90625 38.70703125 C-4.2943797 32.4938171 -3.92309545 26.5575623 -5 19 C-6.04887292 16.21861379 -7.21980361 14.42754053 -9 12 C-9.33 11.34 -9.66 10.68 -10 10 C-9.44570312 9.52949219 -8.89140625 9.05898437 -8.3203125 8.57421875 C-7.59585938 7.95160156 -6.87140625 7.32898438 -6.125 6.6875 C-5.40570313 6.07261719 -4.68640625 5.45773438 -3.9453125 4.82421875 C-1.80820669 2.9587676 -1.80820669 2.9587676 0 0 Z " fill="#8EC9F8" transform="translate(137,87)"/>
<path d="M0 0 C0.70125 0.721875 1.4025 1.44375 2.125 2.1875 C4.92770745 4.99823813 7.92262792 7.49516226 11 10 C10.6390625 10.49886719 10.278125 10.99773437 9.90625 11.51171875 C5.60839224 18.16145979 4.75107058 24.18938753 6 32 C7.315871 35.28967749 8.92568179 38.1329959 11 41 C9.73113036 42.12721436 8.45982438 43.25168658 7.1875 44.375 C6.47980469 45.00148437 5.77210937 45.62796875 5.04296875 46.2734375 C3 48 3 48 0 50 C-7.20949968 41.01729005 -10.98964981 32.70774398 -10 21 C-8.57622654 12.9145342 -4.62755119 6.668745 0 0 Z " fill="#8EC9F8" transform="translate(87,87)"/>
<path d="M0 0 C2.64819502 1.04534014 3.84683949 1.52461498 5.375 3.9375 C5.74028977 7.3468712 5.9890629 9.81773824 4.3125 12.875 C1.17165674 14.59739792 -1.12318786 14.42898241 -4.625 13.9375 C-7.125 11.75 -7.125 11.75 -8.625 8.9375 C-8.71357913 5.30575563 -7.87699218 4.20349175 -5.375 1.5625 C-2.625 -0.0625 -2.625 -0.0625 0 0 Z " fill="#E0F0FC" transform="translate(113.625,105.0625)"/>
</svg>
