<svg version="1.1" id="Layer_1" xmlns="http://www.w3.org/2000/svg" xmlns:xlink="http://www.w3.org/1999/xlink" x="0px" y="0px"
	 width="100%" viewBox="0 0 225 225" enable-background="new 0 0 225 225" xml:space="preserve">
<path fill="#FFFFFF" opacity="1.000000" stroke="none" 
	d="
M1.000000,85.000000 
	C1.000000,56.666672 1.000000,28.833344 1.000000,1.000011 
	C75.999977,1.000007 150.999954,1.000007 225.999954,1.000004 
	C225.999969,75.999969 225.999969,150.999939 225.999985,225.999939 
	C151.000046,225.999954 76.000092,225.999954 1.000068,225.999969 
	C1.000000,179.166672 1.000000,132.333328 1.000000,85.000000 
M27.565443,103.996948 
	C25.565840,103.997467 23.564739,103.948051 21.566912,104.007889 
	C15.606186,104.186432 11.966153,107.887794 11.997878,113.683167 
	C12.029296,119.422295 15.734240,122.963768 21.776426,122.998703 
	C25.442926,123.019905 29.109646,123.003014 32.776268,123.003029 
	C47.211227,123.003082 47.086662,123.003006 47.081844,137.240509 
	C47.080597,140.927673 46.095039,142.239273 42.297855,142.085083 
	C35.475956,141.808029 28.630312,141.861954 21.802656,142.058243 
	C16.059097,142.223358 12.380961,145.661758 12.004290,150.688858 
	C11.532780,156.981674 13.447506,160.180984 20.021446,161.007141 
	C27.563080,161.954895 35.252937,161.819672 42.881603,161.926361 
	C45.570499,161.963959 47.316666,162.553345 47.964649,165.427612 
	C49.577824,172.583206 54.323353,176.937988 61.085648,179.080917 
	C64.112030,180.039963 65.126289,181.529907 65.114441,184.753113 
	C65.087044,192.210358 65.125313,199.724777 66.015770,207.110046 
	C66.700867,212.792175 70.732063,215.321136 76.253632,214.990173 
	C81.095078,214.699951 84.556831,211.196136 84.927483,205.750458 
	C85.187202,201.934494 84.992920,198.087326 84.993454,194.254089 
	C84.995468,179.590027 84.992630,179.721527 99.699265,179.903931 
	C103.422112,179.950104 104.133743,181.404327 104.051323,184.658432 
	C103.874161,191.653824 103.906982,198.658447 104.027870,205.656281 
	C104.125237,211.292862 107.956551,214.985352 113.404190,215.002396 
	C118.927208,215.019669 122.785606,211.410248 122.975410,205.847351 
	C123.106049,202.018494 123.002853,198.181641 123.002930,194.348358 
	C123.003235,179.334366 122.999985,179.426727 138.118393,179.929108 
	C141.253464,180.033279 142.114532,181.139923 142.052368,184.075745 
	C141.904205,191.072510 141.808838,198.083252 142.117508,205.069565 
	C142.219513,207.378555 143.169128,209.958359 144.528030,211.838379 
	C147.226578,215.571823 151.441681,215.709076 155.426697,214.608475 
	C160.451843,213.220596 161.596588,208.684265 161.873276,204.342270 
	C162.275223,198.034439 162.174667,191.674240 161.909210,185.352280 
	C161.761887,181.844147 162.679428,179.953293 166.299271,178.948547 
	C172.255280,177.295349 176.738922,173.217239 178.510254,167.432755 
	C179.929520,162.797974 182.172745,161.774734 186.633545,161.859436 
	C193.908676,161.997604 201.293442,161.931900 208.452454,160.808456 
	C213.925812,159.949554 215.902115,155.494003 214.948669,149.704666 
	C214.253006,145.480453 210.390717,142.161514 205.790070,142.030838 
	C201.959854,141.922073 198.124130,142.006729 194.290848,142.006668 
	C179.618256,142.006424 179.746918,142.008041 179.913757,127.331581 
	C179.955658,123.646889 181.337296,122.849258 184.633514,122.946732 
	C191.127747,123.138794 197.631729,123.020065 204.131577,122.998314 
	C211.164139,122.974785 214.974228,119.670425 215.001953,113.620384 
	C215.030304,107.434227 211.301849,104.049355 204.372925,104.001175 
	C201.039795,103.977997 197.706375,103.996971 194.373077,103.996971 
	C179.354599,103.996941 179.444687,103.999847 179.930450,88.906479 
	C180.030457,85.798920 181.084854,84.881180 184.051056,84.946236 
	C191.047592,85.099678 198.058380,85.189919 205.044861,84.883270 
	C207.355591,84.781837 209.936279,83.842514 211.820465,82.488724 
	C215.563126,79.799622 215.706161,75.583000 214.617859,71.596077 
	C213.244568,66.565147 208.709488,65.415573 204.367477,65.127319 
	C198.227753,64.719727 192.030243,64.795181 185.878555,65.096069 
	C182.004791,65.285553 179.932266,64.390442 178.788803,60.254135 
	C177.208115,54.536205 173.100586,50.117550 167.461121,48.507584 
	C162.425507,47.070015 161.769760,44.395233 161.869919,39.896484 
	C162.024597,32.949760 162.042297,25.886517 160.949020,19.059923 
	C160.005783,13.170221 155.692963,11.086404 149.735260,12.047865 
	C145.337723,12.757545 142.110657,16.727484 142.019775,21.676561 
	C141.952469,25.341953 142.005768,29.009563 142.005737,32.676186 
	C142.005646,47.362511 142.007019,47.236645 127.364388,47.084850 
	C123.716911,47.047035 122.847847,45.736931 122.944206,42.399155 
	C123.141304,35.571606 123.057411,28.733797 122.986275,21.901285 
	C122.922424,15.769214 119.331123,12.030329 113.653084,11.998067 
	C107.679535,11.964128 104.092438,15.692532 104.005836,22.094614 
	C103.958504,25.593931 103.996986,29.094412 103.996971,32.594368 
	C103.996910,47.629185 103.999611,47.543072 88.944786,47.075596 
	C85.881310,46.980469 84.877312,46.005505 84.944191,42.993370 
	C85.103218,35.830345 85.062599,28.660469 84.969940,21.495077 
	C84.902954,16.314938 81.403130,12.476269 76.584724,12.011927 
	C70.474113,11.423058 66.808617,13.450484 66.109039,19.257298 
	C65.199348,26.808193 65.142639,34.483742 65.107178,42.107445 
	C65.092712,45.218208 64.386826,46.951881 61.219971,47.879452 
	C54.349133,49.891926 49.762035,54.487110 47.821934,61.401917 
	C46.983139,64.391495 45.333607,65.079857 42.416012,65.093826 
	C34.954929,65.129539 27.425114,65.019463 20.056459,65.986366 
	C13.252747,66.879143 11.055960,70.850067 12.019295,77.776642 
	C12.593890,81.908096 17.009989,84.965652 22.530628,84.987732 
	C29.363770,85.015060 36.200085,85.113785 43.028996,84.942017 
	C46.096924,84.864845 47.195370,85.955452 47.041821,88.991531 
	C46.848434,92.815094 46.900318,96.658768 47.024849,100.487968 
	C47.107906,103.041962 46.163979,104.093636 43.545547,104.028290 
	C38.548771,103.903587 33.546600,103.995155 27.565443,103.996948 
z"/>
<path fill="#E8E9EB" opacity="1.000000" stroke="none" 
	d="
M28.056057,103.996948 
	C33.546600,103.995155 38.548771,103.903587 43.545547,104.028290 
	C46.163979,104.093636 47.107906,103.041962 47.024849,100.487968 
	C46.900318,96.658768 46.848434,92.815094 47.041821,88.991531 
	C47.195370,85.955452 46.096924,84.864845 43.028996,84.942017 
	C36.200085,85.113785 29.363770,85.015060 22.530628,84.987732 
	C17.009989,84.965652 12.593890,81.908096 12.019295,77.776642 
	C11.055960,70.850067 13.252747,66.879143 20.056459,65.986366 
	C27.425114,65.019463 34.954929,65.129539 42.416012,65.093826 
	C45.333607,65.079857 46.983139,64.391495 47.821934,61.401917 
	C49.762035,54.487110 54.349133,49.891926 61.219971,47.879452 
	C64.386826,46.951881 65.092712,45.218208 65.107178,42.107445 
	C65.142639,34.483742 65.199348,26.808193 66.109039,19.257298 
	C66.808617,13.450484 70.474113,11.423058 76.584724,12.011927 
	C81.403130,12.476269 84.902954,16.314938 84.969940,21.495077 
	C85.062599,28.660469 85.103218,35.830345 84.944191,42.993370 
	C84.877312,46.005505 85.881310,46.980469 88.944786,47.075596 
	C103.999611,47.543072 103.996910,47.629185 103.996971,32.594368 
	C103.996986,29.094412 103.958504,25.593931 104.005836,22.094614 
	C104.092438,15.692532 107.679535,11.964128 113.653084,11.998067 
	C119.331123,12.030329 122.922424,15.769214 122.986275,21.901285 
	C123.057411,28.733797 123.141304,35.571606 122.944206,42.399155 
	C122.847847,45.736931 123.716911,47.047035 127.364388,47.084850 
	C142.007019,47.236645 142.005646,47.362511 142.005737,32.676186 
	C142.005768,29.009563 141.952469,25.341953 142.019775,21.676561 
	C142.110657,16.727484 145.337723,12.757545 149.735260,12.047865 
	C155.692963,11.086404 160.005783,13.170221 160.949020,19.059923 
	C162.042297,25.886517 162.024597,32.949760 161.869919,39.896484 
	C161.769760,44.395233 162.425507,47.070015 167.461121,48.507584 
	C173.100586,50.117550 177.208115,54.536205 178.788803,60.254135 
	C179.932266,64.390442 182.004791,65.285553 185.878555,65.096069 
	C192.030243,64.795181 198.227753,64.719727 204.367477,65.127319 
	C208.709488,65.415573 213.244568,66.565147 214.617859,71.596077 
	C215.706161,75.583000 215.563126,79.799622 211.820465,82.488724 
	C209.936279,83.842514 207.355591,84.781837 205.044861,84.883270 
	C198.058380,85.189919 191.047592,85.099678 184.051056,84.946236 
	C181.084854,84.881180 180.030457,85.798920 179.930450,88.906479 
	C179.444687,103.999847 179.354599,103.996941 194.373077,103.996971 
	C197.706375,103.996971 201.039795,103.977997 204.372925,104.001175 
	C211.301849,104.049355 215.030304,107.434227 215.001953,113.620384 
	C214.974228,119.670425 211.164139,122.974785 204.131577,122.998314 
	C197.631729,123.020065 191.127747,123.138794 184.633514,122.946732 
	C181.337296,122.849258 179.955658,123.646889 179.913757,127.331581 
	C179.746918,142.008041 179.618256,142.006424 194.290848,142.006668 
	C198.124130,142.006729 201.959854,141.922073 205.790070,142.030838 
	C210.390717,142.161514 214.253006,145.480453 214.948669,149.704666 
	C215.902115,155.494003 213.925812,159.949554 208.452454,160.808456 
	C201.293442,161.931900 193.908676,161.997604 186.633545,161.859436 
	C182.172745,161.774734 179.929520,162.797974 178.510254,167.432755 
	C176.738922,173.217239 172.255280,177.295349 166.299271,178.948547 
	C162.679428,179.953293 161.761887,181.844147 161.909210,185.352280 
	C162.174667,191.674240 162.275223,198.034439 161.873276,204.342270 
	C161.596588,208.684265 160.451843,213.220596 155.426697,214.608475 
	C151.441681,215.709076 147.226578,215.571823 144.528030,211.838379 
	C143.169128,209.958359 142.219513,207.378555 142.117508,205.069565 
	C141.808838,198.083252 141.904205,191.072510 142.052368,184.075745 
	C142.114532,181.139923 141.253464,180.033279 138.118393,179.929108 
	C122.999985,179.426727 123.003235,179.334366 123.002930,194.348358 
	C123.002853,198.181641 123.106049,202.018494 122.975410,205.847351 
	C122.785606,211.410248 118.927208,215.019669 113.404190,215.002396 
	C107.956551,214.985352 104.125237,211.292862 104.027870,205.656281 
	C103.906982,198.658447 103.874161,191.653824 104.051323,184.658432 
	C104.133743,181.404327 103.422112,179.950104 99.699265,179.903931 
	C84.992630,179.721527 84.995468,179.590027 84.993454,194.254089 
	C84.992920,198.087326 85.187202,201.934494 84.927483,205.750458 
	C84.556831,211.196136 81.095078,214.699951 76.253632,214.990173 
	C70.732063,215.321136 66.700867,212.792175 66.015770,207.110046 
	C65.125313,199.724777 65.087044,192.210358 65.114441,184.753113 
	C65.126289,181.529907 64.112030,180.039963 61.085648,179.080917 
	C54.323353,176.937988 49.577824,172.583206 47.964649,165.427612 
	C47.316666,162.553345 45.570499,161.963959 42.881603,161.926361 
	C35.252937,161.819672 27.563080,161.954895 20.021446,161.007141 
	C13.447506,160.180984 11.532780,156.981674 12.004290,150.688858 
	C12.380961,145.661758 16.059097,142.223358 21.802656,142.058243 
	C28.630312,141.861954 35.475956,141.808029 42.297855,142.085083 
	C46.095039,142.239273 47.080597,140.927673 47.081844,137.240509 
	C47.086662,123.003006 47.211227,123.003082 32.776268,123.003029 
	C29.109646,123.003014 25.442926,123.019905 21.776426,122.998703 
	C15.734240,122.963768 12.029296,119.422295 11.997878,113.683167 
	C11.966153,107.887794 15.606186,104.186432 21.566912,104.007889 
	C23.564739,103.948051 25.565840,103.997467 28.056057,103.996948 
M207.060043,145.857483 
	C199.684875,145.772888 192.309647,145.649139 184.934631,145.661224 
	C184.154587,145.662506 183.375839,146.461502 182.326553,147.647919 
	C182.576431,151.015045 182.826294,154.382156 183.976608,157.985489 
	C191.621185,157.904816 199.265778,157.824142 207.598846,157.679184 
	C213.321274,153.865448 213.440369,149.885223 207.060043,145.857483 
M206.026749,69.015686 
	C198.380112,69.092697 190.733475,69.169701 182.414551,69.649063 
	C182.475220,73.136131 182.535889,76.623207 183.006119,80.967102 
	C191.313705,80.912735 199.621307,80.858376 208.618805,80.670975 
	C213.612076,75.974983 213.053711,72.185280 206.026749,69.015686 
M44.703220,79.336533 
	C44.445095,75.969513 44.186970,72.602493 43.024761,69.012589 
	C35.378647,69.091988 27.732529,69.171387 19.396250,69.307709 
	C13.655920,73.139854 13.538000,77.076355 19.939306,81.145241 
	C27.332249,81.228653 34.725262,81.351509 42.118027,81.337936 
	C42.906780,81.336487 43.694069,80.538147 44.703220,79.336533 
M44.622562,157.395874 
	C44.519386,153.953796 44.416214,150.511734 44.015144,146.159378 
	C35.701176,146.175720 27.387209,146.192047 18.381424,146.332550 
	C13.395214,150.977356 13.960235,154.858551 20.497475,157.972336 
	C20.497475,157.972336 20.971945,157.889893 21.897491,158.070312 
	C28.939222,158.016129 35.980953,157.961945 43.501305,157.997498 
	C43.501305,157.997498 43.937141,157.780304 44.622562,157.395874 
M145.856430,19.939068 
	C145.772659,27.340540 145.649155,34.742085 145.662781,42.143375 
	C145.664246,42.936752 146.464462,43.728657 147.679367,44.742195 
	C150.945267,44.742195 154.211166,44.742195 157.566177,44.742195 
	C157.754425,43.715313 157.966873,43.086426 157.970261,42.456409 
	C158.006821,35.666199 158.414673,28.839256 157.805740,22.105120 
	C157.590057,19.719933 155.348328,16.648230 153.183121,15.524008 
	C150.325012,14.040025 147.481186,15.776289 145.856430,19.939068 
M145.728882,183.910156 
	C145.882278,191.917786 146.035675,199.925430 146.309326,208.627686 
	C148.702209,209.639999 151.207108,211.610657 153.451035,211.348404 
	C155.117569,211.153625 157.606400,208.132950 157.721832,206.248077 
	C158.202835,198.393219 157.924255,190.491867 157.924255,181.872726 
	C153.635315,182.287689 149.840042,182.654892 145.728882,183.910156 
M80.489349,182.331863 
	C76.727654,182.331863 72.965965,182.331863 68.967186,182.331863 
	C68.967186,190.211792 68.588562,197.561935 69.181885,204.832764 
	C69.377541,207.230331 71.599304,210.341278 73.762085,211.483475 
	C76.650856,213.009079 79.479546,211.210892 81.112213,207.053391 
	C81.064407,199.041641 81.016602,191.029907 80.489349,182.331863 
M81.297577,43.097988 
	C81.131584,35.088894 80.965591,27.079802 80.665878,18.379854 
	C78.281883,17.369328 75.778908,15.390224 73.552628,15.663684 
	C71.860474,15.871534 69.344803,18.870581 69.228119,20.753668 
	C68.741432,28.607931 69.023224,36.509811 69.023224,45.130089 
	C73.375282,44.712139 77.171776,44.347538 81.297577,43.097988 
M159.321014,50.308083 
	C141.179428,50.273705 123.037743,50.188068 104.896286,50.222496 
	C92.256340,50.246487 79.616707,50.435162 66.256599,50.417850 
	C64.624184,50.903584 62.991768,51.389313 60.696438,51.846031 
	C58.829128,53.550861 56.961815,55.255692 54.483833,57.011284 
	C54.000523,57.312820 53.517216,57.614361 52.809055,58.639950 
	C51.929981,62.462513 50.316128,66.279861 50.288952,70.108475 
	C50.085239,98.805099 50.182335,127.503960 50.233528,156.202042 
	C50.237000,158.148209 50.632698,160.093674 50.804527,162.817276 
	C51.162941,163.752274 51.521358,164.687271 51.849030,166.289230 
	C55.288872,174.686935 62.329575,176.795914 70.463448,176.805817 
	C99.094437,176.840652 127.725479,176.822266 156.356506,176.815567 
	C170.108582,176.812347 176.809113,170.051788 176.806519,156.215729 
	C176.801224,127.917442 176.807266,99.619133 176.771317,71.320892 
	C176.769028,69.523834 176.446396,67.727180 176.335175,65.123177 
	C175.928345,63.876160 175.521515,62.629143 175.170822,60.778671 
	C174.780899,60.100166 174.390976,59.421658 173.978165,58.474972 
	C173.924362,58.278381 173.796600,58.165417 173.376968,57.420052 
	C170.241714,55.325691 167.106445,53.231331 163.212418,50.910275 
	C162.168549,50.819916 161.124664,50.729557 159.321014,50.308083 
M186.728439,107.098846 
	C185.312607,107.203880 183.896774,107.308907 182.601761,107.404968 
	C182.601761,111.795837 182.601761,115.700745 182.601761,119.898300 
	C190.065170,119.898300 197.191895,119.917152 204.318451,119.891151 
	C208.524277,119.875809 211.447845,118.022675 211.898590,113.642998 
	C212.278870,109.947945 208.925903,107.208595 204.134064,107.122772 
	C198.651993,107.024590 193.166824,107.099495 186.728439,107.098846 
M119.899933,39.323563 
	C119.879341,33.334316 120.024773,27.338154 119.775696,21.358425 
	C119.627007,17.788698 117.428024,15.324924 113.803017,15.147089 
	C110.182472,14.969476 107.489059,17.192028 107.334602,20.740805 
	C106.990913,28.637642 107.227356,36.559727 107.227356,44.480564 
	C111.707062,44.480564 115.612747,44.480564 119.714378,44.480564 
	C119.785194,42.878105 119.842720,41.576511 119.899933,39.323563 
M44.734325,118.106186 
	C44.734325,114.518700 44.734325,110.931221 44.734325,107.105591 
	C36.718712,107.105591 29.413366,107.037155 22.110205,107.133850 
	C18.334583,107.183830 15.608901,109.081795 15.164867,112.933052 
	C14.774214,116.321320 16.739269,119.294525 20.010851,119.403687 
	C28.189854,119.676598 36.394218,119.189339 44.734325,118.106186 
M119.899834,199.366180 
	C119.899834,193.774063 119.899834,188.181961 119.899834,182.490082 
	C115.356392,182.490082 111.450783,182.490082 107.150818,182.490082 
	C107.150818,190.378464 106.974304,197.997192 107.225464,205.601791 
	C107.350594,209.390488 109.805923,211.893723 113.661964,211.861206 
	C117.299736,211.830536 119.338829,209.343552 119.798645,205.800064 
	C120.032440,203.998367 119.878479,202.146362 119.899834,199.366180 
z"/>
<path fill="#1A348F" opacity="1.000000" stroke="none" 
	d="
M176.272812,65.930344 
	C176.446396,67.727180 176.769028,69.523834 176.771317,71.320892 
	C176.807266,99.619133 176.801224,127.917442 176.806519,156.215729 
	C176.809113,170.051788 170.108582,176.812347 156.356506,176.815567 
	C127.725479,176.822266 99.094437,176.840652 70.463448,176.805817 
	C62.329575,176.795914 55.288872,174.686935 51.888260,165.547073 
	C51.566982,163.883102 51.206482,162.961288 50.845978,162.039474 
	C50.632698,160.093674 50.237000,158.148209 50.233528,156.202042 
	C50.182335,127.503960 50.085239,98.805099 50.288952,70.108475 
	C50.316128,66.279861 51.929981,62.462513 53.275414,58.401253 
	C55.583996,59.410427 57.287155,61.387848 59.294323,61.770458 
	C65.510559,62.955395 69.681313,65.893539 72.238342,71.950523 
	C85.356949,103.025383 98.718071,133.998062 112.087479,164.966278 
	C112.783493,166.578506 114.333878,167.821884 115.486496,169.236984 
	C116.633476,167.827087 118.222649,166.592667 118.862129,164.981354 
	C131.545334,133.023285 144.140869,101.030334 156.689484,69.019089 
	C158.513412,64.366333 162.004471,62.844849 166.654099,62.174965 
	C169.214752,61.806049 171.559158,59.936275 174.001053,58.743153 
	C174.390976,59.421658 174.780899,60.100166 175.118362,61.514160 
	C175.468201,63.476543 175.870499,64.703445 176.272812,65.930344 
z"/>
<path fill="#1A358F" opacity="1.000000" stroke="none" 
	d="
M163.971191,51.136971 
	C167.106445,53.231331 170.241714,55.325691 172.974335,57.797127 
	C158.724701,58.174198 144.877716,58.174198 131.030716,58.174198 
	C130.962143,58.769638 130.893555,59.365082 130.824966,59.960522 
	C132.547089,60.316265 134.294403,61.069958 135.987198,60.962742 
	C146.458237,60.299564 150.392578,64.150009 147.097763,73.908836 
	C139.356400,96.837624 130.835068,119.503326 122.594383,142.262817 
	C121.884972,144.222076 120.915604,146.087189 119.657661,148.916794 
	C118.630554,146.875000 118.004387,145.791565 117.522049,144.647522 
	C107.851814,121.710785 98.222237,98.756897 88.531624,75.828796 
	C83.166458,63.134773 84.378548,61.396561 98.251144,61.523121 
	C100.436218,61.543053 102.631683,60.424290 104.822334,59.832024 
	C104.713120,59.274433 104.603905,58.716846 104.494682,58.159256 
	C102.743294,58.081589 100.991898,57.936699 99.240517,57.936985 
	C86.261383,57.939098 73.282051,58.008823 60.303333,57.945881 
	C58.565502,57.937450 56.830700,57.304344 55.094498,56.960518 
	C56.961815,55.255692 58.829128,53.550861 61.447510,51.888756 
	C63.791359,51.471073 65.384148,51.010670 66.976929,50.550270 
	C79.616707,50.435162 92.256340,50.246487 104.896286,50.222496 
	C123.037743,50.188068 141.179428,50.273705 159.829910,50.790871 
	C161.549606,51.228100 162.760391,51.182533 163.971191,51.136971 
z"/>
<path fill="#C1BEFC" opacity="1.000000" stroke="none" 
	d="
M54.789165,56.985901 
	C56.830700,57.304344 58.565502,57.937450 60.303333,57.945881 
	C73.282051,58.008823 86.261383,57.939098 99.240517,57.936985 
	C100.991898,57.936699 102.743294,58.081589 104.494682,58.159256 
	C104.603905,58.716846 104.713120,59.274433 104.822334,59.832024 
	C102.631683,60.424290 100.436218,61.543053 98.251144,61.523121 
	C84.378548,61.396561 83.166458,63.134773 88.531624,75.828796 
	C98.222237,98.756897 107.851814,121.710785 117.522049,144.647522 
	C118.004387,145.791565 118.630554,146.875000 119.657661,148.916794 
	C120.915604,146.087189 121.884972,144.222076 122.594383,142.262817 
	C130.835068,119.503326 139.356400,96.837624 147.097763,73.908836 
	C150.392578,64.150009 146.458237,60.299564 135.987198,60.962742 
	C134.294403,61.069958 132.547089,60.316265 130.824966,59.960522 
	C130.893555,59.365082 130.962143,58.769638 131.030716,58.174198 
	C144.877716,58.174198 158.724701,58.174198 173.083298,58.155136 
	C173.796600,58.165417 173.924362,58.278381 173.989609,58.609062 
	C171.559158,59.936275 169.214752,61.806049 166.654099,62.174965 
	C162.004471,62.844849 158.513412,64.366333 156.689484,69.019089 
	C144.140869,101.030334 131.545334,133.023285 118.862129,164.981354 
	C118.222649,166.592667 116.633476,167.827087 115.486496,169.236984 
	C114.333878,167.821884 112.783493,166.578506 112.087479,164.966278 
	C98.718071,133.998062 85.356949,103.025383 72.238342,71.950523 
	C69.681313,65.893539 65.510559,62.955395 59.294323,61.770458 
	C57.287155,61.387848 55.583996,59.410427 53.387840,58.039227 
	C53.517216,57.614361 54.000523,57.312820 54.789165,56.985901 
z"/>
<path fill="#203992" opacity="1.000000" stroke="none" 
	d="
M187.205719,107.099014 
	C193.166824,107.099495 198.651993,107.024590 204.134064,107.122772 
	C208.925903,107.208595 212.278870,109.947945 211.898590,113.642998 
	C211.447845,118.022675 208.524277,119.875809 204.318451,119.891151 
	C197.191895,119.917152 190.065170,119.898300 182.601761,119.898300 
	C182.601761,115.700745 182.601761,111.795837 182.601761,107.404968 
	C183.896774,107.308907 185.312607,107.203880 187.205719,107.099014 
z"/>
<path fill="#203991" opacity="1.000000" stroke="none" 
	d="
M119.900085,39.799240 
	C119.842720,41.576511 119.785194,42.878105 119.714378,44.480564 
	C115.612747,44.480564 111.707062,44.480564 107.227356,44.480564 
	C107.227356,36.559727 106.990913,28.637642 107.334602,20.740805 
	C107.489059,17.192028 110.182472,14.969476 113.803017,15.147089 
	C117.428024,15.324924 119.627007,17.788698 119.775696,21.358425 
	C120.024773,27.338154 119.879341,33.334316 119.900085,39.799240 
z"/>
<path fill="#203992" opacity="1.000000" stroke="none" 
	d="
M44.661369,118.556641 
	C36.394218,119.189339 28.189854,119.676598 20.010851,119.403687 
	C16.739269,119.294525 14.774214,116.321320 15.164867,112.933052 
	C15.608901,109.081795 18.334583,107.183830 22.110205,107.133850 
	C29.413366,107.037155 36.718712,107.105591 44.734325,107.105591 
	C44.734325,110.931221 44.734325,114.518700 44.661369,118.556641 
z"/>
<path fill="#203991" opacity="1.000000" stroke="none" 
	d="
M119.899826,199.841644 
	C119.878479,202.146362 120.032440,203.998367 119.798645,205.800064 
	C119.338829,209.343552 117.299736,211.830536 113.661964,211.861206 
	C109.805923,211.893723 107.350594,209.390488 107.225464,205.601791 
	C106.974304,197.997192 107.150818,190.378464 107.150818,182.490082 
	C111.450783,182.490082 115.356392,182.490082 119.899834,182.490082 
	C119.899834,188.181961 119.899834,193.774063 119.899826,199.841644 
z"/>
<path fill="#1D3690" opacity="1.000000" stroke="none" 
	d="
M80.968269,43.982941 
	C77.171776,44.347538 73.375282,44.712139 69.023224,45.130089 
	C69.023224,36.509811 68.741432,28.607931 69.228119,20.753668 
	C69.344803,18.870581 71.860474,15.871534 73.552628,15.663684 
	C75.778908,15.390224 78.281883,17.369328 80.472488,19.040012 
	C80.185349,23.135490 79.922791,26.576536 80.039055,30.004734 
	C80.197266,34.669273 80.644798,39.324005 80.968269,43.982941 
z"/>
<path fill="#1D3690" opacity="1.000000" stroke="none" 
	d="
M80.810776,207.941940 
	C79.479546,211.210892 76.650856,213.009079 73.762085,211.483475 
	C71.599304,210.341278 69.377541,207.230331 69.181885,204.832764 
	C68.588562,197.561935 68.967186,190.211792 68.967186,182.331863 
	C72.965965,182.331863 76.727654,182.331863 80.434021,182.968628 
	C80.522713,191.717575 80.666740,199.829758 80.810776,207.941940 
z"/>
<path fill="#1D3690" opacity="1.000000" stroke="none" 
	d="
M146.044785,183.022079 
	C149.840042,182.654892 153.635315,182.287689 157.924255,181.872726 
	C157.924255,190.491867 158.202835,198.393219 157.721832,206.248077 
	C157.606400,208.132950 155.117569,211.153625 153.451035,211.348404 
	C151.207108,211.610657 148.702209,209.639999 146.512177,207.967224 
	C146.491608,199.211884 146.268188,191.116974 146.044785,183.022079 
z"/>
<path fill="#1D3690" opacity="1.000000" stroke="none" 
	d="
M146.172424,19.053652 
	C147.481186,15.776289 150.325012,14.040025 153.183121,15.524008 
	C155.348328,16.648230 157.590057,19.719933 157.805740,22.105120 
	C158.414673,28.839256 158.006821,35.666199 157.970261,42.456409 
	C157.966873,43.086426 157.754425,43.715313 157.566177,44.742195 
	C154.211166,44.742195 150.945267,44.742195 147.318329,44.126228 
	C146.695679,35.358055 146.434052,27.205854 146.172424,19.053652 
z"/>
<path fill="#1D3790" opacity="1.000000" stroke="none" 
	d="
M44.313042,147.069656 
	C44.416214,150.511734 44.519386,153.953796 44.177082,157.452789 
	C43.495296,157.642380 43.258987,157.775070 43.022682,157.907761 
	C35.980953,157.961945 28.939222,158.016129 21.363422,157.826370 
	C20.569572,157.653046 20.309793,157.723679 20.050014,157.794296 
	C13.960235,154.858551 13.395214,150.977356 19.042847,146.529388 
	C27.907194,146.840698 36.110119,146.955185 44.313042,147.069656 
z"/>
<path fill="#1D3790" opacity="1.000000" stroke="none" 
	d="
M19.050850,80.838097 
	C13.538000,77.076355 13.655920,73.139854 20.065338,69.524071 
	C28.465899,69.572113 36.197372,69.403793 43.928844,69.235474 
	C44.186970,72.602493 44.445095,75.969513 44.089779,79.688721 
	C35.334507,80.306641 27.192678,80.572372 19.050850,80.838097 
z"/>
<path fill="#1E3790" opacity="1.000000" stroke="none" 
	d="
M182.596573,80.110275 
	C182.535889,76.623207 182.475220,73.136131 183.071030,69.698090 
	C191.462753,69.574974 199.197983,69.402840 206.933228,69.230698 
	C213.053711,72.185280 213.612076,75.974983 207.960571,80.475243 
	C199.067078,80.223099 190.831818,80.166687 182.596573,80.110275 
z"/>
<path fill="#1E3790" opacity="1.000000" stroke="none" 
	d="
M183.076157,157.749283 
	C182.826294,154.382156 182.576431,151.015045 182.957794,147.305099 
	C191.706985,146.701538 199.824951,146.440811 207.942917,146.180084 
	C213.440369,149.885223 213.321274,153.865448 206.930115,157.467682 
	C198.532974,157.420547 190.804565,157.584915 183.076157,157.749283 
z"/>
<path fill="#03288C" opacity="1.000000" stroke="none" 
	d="
M80.961494,207.497665 
	C80.666740,199.829758 80.522713,191.717575 80.673737,183.311768 
	C81.016602,191.029907 81.064407,199.041641 80.961494,207.497665 
z"/>
<path fill="#03288C" opacity="1.000000" stroke="none" 
	d="
M207.501480,146.018784 
	C199.824951,146.440811 191.706985,146.701538 183.092743,146.926346 
	C183.375839,146.461502 184.154587,145.662506 184.934631,145.661224 
	C192.309647,145.649139 199.684875,145.772888 207.501480,146.018784 
z"/>
<path fill="#03288C" opacity="1.000000" stroke="none" 
	d="
M145.886841,183.466125 
	C146.268188,191.116974 146.491608,199.211884 146.452057,207.619919 
	C146.035675,199.925430 145.882278,191.917786 145.886841,183.466125 
z"/>
<path fill="#03288C" opacity="1.000000" stroke="none" 
	d="
M44.164093,146.614517 
	C36.110119,146.955185 27.907194,146.840698 19.388756,146.467300 
	C27.387209,146.192047 35.701176,146.175720 44.164093,146.614517 
z"/>
<path fill="#03288C" opacity="1.000000" stroke="none" 
	d="
M182.801346,80.538689 
	C190.831818,80.166687 199.067078,80.223099 207.615601,80.541763 
	C199.621307,80.858376 191.313705,80.912735 182.801346,80.538689 
z"/>
<path fill="#03288C" opacity="1.000000" stroke="none" 
	d="
M19.495079,80.991669 
	C27.192678,80.572372 35.334507,80.306641 43.979187,80.075195 
	C43.694069,80.538147 42.906780,81.336487 42.118027,81.337936 
	C34.725262,81.351509 27.332249,81.228653 19.495079,80.991669 
z"/>
<path fill="#03288C" opacity="1.000000" stroke="none" 
	d="
M146.014435,19.496361 
	C146.434052,27.205854 146.695679,35.358055 146.925720,44.015751 
	C146.464462,43.728657 145.664246,42.936752 145.662781,42.143375 
	C145.649155,34.742085 145.772659,27.340540 146.014435,19.496361 
z"/>
<path fill="#03288C" opacity="1.000000" stroke="none" 
	d="
M81.132919,43.540466 
	C80.644798,39.324005 80.197266,34.669273 80.039055,30.004734 
	C79.922791,26.576536 80.185349,23.135490 80.539345,19.385439 
	C80.965591,27.079802 81.131584,35.088894 81.132919,43.540466 
z"/>
<path fill="#01278B" opacity="1.000000" stroke="none" 
	d="
M183.526382,157.867386 
	C190.804565,157.584915 198.532974,157.420547 206.585876,157.499817 
	C199.265778,157.824142 191.621185,157.904816 183.526382,157.867386 
z"/>
<path fill="#01278B" opacity="1.000000" stroke="none" 
	d="
M206.479980,69.123192 
	C199.197983,69.402840 191.462753,69.574974 183.407166,69.496902 
	C190.733475,69.169701 198.380112,69.092697 206.479980,69.123192 
z"/>
<path fill="#01278B" opacity="1.000000" stroke="none" 
	d="
M43.476803,69.124031 
	C36.197372,69.403793 28.465899,69.572113 20.410419,69.495605 
	C27.732529,69.171387 35.378647,69.091988 43.476803,69.124031 
z"/>
<path fill="#0F2E8D" opacity="1.000000" stroke="none" 
	d="
M66.616760,50.484058 
	C65.384148,51.010670 63.791359,51.471073 61.778969,51.903259 
	C62.991768,51.389313 64.624184,50.903584 66.616760,50.484058 
z"/>
<path fill="#102E8D" opacity="1.000000" stroke="none" 
	d="
M176.303986,65.526764 
	C175.870499,64.703445 175.468201,63.476543 175.090302,61.815884 
	C175.521515,62.629143 175.928345,63.876160 176.303986,65.526764 
z"/>
<path fill="#0F2E8D" opacity="1.000000" stroke="none" 
	d="
M163.591797,51.023621 
	C162.760391,51.182533 161.549606,51.228100 160.209808,50.956429 
	C161.124664,50.729557 162.168549,50.819916 163.591797,51.023621 
z"/>
<path fill="#102E8D" opacity="1.000000" stroke="none" 
	d="
M50.825253,162.428375 
	C51.206482,162.961288 51.566982,163.883102 51.903629,165.213593 
	C51.521358,164.687271 51.162941,163.752274 50.825253,162.428375 
z"/>
<path fill="#00218A" opacity="1.000000" stroke="none" 
	d="
M20.273745,157.883316 
	C20.309793,157.723679 20.569572,157.653046 20.900650,157.736160 
	C20.971945,157.889893 20.497475,157.972336 20.273745,157.883316 
z"/>
<path fill="#00218A" opacity="1.000000" stroke="none" 
	d="
M43.261993,157.952637 
	C43.258987,157.775070 43.495296,157.642380 43.834373,157.645004 
	C43.937141,157.780304 43.501305,157.997498 43.261993,157.952637 
z"/>
</svg>